<?xml version="1.0" encoding="UTF-8"?>
<svg width="52px" height="26px" viewBox="0 0 52 26" version="1.1" xmlns="http://www.w3.org/2000/svg" xmlns:xlink="http://www.w3.org/1999/xlink">
    <!-- Generator: Sketch 52.5 (67469) - http://www.bohemiancoding.com/sketch -->
    <title>dapp-logo</title>
    <desc>Created with Sketch.</desc>
    <g id="Page-1" stroke="none" stroke-width="1" fill="none" fill-rule="evenodd">
        <g id="Home" transform="translate(-129.000000, -2577.000000)">
            <g id="footer" transform="translate(0.000000, 2520.000000)">
                <g id="dapp-logo" transform="translate(129.000000, 57.000000)">
                    <g id="Group">
                        <path d="M1.6744,21.4367347 L5.3248,0.424489796 C5.356,0.233469388 5.4808,0.106122449 5.668,0.106122449 L12.9064,0.106122449 C16.9312,0.106122449 18.7408,2.33469388 18.7408,6.09142857 C18.7408,8.76571429 17.8048,14.9420408 16.5256,17.5526531 C14.9968,20.7681633 12.6568,21.755102 9.1936,21.755102 L1.9552,21.755102 C1.768,21.755102 1.6432,21.6277551 1.6744,21.4367347 Z M5.668,18.3804082 C5.6368,18.5077551 5.6992,18.5714286 5.824,18.5714286 L8.944,18.5714286 C11.1904,18.5714286 12.688,17.7436735 13.6552,15.7697959 C14.404,14.1779592 15.3712,8.73387755 15.3712,6.79183673 C15.3712,4.27673469 13.9984,3.28979592 11.5648,3.28979592 L8.4448,3.28979592 C8.32,3.28979592 8.2888,3.35346939 8.2576,3.48081633 L5.668,18.3804082 Z" id="D" fill="#FFFFFF" fill-rule="nonzero"></path>
                        <path d="M27.25112,21.755102 L25.52576,21.755102 C25.41656,21.755102 25.3292,21.6659592 25.35104,21.5322449 L25.48208,20.7076735 L25.46024,20.7076735 C24.87056,21.4653878 23.84408,22.0002449 22.3808,22.0002449 C20.7428,22.0002449 19.49792,20.9528163 19.49792,19.2145306 C19.49792,16.6962449 21.22328,15.359102 24.17168,15.359102 L26.22464,15.359102 C26.312,15.359102 26.37752,15.3145306 26.39936,15.2253878 L26.48672,14.6236735 C26.72696,13.331102 26.312,12.7962449 24.58664,12.7962449 C23.45096,12.7962449 22.66472,13.1528163 22.11872,13.5539592 C21.98768,13.643102 21.87848,13.6208163 21.8348,13.5093878 L21.31064,12.1053878 C21.26696,11.9939592 21.31064,11.8825306 21.398,11.8156735 C22.29344,11.1916735 23.6912,10.7682449 25.15448,10.7682449 C28.14656,10.7682449 29.17304,11.8602449 28.7144,14.4899592 L27.49136,21.5322449 C27.46952,21.6659592 27.38216,21.755102 27.25112,21.755102 Z M23.29808,20.0836735 C24.73952,20.0836735 25.67864,19.4373878 25.8752,18.1893878 L26.02808,17.2756735 C26.04992,17.1865306 26.00624,17.1419592 25.91888,17.1419592 L24.2372,17.1419592 C22.44632,17.1419592 21.76928,17.7659592 21.76928,18.9025306 C21.76928,19.6379592 22.2716,20.0836735 23.29808,20.0836735 Z M31.90304,25.7665306 L30.00296,25.7665306 C29.87192,25.7665306 29.78456,25.6773878 29.8064,25.5436735 L32.27432,11.2362449 C32.29616,11.1025306 32.38352,11.0133878 32.51456,11.0133878 L34.41464,11.0133878 C34.54568,11.0133878 34.6112,11.1025306 34.58936,11.2362449 L34.43648,12.083102 L34.45832,12.083102 C35.09168,11.3253878 36.0308,10.7682449 37.40672,10.7682449 C39.37232,10.7682449 40.48616,12.1499592 40.48616,14.3116735 C40.48616,15.7379592 40.09304,18.167102 39.416,19.5488163 C38.56424,21.287102 37.27568,22.0002449 35.52848,22.0002449 C34.08704,22.0002449 33.3008,21.3762449 32.9732,20.663102 L32.95136,20.663102 L32.12144,25.5436735 C32.0996,25.6773878 32.03408,25.7665306 31.90304,25.7665306 Z M35.20088,19.9053878 C36.18368,19.9053878 36.92624,19.3928163 37.38488,18.4345306 C37.778,17.6322449 38.12744,15.7379592 38.12744,14.8019592 C38.12744,13.5539592 37.64696,12.863102 36.44576,12.863102 C35.46296,12.863102 34.7204,13.3533878 34.26176,14.3339592 C33.89048,15.0916735 33.5192,17.0082449 33.5192,17.9665306 C33.5192,19.1922449 33.99968,19.9053878 35.20088,19.9053878 Z M43.30352,25.7665306 L41.40344,25.7665306 C41.2724,25.7665306 41.18504,25.6773878 41.20688,25.5436735 L43.6748,11.2362449 C43.69664,11.1025306 43.784,11.0133878 43.91504,11.0133878 L45.81512,11.0133878 C45.94616,11.0133878 46.01168,11.1025306 45.98984,11.2362449 L45.83696,12.083102 L45.8588,12.083102 C46.49216,11.3253878 47.43128,10.7682449 48.8072,10.7682449 C50.7728,10.7682449 51.88664,12.1499592 51.88664,14.3116735 C51.88664,15.7379592 51.49352,18.167102 50.81648,19.5488163 C49.96472,21.287102 48.67616,22.0002449 46.92896,22.0002449 C45.48752,22.0002449 44.70128,21.3762449 44.37368,20.663102 L44.35184,20.663102 L43.52192,25.5436735 C43.50008,25.6773878 43.43456,25.7665306 43.30352,25.7665306 Z M46.60136,19.9053878 C47.58416,19.9053878 48.32672,19.3928163 48.78536,18.4345306 C49.17848,17.6322449 49.52792,15.7379592 49.52792,14.8019592 C49.52792,13.5539592 49.04744,12.863102 47.84624,12.863102 C46.86344,12.863102 46.12088,13.3533878 45.66224,14.3339592 C45.29096,15.0916735 44.91968,17.0082449 44.91968,17.9665306 C44.91968,19.1922449 45.40016,19.9053878 46.60136,19.9053878 Z" id="app" fill="#FFFFFF" fill-rule="nonzero"></path>
                        <polygon id="Rectangle" fill="#00D38C" points="0.847407408 6.89795918 11.44 6.89795918 10.5925926 10.0816327 0 10.0816327"></polygon>
                    </g>
                    <path d="M23.0012716,7.78726483 L23.9727375,1.10130246 C23.9810407,1.04052098 24.0142532,1 24.0640719,1 L26.1315508,1 C27.0365917,1 27.6261138,1.64833575 27.6261138,2.64109986 C27.6261138,3.76555716 27.053198,4.62662808 26.2394914,4.9406657 L26.9369542,7.7568741 C26.9618635,7.82778582 26.928651,7.88856729 26.8788323,7.88856729 L26.1315508,7.88856729 C26.0651257,7.88856729 26.0402164,7.85817656 26.0236101,7.78726483 L25.367663,5.0723589 L24.3712877,5.0723589 C24.3380752,5.0723589 24.3131658,5.09261939 24.3131658,5.13314038 L23.9229188,7.78726483 C23.9146156,7.84804631 23.8814031,7.88856729 23.8398875,7.88856729 L23.0759997,7.88856729 C23.026181,7.88856729 22.9929684,7.84804631 23.0012716,7.78726483 Z M24.5124408,4.0593343 L25.6665756,4.0593343 C26.2394914,4.04920405 26.6878603,3.59334298 26.6878603,2.80318379 C26.6878603,2.31693198 26.405554,2.0130246 25.9654882,2.0130246 L24.8113534,2.0130246 C24.7781409,2.0130246 24.7615347,2.03328509 24.7532315,2.07380608 L24.4709252,3.99855282 C24.4626221,4.03907381 24.4792283,4.0593343 24.5124408,4.0593343 Z M29.652077,8 C28.6889141,8 28.1990296,7.34153401 28.1990296,6.22720695 C28.1990296,5.64978292 28.3069703,4.74819103 28.5228516,4.21128799 C28.8549767,3.38060781 29.4195894,2.89435601 30.2914178,2.89435601 C31.0885181,2.89435601 31.6946464,3.49204052 31.6946464,4.60636758 C31.6946464,4.86975398 31.669737,5.16353111 31.5867057,5.69030391 C31.5784026,5.75108538 31.536887,5.79160637 31.4870682,5.79160637 L29.1123737,5.79160637 C29.0791611,5.79160637 29.0625549,5.81186686 29.0542518,5.85238784 C29.0376455,5.92329957 29.0376455,5.98408104 29.0376455,6.05499276 C29.0376455,6.78437048 29.3116487,7.04775687 29.8098364,7.04775687 C30.1917803,7.04775687 30.565421,6.81476122 30.8062117,6.54124457 C30.8560305,6.49059334 30.8975461,6.50072359 30.9307586,6.54124457 L31.2877931,7.01736614 C31.3210057,7.06801737 31.3210057,7.12879884 31.27949,7.17945007 C30.8975461,7.63531114 30.3329334,8 29.652077,8 Z M29.2286174,4.98118669 L30.756393,4.98118669 C30.7896055,4.98118669 30.8145149,4.96092619 30.822818,4.92040521 C30.8394242,4.81910275 30.8477274,4.6975398 30.8477274,4.61649783 C30.8477274,4.0593343 30.6069367,3.80607815 30.175174,3.80607815 C29.8015333,3.80607815 29.4860144,4.02894356 29.3199518,4.45441389 C29.2701331,4.58610709 29.2203143,4.75832127 29.1954049,4.92040521 C29.1871018,4.96092619 29.1954049,4.98118669 29.2286174,4.98118669 Z M34.1108566,7.88856729 L33.4798189,7.88856729 C33.4300001,7.88856729 33.3967876,7.84804631 33.3884845,7.78726483 L32.6993249,3.10709117 C32.6993249,3.0463097 32.7159311,3.00578871 32.774053,3.00578871 L33.5047283,3.00578871 C33.5462439,3.00578871 33.5794564,3.03617945 33.5877595,3.10709117 L33.9863097,6.35890014 L34.0029159,6.35890014 L35.3231133,3.10709117 C35.3480226,3.03617945 35.3812352,3.00578871 35.4310539,3.00578871 L36.2032448,3.00578871 C36.2530636,3.00578871 36.2862761,3.0463097 36.2613667,3.10709117 L34.2187973,7.78726483 C34.1938879,7.84804631 34.1689785,7.88856729 34.1108566,7.88856729 Z M38.1793892,2.04341534 L37.448714,2.04341534 C37.3988952,2.04341534 37.3739858,2.00289436 37.382289,1.94211288 L37.515139,1.10130246 C37.5234421,1.04052098 37.5566547,1 37.6064734,1 L38.3288455,1 C38.3786643,1 38.4035737,1.04052098 38.3952706,1.10130246 L38.2707236,1.94211288 C38.2624205,2.00289436 38.229208,2.04341534 38.1793892,2.04341534 Z M37.3407733,7.88856729 L36.6184012,7.88856729 C36.5685824,7.88856729 36.5353699,7.84804631 36.5436731,7.78726483 L37.2245295,3.10709117 C37.2328327,3.0463097 37.2660452,3.00578871 37.3158639,3.00578871 L38.0382361,3.00578871 C38.0880548,3.00578871 38.1129642,3.0463097 38.1046611,3.10709117 L37.4238046,7.78726483 C37.4155015,7.84804631 37.3905921,7.88856729 37.3407733,7.88856729 Z M40.30499,8 C39.3418271,8 38.8519426,7.34153401 38.8519426,6.22720695 C38.8519426,5.64978292 38.9598833,4.74819103 39.1757646,4.21128799 C39.5078897,3.38060781 40.0725024,2.89435601 40.9443308,2.89435601 C41.7414311,2.89435601 42.3475594,3.49204052 42.3475594,4.60636758 C42.3475594,4.86975398 42.32265,5.16353111 42.2396187,5.69030391 C42.2313156,5.75108538 42.1898,5.79160637 42.1399812,5.79160637 L39.7652867,5.79160637 C39.7320741,5.79160637 39.7154679,5.81186686 39.7071648,5.85238784 C39.6905585,5.92329957 39.6905585,5.98408104 39.6905585,6.05499276 C39.6905585,6.78437048 39.9645617,7.04775687 40.4627494,7.04775687 C40.8446933,7.04775687 41.218334,6.81476122 41.4591247,6.54124457 C41.5089435,6.49059334 41.5504591,6.50072359 41.5836716,6.54124457 L41.9407061,7.01736614 C41.9739187,7.06801737 41.9739187,7.12879884 41.932403,7.17945007 C41.5504591,7.63531114 40.9858464,8 40.30499,8 Z M39.8815304,4.98118669 L41.409306,4.98118669 C41.4425185,4.98118669 41.4674279,4.96092619 41.475731,4.92040521 C41.4923372,4.81910275 41.5006404,4.6975398 41.5006404,4.61649783 C41.5006404,4.0593343 41.2598497,3.80607815 40.828087,3.80607815 C40.4544463,3.80607815 40.1389274,4.02894356 39.9728648,4.45441389 C39.9230461,4.58610709 39.8732273,4.75832127 39.8483179,4.92040521 C39.8400148,4.96092619 39.8483179,4.98118669 39.8815304,4.98118669 Z M46.997311,7.88856729 L46.3662733,7.88856729 C46.3164545,7.88856729 46.283242,7.84804631 46.283242,7.78726483 L46.0092388,4.53545586 L45.9926325,4.53545586 L44.7471633,7.78726483 C44.722254,7.84804631 44.6890415,7.88856729 44.6392227,7.88856729 L43.9998818,7.88856729 C43.9500631,7.88856729 43.9251537,7.84804631 43.9168506,7.78726483 L43.3854504,3.10709117 C43.3771473,3.0463097 43.4020566,3.00578871 43.4601785,3.00578871 L44.141035,3.00578871 C44.1991569,3.00578871 44.2323694,3.03617945 44.2406726,3.10709117 L44.5063726,6.42981187 L44.5229789,6.42981187 L45.7684481,3.10709117 C45.7933575,3.0463097 45.82657,3.00578871 45.8763887,3.00578871 L46.4659108,3.00578871 C46.5157296,3.00578871 46.5489421,3.0463097 46.5572452,3.10709117 L46.8478547,6.42981187 L46.8561578,6.42981187 L48.0601114,3.10709117 C48.0850207,3.03617945 48.1099301,3.00578871 48.168052,3.00578871 L48.948546,3.00578871 C48.9900617,3.00578871 49.0149711,3.0463097 48.9900617,3.10709117 L47.1052517,7.78726483 C47.0803423,7.84804631 47.0471298,7.88856729 46.997311,7.88856729 Z" id="Review" fill="#FFFFFF" fill-rule="nonzero" opacity="0.722074963"></path>
                </g>
            </g>
        </g>
    </g>
</svg>