<svg width="142px" height="40px" viewBox="0 0 142 40" version="1.1" xmlns="http://www.w3.org/2000/svg" xmlns:xlink="http://www.w3.org/1999/xlink" data-v-f55f2e06=""><g id="Page-1" stroke="none" stroke-width="1" fill="none" fill-rule="evenodd"><g id="Group-3" fill-rule="nonzero"><g id="Group" transform="translate(0.000000, 4.891566)" fill="#E31337"><path d="M26.5279127,18.0927131 C26.6504324,18.0927131 26.726948,18.225548 26.6655699,18.3316928 L18.7799694,31.9687377 C18.7515339,32.0179131 18.6990739,32.0481928 18.6423121,32.0481928 L13.8219438,32.0481928 C13.6994241,32.0481928 13.6229085,31.9153577 13.6842866,31.8092129 L21.569887,18.172168 C21.5983227,18.1229926 21.6507826,18.0927131 21.7075443,18.0927131 L26.5279127,18.0927131 Z M21.8396156,14.1838785 C21.7828539,14.1838785 21.7303938,14.1535989 21.7019583,14.1044234 L13.6842866,0.238979804 C13.6229085,0.132834954 13.6994241,0 13.8219438,0 L18.6423121,0 C18.6990739,0 18.7515339,0.0302796171 18.7799694,0.079455043 L26.7976412,13.9448987 C26.8590192,14.0510435 26.7825037,14.1838785 26.6599839,14.1838785 L21.8396156,14.1838785 Z" id="Shape"></path> <path d="M22.7927432,0.238902745 C22.7312518,0.132757822 22.8080126,9.48371234e-16 22.9308771,9.48371234e-16 L27.7581122,9.48371234e-16 C27.815084,9.48371234e-16 27.8677329,0.030313236 27.8962462,0.0795321007 L37.0870131,15.9444111 C37.1155739,15.993712 37.1155739,16.0544807 37.0870131,16.1037817 L27.8962462,31.9686606 C27.8677329,32.0178796 27.815084,32.0481928 27.7581122,32.0481928 L22.9308771,32.0481928 C22.8080126,32.0481928 22.7312518,31.915435 22.7927432,31.80929 L31.9373473,16.0240964 L22.7927432,0.238902745 Z M18.869675,15.9438211 C18.8987258,15.9931871 18.8988721,16.0542148 18.870058,16.1037172 L9.63558024,31.9685962 C9.5739752,32.0744338 9.42011783,32.0747967 9.3580064,31.9692507 L0.021891212,16.1043717 C-0.00715952754,16.0550057 -0.00730572325,15.993978 0.0215081708,15.9444756 L9.25598603,0.0795966217 C9.31759107,-0.0262411328 9.47144844,-0.0266039013 9.53355986,0.0789421517 L18.869675,15.9438211 Z" id="Shape"></path></g> <path d="M62.6639838,0 L67.9942883,0 L67.9942883,19.700953 L62.6639838,19.700953 L62.6639838,12.0175814 L55.0893407,12.0175814 L55.0893407,19.700953 L49.7590361,19.700953 L49.7590361,0 L55.0893407,0 L55.0893407,7.12048732 L62.6639838,7.12048732 L62.6639838,0 Z M79.2159821,0 L84.476151,0 L84.476151,19.700953 L79.2159821,19.700953 L79.2159821,0 Z M101.661921,19.700953 L93.944455,0.253297969 L93.944455,0 L99.7255383,0 L104.552462,13.3685039 L109.379386,0 L115.16047,0 L115.16047,0.253297969 L107.443004,19.700953 L101.661921,19.700953 Z M129.795227,14.8601475 L140.759958,14.8601475 L140.759958,19.700953 L124.453435,19.700953 L124.453435,0 L140.563155,0 L140.563155,4.8408056 L129.795227,4.8408056 L129.795227,7.57079483 L136.627098,7.57079483 L136.627098,12.0738699 L129.795227,12.0738699 L129.795227,14.8601475 Z" id="Shape" fill="#212529"></path> <path d="M56.0790663,39.4698795 C57.1135166,39.4698795 58.0886672,39.288686 59.0045181,38.9262989 C59.920369,38.5639119 60.7044428,38.0697477 61.3567395,37.4438065 C62.0090361,36.8178652 62.5246141,36.0667357 62.9034733,35.1904179 C63.2823325,34.3141002 63.471762,33.3784827 63.471762,32.3835655 C63.471762,31.3886483 63.2823325,30.4530309 62.9034733,29.5767131 C62.5246141,28.7003953 62.0090361,27.9492658 61.3567395,27.3233245 C60.7044428,26.6973833 59.920369,26.2032191 59.0045181,25.8408321 C58.0886672,25.478445 57.1135166,25.2972515 56.0790663,25.2972515 L56.0790663,25.2972515 L49.9118976,25.2972515 L49.9118976,39.4698795 L56.0790663,39.4698795 Z M56.0790663,35.9514307 L53.7564947,35.9514307 L53.7564947,28.8255836 L56.0790663,28.8255836 C57.1266943,28.8255836 57.9799511,29.1533791 58.6388366,29.8089703 C59.2977221,30.4645614 59.6271649,31.3227598 59.6271649,32.3835655 C59.6271649,33.4377824 59.2960749,34.2959808 58.633895,34.9581608 C57.971715,35.6203407 57.1201054,35.9514307 56.0790663,35.9514307 L56.0790663,35.9514307 Z M72.7221033,39.4698795 L73.5325325,37.3252071 L79.5415686,37.3252071 L80.3717644,39.4698795 L84.5425099,39.4698795 L84.5425099,39.2722139 L78.61254,25.2972515 L74.4813277,25.2972515 L68.5513578,39.2722139 L68.5513578,39.4698795 L72.7221033,39.4698795 Z M78.3160415,34.1032568 L74.7679429,34.1032568 L76.5469338,29.467997 L78.3160415,34.1032568 Z M94.1486493,39.4698795 L94.1486493,35.3189006 L98.1316124,35.3189006 C99.6141049,35.3189006 100.837985,34.8510919 101.803252,33.9154744 C102.768519,32.9798569 103.251153,31.7740964 103.251153,30.2981928 C103.251153,28.828878 102.766872,27.6280591 101.79831,26.6957361 C100.829749,25.763413 99.607516,25.2972515 98.1316124,25.2972515 L98.1316124,25.2972515 L90.3040521,25.2972515 L90.3040521,39.4698795 L94.1486493,39.4698795 Z M97.6077984,31.9981175 L94.1486493,31.9981175 L94.1486493,28.6575678 L97.6077984,28.6575678 C98.1349068,28.6575678 98.5664768,28.8140531 98.9025085,29.1270237 C99.2385401,29.4399944 99.4065559,29.8501506 99.4065559,30.3574925 C99.4065559,30.8450678 99.2385401,31.2403991 98.9025085,31.5434864 C98.5664768,31.8465738 98.1349068,31.9981175 97.6077984,31.9981175 L97.6077984,31.9981175 Z M113.381106,39.4698795 L113.381106,35.3189006 L117.36407,35.3189006 C118.846562,35.3189006 120.070442,34.8510919 121.035709,33.9154744 C122.000977,32.9798569 122.48361,31.7740964 122.48361,30.2981928 C122.48361,28.828878 121.999329,27.6280591 121.030768,26.6957361 C120.062206,25.763413 118.839973,25.2972515 117.36407,25.2972515 L117.36407,25.2972515 L109.536509,25.2972515 L109.536509,39.4698795 L113.381106,39.4698795 Z M116.840256,31.9981175 L113.381106,31.9981175 L113.381106,28.6575678 L116.840256,28.6575678 C117.367364,28.6575678 117.798934,28.8140531 118.134966,29.1270237 C118.470997,29.4399944 118.639013,29.8501506 118.639013,30.3574925 C118.639013,30.8450678 118.470997,31.2403991 118.134966,31.5434864 C117.798934,31.8465738 117.367364,31.9981175 116.840256,31.9981175 L116.840256,31.9981175 Z M134.511154,39.7762613 C135.828925,39.7762613 136.980328,39.6016566 137.965361,39.2524473 C138.950395,38.903238 139.731175,38.364599 140.3077,37.6365305 C140.884224,36.908462 141.172487,36.0272026 141.172487,34.9927523 C141.172487,34.6303652 141.134601,34.2959808 141.058829,33.989599 C140.983057,33.6832172 140.887519,33.411427 140.772214,33.1742282 C140.656909,32.9370294 140.495482,32.7163027 140.287933,32.5120482 C140.080384,32.3077937 139.87613,32.1348362 139.675169,31.9931758 C139.474209,31.8515154 139.220538,31.7164439 138.914157,31.5879612 C138.607775,31.4594785 138.329396,31.3557041 138.079019,31.2766378 C137.828643,31.1975715 137.515672,31.1201525 137.140107,31.0443806 C136.764543,30.9686088 136.440041,30.9076619 136.166604,30.8615399 C135.893166,30.8154179 135.552193,30.7627071 135.143684,30.7034074 C133.878624,30.5189194 133.048428,30.3525508 132.653097,30.2043016 C132.257765,30.0560523 132.0601,29.830384 132.0601,29.5272967 C132.0601,28.7234563 132.837585,28.3215361 134.392555,28.3215361 C136.14519,28.3215361 137.20929,28.8255836 137.584855,29.8336785 L137.584855,29.8336785 L140.668439,28.2721197 C140.226986,27.2969691 139.474209,26.5079537 138.410109,25.9050734 C137.346009,25.3021931 136.026591,25.000753 134.451854,25.000753 C132.587208,25.000753 131.081655,25.4372647 129.935194,26.310288 C128.788733,27.1833114 128.215503,28.3709526 128.215503,29.8732116 C128.215503,30.3278426 128.27645,30.7396461 128.398343,31.108622 C128.520237,31.4775979 128.666839,31.7905685 128.838149,32.0475339 C129.00946,32.3044992 129.261483,32.5384036 129.594221,32.749247 C129.926958,32.9600904 130.228398,33.126459 130.498541,33.2483528 C130.768684,33.3702466 131.145896,33.488846 131.630177,33.604151 C132.114458,33.7194559 132.508142,33.8034639 132.811229,33.8561747 C133.114317,33.9088855 133.545887,33.9780685 134.105939,34.0637236 C134.67917,34.1427899 135.137095,34.2136201 135.479716,34.2762142 C135.822336,34.3388084 136.127071,34.4014025 136.393919,34.4639966 C136.660768,34.5265907 136.855139,34.5924793 136.977033,34.6616623 C137.098927,34.7308453 137.187877,34.8082643 137.243882,34.8939194 C137.299887,34.9795745 137.32789,35.0817018 137.32789,35.2003012 C137.32789,35.9975527 136.477927,36.3961785 134.778003,36.3961785 C132.643213,36.3961785 130.893872,35.8163592 129.529979,34.6567206 L129.529979,34.6567206 L127.889354,37.8490211 C129.754,39.1338479 131.961267,39.7762613 134.511154,39.7762613 Z" id="DAPPS" fill-opacity="0.732025787" fill="#212529"></path></g></g></svg>