<?xml version="1.0" encoding="UTF-8"?>
<svg width="634px" height="127px" viewBox="0 0 634 127" version="1.1" xmlns="http://www.w3.org/2000/svg" xmlns:xlink="http://www.w3.org/1999/xlink">
    <title>binance</title>
    <g id="Page-1" stroke="none" stroke-width="1" fill="none" fill-rule="evenodd">
        <g id="binance" fill="#F3BA2F" fill-rule="nonzero">
            <polygon id="Path" points="39.171 53.203 63.759 28.616 88.36 53.216 102.667 38.909 63.759 0 24.864 38.896"></polygon>
            <rect id="Rectangle" transform="translate(14.760384, 63.303615) rotate(45.000000) translate(-14.760384, -63.303615) " x="4.64398107" y="53.1867121" width="20.232806" height="20.233806"></rect>
            <polygon id="Path" points="39.171 73.408 63.759 97.995 88.359 73.396 102.674 87.695 102.667 87.703 63.759 126.611 24.863 87.716 24.843 87.696"></polygon>
            <rect id="Rectangle" transform="translate(112.759006, 63.310356) rotate(135.000000) translate(-112.759006, -63.310356) " x="102.642103" y="53.1939527" width="20.233806" height="20.232806"></rect>
            <polygon id="Path" points="78.271 63.298 78.277 63.298 63.759 48.78 53.03 59.509 53.029 59.509 51.797 60.742 49.254 63.285 49.254 63.285 49.234 63.305 49.254 63.326 63.759 77.831 78.277 63.313 78.284 63.305"></polygon>
            <path d="M149.37,30.679 L180.487,30.679 C188.21,30.679 194.05,32.661 198.008,36.625 C201.071,39.695 202.602,43.5 202.602,48.039 L202.602,48.231 C202.602,50.149 202.365,51.844 201.888,53.314 C201.412,54.786 200.776,56.111 199.981,57.294 C199.188,58.478 198.266,59.517 197.218,60.411 C196.169,61.307 195.042,62.075 193.835,62.713 C197.717,64.185 200.773,66.182 203.001,68.708 C205.228,71.235 206.343,74.736 206.343,79.211 L206.343,79.402 C206.343,82.472 205.753,85.157 204.572,87.46 C203.391,89.761 201.699,91.68 199.496,93.215 C197.293,94.75 194.644,95.9 191.548,96.668 C188.452,97.435 185.021,97.818 181.256,97.818 L149.37,97.818 L149.37,30.679 Z M177.376,57.822 C180.638,57.822 183.228,57.264 185.145,56.144 C187.063,55.025 188.022,53.218 188.022,50.725 L188.022,50.533 C188.022,48.296 187.19,46.586 185.528,45.402 C183.865,44.219 181.467,43.627 178.335,43.627 L163.756,43.627 L163.756,57.822 L177.376,57.822 L177.376,57.822 Z M181.309,84.871 C184.57,84.871 187.126,84.281 188.982,83.097 C190.836,81.914 191.764,80.075 191.764,77.581 L191.764,77.39 C191.764,75.152 190.9,73.378 189.174,72.066 C187.447,70.757 184.666,70.101 180.829,70.101 L163.756,70.101 L163.756,84.872 L181.309,84.872 L181.309,84.871 Z" id="Shape"></path>
            <polygon id="Path" points="224.875 30.679 239.647 30.679 239.647 97.82 224.875 97.82"></polygon>
            <polygon id="Path" points="262.02 30.679 275.638 30.679 307.099 72.019 307.099 30.679 321.678 30.679 321.678 97.82 309.114 97.82 276.598 55.138 276.598 97.82 262.02 97.82"></polygon>
            <path d="M366.398,30.2 L380.017,30.2 L408.793,97.82 L393.35,97.82 L387.211,82.762 L358.82,82.762 L352.682,97.82 L337.621,97.82 L366.398,30.2 Z M381.936,69.716 L373.015,47.944 L364.097,69.716 L381.936,69.716 Z" id="Shape"></path>
            <polygon id="Path" points="424.738 30.679 438.359 30.679 469.818 72.019 469.818 30.679 484.397 30.679 484.397 97.82 471.833 97.82 439.317 55.138 439.317 97.82 424.738 97.82 424.738 30.679"></polygon>
            <path d="M537.557,98.97 C532.631,98.97 528.061,98.074 523.84,96.285 C519.619,94.496 515.975,92.049 512.906,88.947 C509.836,85.846 507.437,82.185 505.713,77.965 C503.986,73.744 503.123,69.236 503.123,64.44 L503.123,64.249 C503.123,59.453 503.986,54.962 505.713,50.773 C507.438,46.585 509.836,42.908 512.906,39.743 C515.974,36.578 519.652,34.083 523.935,32.261 C528.218,30.439 532.953,29.528 538.132,29.528 C541.263,29.528 544.124,29.785 546.714,30.295 C549.304,30.808 551.653,31.51 553.765,32.405 C555.876,33.301 557.824,34.388 559.617,35.666 C561.404,36.946 563.068,38.352 564.603,39.887 L555.205,50.725 C552.58,48.36 549.912,46.504 547.195,45.162 C544.476,43.82 541.424,43.148 538.035,43.148 C535.221,43.148 532.615,43.692 530.219,44.779 C527.821,45.866 525.758,47.368 524.031,49.286 C522.306,51.204 520.963,53.427 520.002,55.952 C519.045,58.479 518.566,61.18 518.566,64.057 L518.566,64.248 C518.566,67.125 519.045,69.844 520.002,72.4 C520.963,74.959 522.287,77.196 523.984,79.114 C525.677,81.032 527.724,82.552 530.121,83.671 C532.521,84.791 535.158,85.349 538.035,85.349 C541.873,85.349 545.115,84.646 547.769,83.239 C550.423,81.834 553.062,79.915 555.683,77.484 L565.083,86.98 C563.356,88.835 561.563,90.498 559.712,91.967 C557.857,93.439 555.827,94.701 553.62,95.757 C551.415,96.811 548.999,97.612 546.38,98.154 C543.756,98.697 540.816,98.97 537.557,98.97 Z" id="Path"></path>
            <polygon id="Path" points="582.467 30.679 633.014 30.679 633.014 43.82 597.047 43.82 597.047 57.44 628.699 57.44 628.699 70.58 597.047 70.58 597.047 84.68 633.496 84.68 633.496 97.82 582.467 97.82"></polygon>
        </g>
    </g>
</svg>