<svg width="103" height="32" viewBox="0 0 103 32" fill="none" xmlns="http://www.w3.org/2000/svg">
<g clip-path="url(#clip0_9458_8429)">
<path d="M40.3708 15.0738C41.1457 14.6338 41.7664 14.0859 42.2183 13.4399C42.7332 12.7043 42.9948 11.8642 42.9948 10.9442C42.9948 9.22179 42.3509 7.87743 41.082 6.94775C39.8283 6.02885 38.1032 5.56348 35.9532 5.56348H28.1787V25.5144H36.2638C38.5281 25.5144 40.3411 24.988 41.652 23.9489C42.9732 22.9011 43.644 21.4338 43.644 19.5868C43.644 18.4625 43.3286 17.4951 42.7074 16.7121C42.1498 16.0121 41.3652 15.4615 40.3713 15.0738H40.3708ZM32.386 9.15924H35.6151C36.6278 9.15924 37.3924 9.35553 37.8891 9.74164C38.3798 10.1229 38.6182 10.6239 38.6182 11.2726C38.6182 11.9213 38.3798 12.4476 37.8891 12.8305C37.3924 13.2166 36.6278 13.4129 35.6151 13.4129H32.386V9.15924ZM38.465 21.2424C37.9053 21.691 37.0506 21.9181 35.9251 21.9181H32.386V17.0356H35.9251C37.05 17.0356 37.9058 17.2551 38.4677 17.686C39.0248 18.1158 39.2955 18.6831 39.2955 19.4224C39.2955 20.2 39.0237 20.7953 38.465 21.2429V21.2424Z" fill="#00E0FF"/>
<path d="M49.3281 10.5952H45.0928V25.5132H49.3281V10.5952Z" fill="#00E0FF"/>
<path d="M91.1601 12.8391C90.4898 12.041 89.6497 11.4154 88.6628 10.9792C87.6771 10.5435 86.5684 10.3213 85.3691 10.3213C83.8991 10.3213 82.573 10.6551 81.4266 11.313C80.2774 11.973 79.3655 12.8898 78.7152 14.0395C78.0648 15.1881 77.7354 16.5211 77.7354 18.0003C77.7354 19.4795 78.0551 20.9004 78.6855 22.0668C79.3175 23.237 80.2262 24.1548 81.3856 24.7971C82.5428 25.4356 83.9023 25.7597 85.4257 25.7597C87.2958 25.7597 88.8834 25.2894 90.1453 24.3614C91.3607 23.4684 92.1966 22.2087 92.6517 20.6319H88.3878C88.1635 21.1684 87.8475 21.6252 87.3951 21.9471C86.8601 22.3268 86.1693 22.5193 85.341 22.5193C84.6227 22.5193 84.0074 22.3446 83.5119 22.0005C83.0141 21.6565 82.634 21.1479 82.3843 20.4874C82.2344 20.0948 82.1281 19.6434 82.0656 19.1414H92.7261L92.7472 19.0087C92.9375 17.8056 92.8895 16.6656 92.6027 15.6206C92.3152 14.5728 91.8299 13.6372 91.1601 12.8391ZM82.133 16.3793C82.1982 16.0757 82.2861 15.7597 82.3978 15.4717C82.6577 14.8025 83.033 14.2875 83.514 13.9435C83.9929 13.5994 84.5888 13.4258 85.2855 13.4258C86.1585 13.4258 86.8752 13.7089 87.4155 14.266C87.9278 14.796 88.2185 15.5203 88.2805 16.3793H82.1335H82.133Z" fill="#00E0FF"/>
<path d="M49.4171 5.56299H45.0049V9.15875H49.4171V5.56299Z" fill="#00E0FF"/>
<path d="M72.6103 12.288C72.1093 11.6861 71.5221 11.2197 70.8599 10.8972C70.0693 10.5149 69.1445 10.3213 68.1108 10.3213C66.8451 10.3213 65.7105 10.6335 64.7399 11.2483C63.7703 11.8625 63.0013 12.7307 62.455 13.827C61.9109 14.9206 61.6343 16.2046 61.6343 17.6449C61.6343 19.0853 61.9249 20.2938 62.4987 21.3949C63.0736 22.4999 63.8706 23.3799 64.8671 24.0119C65.8658 24.6456 67.0047 24.967 68.2526 24.967C69.1947 24.967 70.0553 24.7631 70.8092 24.3603C71.4061 24.0416 71.906 23.6199 72.3002 23.1049V24.7291C72.3002 25.7359 72.0355 26.5087 71.5151 27.0237C70.9931 27.5387 70.1993 27.7986 69.1553 27.7986C68.2558 27.7986 67.5483 27.5948 67.0533 27.1919C66.6483 26.8624 66.2945 26.43 66.212 25.5143H62.1288C62.1665 26.7956 62.5429 27.6589 63.0741 28.4155C63.67 29.2632 64.508 29.926 65.5671 30.3838C66.6159 30.8362 67.833 31.0659 69.1839 31.0659C71.4514 31.0659 73.2569 30.496 74.5484 29.3732C75.848 28.244 76.507 26.6629 76.507 24.6747V10.5952H72.6103V12.288ZM71.8645 19.6267C71.596 20.1811 71.2169 20.6157 70.7364 20.9166C70.2565 21.2175 69.6773 21.3707 69.014 21.3707C68.0552 21.3707 67.31 21.0444 66.734 20.3725C66.1603 19.7044 65.8696 18.7865 65.8696 17.6444C65.8696 16.5022 66.1603 15.5844 66.734 14.9152C67.3024 14.2525 68.0698 13.9171 69.014 13.9171C69.9582 13.9171 70.7925 14.2573 71.3792 14.9303C71.9713 15.6087 72.2717 16.5314 72.2717 17.6708C72.2717 18.4091 72.1347 19.0664 71.8645 19.6262V19.6267Z" fill="#00E0FF"/>
<path d="M103.001 14.1636V10.5959H99.9443V5.56299H95.7371V10.5959H93.126V14.1636H95.7371V20.0037C95.7371 23.2506 96.3766 25.6368 100.363 25.5629L102.866 25.5139V22.1689H101.624C99.8521 22.1689 99.9508 21.1356 99.9508 19.217L99.9438 14.1636H103.001H103.001Z" fill="#00E0FF"/>
<path d="M60.6054 14.1633V10.5956H57.5483V5.56274H53.3411V10.5956H50.73V14.1633H53.3411V20.0035C53.3411 23.2504 53.9806 25.6366 57.9673 25.5627L60.47 25.5136V22.1686H59.2281C57.4561 22.1686 57.5548 21.1354 57.5548 19.2167L57.5478 14.1633H60.6048H60.6054Z" fill="#00E0FF"/>
<path d="M10.5589 9.15874H16.9119L23.411 15.6163C23.8338 16.0364 23.8359 16.7197 23.4153 17.1419L15.0806 25.5187H8.53613L10.5147 23.5952L17.779 16.3767L10.6069 9.1582" fill="#00E0FF"/>
<path d="M13.1696 16.3605H6.81658L0.317459 9.90291C-0.105318 9.48283 -0.107475 8.79959 0.313145 8.37735L8.64789 0H15.1923L13.2138 1.92353L5.94945 9.14202L13.1216 16.3605" fill="#00E0FF"/>
</g>
<defs>
<clipPath id="clip0_9458_8429">
<rect width="103" height="32" fill="white"/>
</clipPath>
</defs>
</svg>
