<?xml version="1.0" encoding="UTF-8"?>
<svg width="86px" height="21px" viewBox="0 0 86 21" version="1.1" xmlns="http://www.w3.org/2000/svg" xmlns:xlink="http://www.w3.org/1999/xlink">
    <!-- Generator: Sketch 54.1 (76490) - https://sketchapp.com -->
    <title>logo_bitsonic_gnb</title>
    <desc>Created with Sketch.</desc>
    <defs>
        <linearGradient x1="137.289013%" y1="-29.9178333%" x2="16.1831783%" y2="91.1880019%" id="linearGradient-1">
            <stop stop-color="#006EFF" offset="0%"></stop>
            <stop stop-color="#00EBA0" offset="100%"></stop>
        </linearGradient>
        <linearGradient x1="121.475779%" y1="-24.7160632%" x2="15.5902157%" y2="81.1657491%" id="linearGradient-2">
            <stop stop-color="#006EFF" offset="0%"></stop>
            <stop stop-color="#00EBA0" offset="100%"></stop>
        </linearGradient>
        <linearGradient x1="95.3045805%" y1="3.74228086%" x2="-5.04977977%" y2="104.096641%" id="linearGradient-3">
            <stop stop-color="#006EFF" offset="0%"></stop>
            <stop stop-color="#00EBA0" offset="100%"></stop>
        </linearGradient>
        <linearGradient x1="119.757361%" y1="-18.8032579%" x2="19.3996317%" y2="81.5544716%" id="linearGradient-4">
            <stop stop-color="#006EFF" offset="0%"></stop>
            <stop stop-color="#00EBA0" offset="100%"></stop>
        </linearGradient>
        <linearGradient x1="112.321517%" y1="-9.07930502%" x2="6.43595374%" y2="96.806258%" id="linearGradient-5">
            <stop stop-color="#006EFF" offset="0%"></stop>
            <stop stop-color="#00EBA0" offset="100%"></stop>
        </linearGradient>
        <linearGradient x1="115.736095%" y1="-23.1045909%" x2="-5.3648335%" y2="97.991432%" id="linearGradient-6">
            <stop stop-color="#006EFF" offset="0%"></stop>
            <stop stop-color="#00EBA0" offset="100%"></stop>
        </linearGradient>
        <linearGradient x1="165.031004%" y1="-82.7977493%" x2="-33.5510284%" y2="115.784283%" id="linearGradient-7">
            <stop stop-color="#006EFF" offset="0%"></stop>
            <stop stop-color="#00EBA0" offset="100%"></stop>
        </linearGradient>
    </defs>
    <g id="01_web" stroke="none" stroke-width="1" fill="none" fill-rule="evenodd">
        <g id="00_GNB_01글로벌" transform="translate(-15.000000, -17.000000)">
            <g id="GNB">
                <g id="logo_bitsonic_gnb" transform="translate(15.000000, 17.000000)">
                    <g transform="translate(0.000000, -0.000000)">
                        <path d="M25.8844441,17.5153007 C25.8844441,16.9383008 25.5000922,16.5242018 24.908927,16.5242018 L22.9272013,16.5242018 L22.9272013,18.5059275 L24.908927,18.5059275 C25.5000922,18.5059275 25.8844441,18.0918285 25.8844441,17.5153007 Z M22.9272013,12.5909698 L22.9272013,14.4249041 L24.6128722,14.4249041 C25.1454875,14.4249041 25.5147297,14.0405523 25.5147297,13.507937 C25.5147297,12.9757938 25.160125,12.5909698 24.6128722,12.5909698 L22.9272013,12.5909698 Z M28.2505216,17.6928392 C28.2505216,19.5263013 26.7570266,20.7242137 24.908927,20.7242137 L20.561596,20.7242137 L20.561596,10.3736279 L24.6128722,10.3736279 C26.4165872,10.3736279 27.8808072,11.5417931 27.8808072,13.3308707 C27.8808072,14.1883436 27.54084,14.8687502 26.9784775,15.3565088 C27.7476534,15.8442673 28.2505216,16.6427182 28.2505216,17.6928392 Z M29.4326632,20.7241192 L29.4326632,10.3735335 L31.7987407,10.3735335 L31.7987407,20.7241192 L29.4326632,20.7241192 Z M40.5228665,12.6506057 L37.8612064,12.6506057 L37.8612064,20.7243553 L35.4956011,20.7243553 L35.4956011,12.6506057 L32.8339409,12.6506057 L32.8339409,10.3737696 L40.5228665,10.3737696 L40.5228665,12.6506057 Z M41.4692975,18.3729625 L43.5095731,17.1896877 C43.8792875,18.0481049 44.5153095,18.6241605 45.6834747,18.6241605 C46.8072553,18.6241605 47.0882004,18.1807866 47.0882004,17.7813251 C47.0882004,17.145303 46.496563,16.894105 44.944046,16.4653686 C43.4066386,16.0366321 41.898034,15.2972034 41.898034,13.3159499 C41.898034,11.3195868 43.5837049,10.1660591 45.3732546,10.1660591 C47.0735629,10.1660591 48.4046291,10.9796195 49.1586953,12.5023894 L47.1623322,13.6705546 C46.8072553,12.9315981 46.3194967,12.4731145 45.3732546,12.4731145 C44.6338259,12.4731145 44.2636393,12.8423567 44.2636393,13.2564556 C44.2636393,13.7300489 44.5153095,14.0549065 46.1273208,14.5436094 C47.6944753,15.0162583 49.4542779,15.5635111 49.4542779,17.7520501 C49.4542779,19.7479411 47.8569041,20.9307438 45.6098151,20.9307438 C43.4359135,20.9307438 42.0458253,19.8962046 41.4692975,18.3729625 Z M58.5181349,15.5486847 C58.5181349,13.7005851 57.1875409,12.4729256 55.5013979,12.4729256 C53.8161992,12.4729256 52.485133,13.7005851 52.485133,15.5486847 C52.485133,17.3972565 53.8161992,18.6244438 55.5013979,18.6244438 C57.1875409,18.6244438 58.5181349,17.3972565 58.5181349,15.5486847 Z M50.1190555,15.5486847 C50.1190555,12.5026727 52.5295176,10.1663424 55.5013979,10.1663424 C58.4737503,10.1663424 60.8842124,12.5026727 60.8842124,15.5486847 C60.8842124,18.5946967 58.4737503,20.9305549 55.5013979,20.9305549 C52.5295176,20.9305549 50.1190555,18.5946967 50.1190555,15.5486847 Z M70.3472475,10.3736279 L70.3472475,20.7242137 L68.5728075,20.7242137 L64.5805533,15.1053108 L64.5805533,20.7242137 L62.2144758,20.7242137 L62.2144758,10.3736279 L63.9889159,10.3736279 L67.9816422,15.9920586 L67.9816422,10.3736279 L70.3472475,10.3736279 Z M72.1212154,20.7241192 L72.1212154,10.3735335 L74.487293,10.3735335 L74.487293,20.7241192 L72.1212154,20.7241192 Z M75.8178397,15.5486847 C75.8178397,12.5026727 78.0805105,10.1663424 81.2001821,10.1663424 C83.0780288,10.1663424 84.7344248,11.0974748 85.6362823,12.5616948 L83.5955345,13.7449697 C83.1370509,12.9460467 82.2503031,12.4729256 81.2001821,12.4729256 C79.3667199,12.4729256 78.183445,13.7005851 78.183445,15.5486847 C78.183445,17.3972565 79.3667199,18.6244438 81.2001821,18.6244438 C82.2503031,18.6244438 83.1521606,18.1513228 83.5955345,17.3523998 L85.6362823,18.5356746 C84.7490622,19.9994224 83.0931385,20.9305549 81.2001821,20.9305549 C78.0805105,20.9305549 75.8178397,18.5946967 75.8178397,15.5486847 Z" id="bitsonic" fill="#FFFFFF"></path>
                        <g id="logo_simbol" transform="translate(0.000000, -0.000000)">
                            <path d="M15.3679355,10.561932 L7.66956634,18.259829 L5.7969135,20.1324818 C6.3809961,20.2689409 6.98868752,20.3435448 7.61384949,20.3435448 L7.61384949,20.3435448 C7.65256798,20.3435448 7.69034212,20.3416561 7.72906061,20.3407117 L7.72906061,20.3407117 L9.60171345,18.4675867 L17.4488182,10.6204819 C17.4492904,10.5822356 17.4516513,10.5444615 17.4516513,10.505743 L17.4516513,10.505743 C17.4516513,9.88058102 17.3775196,9.27241741 17.2405883,8.688807 L17.2405883,8.688807 L15.3679355,10.561932 Z" id="Fill-30" fill="url(#linearGradient-1)"></path>
                            <path d="M9.95490163,4.76501851 L1.87312502,12.846323 L-1.50990331e-14,14.7199201 C0.161484436,15.245925 0.37632484,15.7487932 0.637910739,16.2219143 L0.637910739,16.2219143 L2.51103576,14.3487893 L13.3300208,3.52980423 C12.8564275,3.26821833 12.3540315,3.05337793 11.8280267,2.89236567 L11.8280267,2.89236567 L9.95490163,4.76501851 Z" id="Fill-24" fill="url(#linearGradient-2)"></path>
                            <path d="M17.0503011,0.471987842 L6.06274899,11.4590678 L4.18962397,13.332665 C4.46348646,13.7637623 4.7770118,14.1670012 5.12595039,14.5367156 L5.12595039,14.5367156 L6.99860324,12.6631184 L18.2543517,1.40831426 C17.8841652,1.0589035 17.4813984,0.745850335 17.0503011,0.471987842 Z" id="Fill-21" fill="url(#linearGradient-3)"></path>
                            <path d="M13.4074578,6.91719997 L2.15218146,18.1724763 C2.52189582,18.5214149 2.92513474,18.8349402 3.35623207,19.1083305 L3.35623207,19.1083305 L5.22935709,17.2356777 L14.343312,8.12125059 L16.216437,6.24812557 C15.9425745,5.81702823 15.6295214,5.41378932 15.2805828,5.04407495 L15.2805828,5.04407495 L13.4074578,6.91719997 Z" id="Fill-18" fill="url(#linearGradient-4)"></path>
                            <path d="M16.2428789,6.8841476 L5.4238939,17.7036048 C5.89748714,17.9642463 6.39988316,18.1795589 6.92588802,18.3410434 L6.92588802,18.3410434 L16.8807897,8.38614172 L18.7539147,6.51348888 C18.5924302,5.98748402 18.3775898,5.48461582 18.1160039,5.01102258 L18.1160039,5.01102258 L16.2428789,6.8841476 Z" id="Fill-15" fill="url(#linearGradient-5)"></path>
                            <path d="M11.0253262,0.892225116 L3.17822145,8.73885773 L1.30509643,10.6119827 C1.30462426,10.6507012 1.30226337,10.6884754 1.30226337,10.7267217 L1.30226337,10.7267217 C1.30226337,11.3523558 1.37686729,11.9605194 1.51332636,12.5441299 L1.51332636,12.5441299 L11.0843483,2.97358007 L12.9574733,1.09998287 C12.3729186,0.963995977 11.7652271,0.889392056 11.1400652,0.889392056 L11.1400652,0.889392056 C11.1013467,0.889392056 11.0635726,0.892225116 11.0253262,0.892225116" id="Fill-12" fill="url(#linearGradient-6)"></path>
                            <path d="M1.56432145,9.69123816 L8.67199751,2.5835621 C4.92433094,2.96413653 1.94489588,5.94357159 1.56432145,9.69123816" id="Fill-27" fill="url(#linearGradient-7)"></path>
                        </g>
                    </g>
                </g>
            </g>
        </g>
    </g>
</svg>