<?xml version="1.0" encoding="UTF-8"?>
<svg width="115px" height="26px" viewBox="0 0 115 26" version="1.1" xmlns="http://www.w3.org/2000/svg" xmlns:xlink="http://www.w3.org/1999/xlink">
    <title>Page 1</title>
    <g id="Page-1" stroke="none" stroke-width="1" fill="none" fill-rule="evenodd">
        <g id="bittrex_mark" fill="#0082D7">
            <path d="M5.264,0 L5.264,4.038 L7.799,4.038 L7.799,2.536 L23.009,2.536 L23.009,17.756 L7.8,17.756 L7.8,9.578 L5.264,9.578 L5.264,20.293 L25.544,20.293 L25.544,0 L5.264,0 Z M0,5.707 L0,26 L20.28,26 L20.28,21.8 L17.745,21.8 L17.745,23.465 L2.535,23.465 L2.535,8.245 L17.745,8.245 L17.745,16.26 L20.28,16.26 L20.28,5.707 L0,5.707 Z" id="Shape"></path>
        </g>
        <g id="bittrex_word" transform="translate(34.000000, 6.000000)" fill="#FFFFFF">
            <path d="M66.003,7.994 L59.875,7.994 L59.875,13.285 L66.712,13.285 L66.712,14.669 L58.235,14.669 L58.235,0.063 L66.654,0.063 L66.654,1.447 L59.874,1.447 L59.874,6.667 L66.003,6.667 L66.003,7.994 Z M14.12,14.657 L15.76,14.657 L15.76,0.063 L14.12,0.063 L14.12,14.657 L14.12,14.657 Z M5.597,13.285 L2.19,13.285 L2.19,7.936 L5.725,7.936 C7.585,7.936 8.783,9.018 8.783,10.68 C8.783,12.308 7.597,13.285 5.597,13.285 Z M2.19,1.448 L5.167,1.448 C7.027,1.448 8.097,2.355 8.097,3.843 C8.097,5.553 7.016,6.634 5.353,6.634 L2.179,6.634 L2.179,1.448 L2.19,1.448 Z M7.388,7.146 C8.946,6.669 9.783,5.46 9.783,3.716 C9.783,1.425 8.073,0.064 5.167,0.064 L0.55,0.064 L0.55,14.657 L5.596,14.657 C8.654,14.657 10.468,13.169 10.468,10.669 C10.468,8.925 9.328,7.599 7.387,7.146 L7.388,7.146 Z M23.399,1.448 L19.283,1.448 L19.283,0.063 L29.12,0.063 L29.12,1.447 L25.038,1.447 L25.038,14.656 L23.4,14.656 L23.4,1.448 L23.399,1.448 Z M31.48,1.448 L35.608,1.448 L35.608,14.658 L37.248,14.658 L37.248,1.448 L41.328,1.448 L41.328,0.063 L31.492,0.063 L31.492,1.447 L31.48,1.448 L31.48,1.448 Z M50.898,8.808 C52.84,8.355 54.073,6.89 54.073,4.529 C54.073,1.727 52.177,0.064 48.956,0.064 L44.747,0.064 L44.747,14.657 L46.387,14.657 L46.387,9.007 L49.537,9.007 L52.712,14.657 L54.654,14.657 L51.328,9.239 L50.898,8.809 L50.898,8.808 Z M76.363,7.215 L80.7,0.088 L78.71,0.088 L75.455,5.878 L75.327,6.436 L75.199,5.878 L71.943,0.088 L69.98,0.088 L74.317,7.215 L69.852,14.669 L71.864,14.669 L75.213,8.668 L75.34,8.11 L75.468,8.668 L78.828,14.668 L80.84,14.668 L76.364,7.215 L76.363,7.215 Z M46.375,7.715 L49.155,7.715 C51.096,7.715 52.41,6.657 52.41,4.541 C52.41,2.599 51.247,1.46 49.259,1.46 L46.364,1.46 L46.364,7.715 L46.375,7.715 Z" id="Shape"></path>
        </g>
    </g>
</svg>