<?xml version="1.0" encoding="UTF-8"?>
<svg width="270px" height="66px" viewBox="0 0 270 66" version="1.1" xmlns="http://www.w3.org/2000/svg" xmlns:xlink="http://www.w3.org/1999/xlink">
    <title>BTCC</title>
    <g id="BTCC" stroke="none" stroke-width="1" fill="none" fill-rule="evenodd">
        <g id="BTCCg" transform="translate(0.000000, -26.000000)" fill="#ffffff" fill-rule="nonzero">
            <path d="M32.46,65.75 C32.46,65.75 35.5609365,68.6386576 38.8169534,71.6231832 L39.3061509,72.0712319 C40.938231,73.5647971 42.5722581,75.0474194 43.84,76.17 C44.8708197,77.0827869 46.1458748,78.1689465 47.4661227,79.2747307 L47.9629454,79.6900194 C51.5331174,82.6685434 55.25,85.65 55.25,85.65 C53.7504855,87.1001456 52.0699101,88.3504937 50.25,89.37 C48.6701046,90.285691 47.0218741,91.0780453 45.32,91.74 C45.32,91.74 43.6188166,90.8154438 41.8153261,89.7960613 L41.3813427,89.5500137 C40.5127219,89.0559763 39.65,88.5553846 38.97,88.14 C36.81,86.8371429 33.5626531,84.4469388 32.6789213,83.7906122 L32.5541097,83.6977627 C32.4862812,83.6472109 32.45,83.62 32.45,83.62 C32.45,83.62 30.3989796,85.1506122 28.3158892,86.5791837 L27.8994417,86.8630537 C27.830162,86.9099773 27.7609961,86.9566667 27.692019,87.0030612 L27.2810185,87.2774074 C26.8055556,87.5922222 26.3466667,87.8866667 25.93,88.14 C25.25,88.5553846 24.3872781,89.0559763 23.5186573,89.5500137 L23.0846739,89.7960613 C21.2811834,90.8154438 19.58,91.74 19.58,91.74 C17.8779192,91.0746007 16.2296975,90.2789075 14.65,89.36 L14.65,89.36 L14.67,89.41 C12.8501508,88.3903998 11.1695869,87.1400603 9.67,85.69 C9.67,85.69 12.7316205,83.2251707 15.967065,80.5351877 L16.4658077,80.1198698 C18.130258,78.7315695 19.8014754,77.3142623 21.09,76.17 C22.4845161,74.9316129 24.3209781,73.2600937 26.1101628,71.6187523 L26.5965825,71.1722101 C29.6651613,68.353257 32.46,65.75 32.46,65.75 Z M106.19,33.23 C108.465061,33.2319445 110.737225,33.3923326 112.99,33.71 C115.132206,33.9845773 117.210051,34.6309425 119.13,35.62 C120.918512,36.5533568 122.437098,37.9307583 123.54,39.62 C124.758813,41.6862013 125.346292,44.0639263 125.23,46.46 C125.326456,49.1147758 124.451861,51.7136727 122.77,53.77 C121.048714,55.7557781 118.786752,57.1977357 116.26,57.92 L116.26,58.07 C117.884647,58.2869152 119.462448,58.7700536 120.93,59.5 C122.285175,60.1806003 123.505076,61.1023035 124.53,62.22 C125.562876,63.3427277 126.364771,64.6576992 126.89,66.09 C127.435146,67.5966165 127.709374,69.1878172 127.7,70.79 C127.779102,73.2169193 127.150197,75.6144042 125.89,77.69 C124.735912,79.5070898 123.174724,81.0306179 121.33,82.14 C119.385976,83.3001588 117.259087,84.1218346 115.04,84.57 C112.754959,85.0539533 110.425727,85.2986064 108.09,85.3 L86.79,85.3 L86.79,33.23 L106.19,33.23 Z M172.52,33.39 L172.52,43.5 L157.72,43.5 L157.72,85.27 L146.29,85.27 L146.29,43.5 L131.49,43.5 L131.49,33.39 L172.52,33.39 Z M202.89,33.2 C204.351369,33.2052672 205.809754,33.3323742 207.25,33.58 C208.776425,33.8389955 210.273645,34.2476328 211.72,34.8 C213.214108,35.3714927 214.634256,36.1201759 215.95,37.03 C217.322571,37.984089 218.545905,39.1366511 219.58,40.45 L211.2,47.3 C210.136488,46.0044143 208.783471,44.9768066 207.25,44.3 C205.537434,43.5886488 203.693694,43.2478465 201.84,43.3 C197.93983,43.2609146 194.211967,44.9043808 191.61,47.81 C190.294075,49.2919429 189.275563,51.0132277 188.61,52.88 C187.164851,57.0071497 187.164851,61.5028503 188.61,65.63 C189.292606,67.4676487 190.309772,69.1629246 191.61,70.63 C192.840277,72.032094 194.348943,73.1627425 196.04,73.95 C197.756466,74.7462113 199.627898,75.152599 201.52,75.14 C203.586261,75.1806038 205.629351,74.6990675 207.46,73.74 C209.182058,72.8097999 210.645933,71.4661955 211.72,69.83 L220.8,76.6 C218.786311,79.4653191 216.016856,81.7155018 212.8,83.1 C209.673765,84.4761721 206.295727,85.1878757 202.88,85.19 C199.236509,85.2273824 195.615851,84.6109559 192.19,83.37 C189.047669,82.2321354 186.171848,80.4623993 183.74,78.17 C181.329795,75.8569723 179.438095,73.0586201 178.19,69.96 C175.531189,63.036488 175.531189,55.373512 178.19,48.45 C179.438095,45.3513799 181.329795,42.5530277 183.74,40.24 C186.172021,37.9478265 189.047793,36.1781207 192.19,35.04 C195.617754,33.7910521 199.241941,33.1678273 202.89,33.2 Z M251.58,33.19 C253.041369,33.1952672 254.499754,33.3223742 255.94,33.57 C257.466425,33.8289955 258.963645,34.2376328 260.41,34.79 C261.903909,35.361931 263.324006,36.1105873 264.64,37.02 C266.012571,37.974089 267.235905,39.1266511 268.27,40.44 L259.89,47.3 C258.826488,46.0044143 257.473471,44.9768066 255.94,44.3 C254.227434,43.5886488 252.383694,43.2478465 250.53,43.3 C246.62983,43.2609146 242.901967,44.9043808 240.3,47.81 C238.984075,49.2919429 237.965563,51.0132277 237.3,52.88 C235.854851,57.0071497 235.854851,61.5028503 237.3,65.63 C237.982606,67.4676487 238.999772,69.1629246 240.3,70.63 C241.530277,72.032094 243.038943,73.1627425 244.73,73.95 C246.446466,74.7462113 248.317898,75.152599 250.21,75.14 C252.276261,75.1806038 254.319351,74.6990675 256.15,73.74 C257.872058,72.8097999 259.335933,71.4661955 260.41,69.83 L269.49,76.6 C267.476311,79.4653191 264.706856,81.7155018 261.49,83.1 C258.363765,84.4761721 254.985727,85.1878757 251.57,85.19 C247.928046,85.2165745 244.310825,84.5899961 240.89,83.34 C237.747422,82.2026483 234.871502,80.4328513 232.44,78.14 C230.029561,75.8271693 228.137825,73.0287637 226.89,69.93 C224.231189,63.006488 224.231189,55.343512 226.89,48.42 C228.137825,45.3212363 230.029561,42.5228307 232.44,40.21 C234.871848,37.9176007 237.747669,36.1478646 240.89,35.01 C244.315851,33.7690441 247.936509,33.1526176 251.58,33.19 Z M6.1,36.53 C6.1,36.53 12.09,44.01 15.58,47.94 C16.8183871,49.3345161 18.4899063,51.1709781 20.1312477,52.9601628 L20.5777899,53.4465825 C23.396743,56.5151613 26,59.31 26,59.31 C26,59.31 23.1113424,62.4109365 20.1268168,65.6669534 L19.6787681,66.1561509 C18.1852029,67.788231 16.7025806,69.4222581 15.58,70.69 C14.6672131,71.7208197 13.5810535,72.9958748 12.4752693,74.3161227 L12.0599806,74.8129454 C9.2199926,78.2170629 6.37733846,81.7545609 6.11904935,82.0762662 L6.1,82.1 C4.65002495,80.6003407 3.39969404,78.9197884 2.38,77.1 C1.46119776,75.5202466 0.66550849,73.8720331 5.68434189e-14,72.17 C5.68434189e-14,72.17 0.924556213,70.4688166 1.9439387,68.6653261 L2.18998635,68.2313427 C2.68402367,67.3627219 3.18461538,66.5 3.6,65.82 C4.90285714,63.66 7.29306122,60.4126531 7.94938776,59.5289213 L8.04223734,59.4041097 C8.09278912,59.3362812 8.12,59.3 8.12,59.3 C8.12,59.3 6.58938776,57.2438776 5.16081633,55.161516 L4.87694633,54.7452953 C4.83002268,54.6760674 4.78333333,54.6069606 4.73693878,54.5380503 L4.46259259,54.1275463 C4.14777778,53.6527778 3.85333333,53.195 3.6,52.78 C3.18461538,52.1 2.68402367,51.2372781 2.18998635,50.3686573 L1.9439387,49.9346739 C0.924556213,48.1311834 5.68434189e-14,46.43 5.68434189e-14,46.43 C0.661954748,44.7281259 1.45430899,43.0798954 2.37,41.5 L2.37,41.5 L2.38,41.53 C3.39969404,39.7102116 4.65002495,38.0296593 6.1,36.53 Z M58.83,36.5 C60.279975,37.9996593 61.530306,39.6802116 62.55,41.5 C63.4655855,43.0799512 64.2579358,44.7281735 64.92,46.43 C64.92,46.43 63.9954438,48.1311834 62.9760613,49.9346739 L62.7300137,50.3686573 C62.2359763,51.2372781 61.7353846,52.1 61.32,52.78 C60.0171429,54.94 57.6269388,58.1873469 56.9706122,59.0710787 L56.8777627,59.1958903 C56.8272109,59.2637188 56.8,59.3 56.8,59.3 C56.8,59.3 58.3306122,61.3510204 59.7591837,63.4341108 L60.0430537,63.8505583 C60.0899773,63.919838 60.1366667,63.9890039 60.1830612,64.057981 L60.4574074,64.4689815 C60.7722222,64.9444444 61.0666667,65.4033333 61.32,65.82 C61.7353846,66.5 62.2359763,67.3627219 62.7300137,68.2313427 L62.9760613,68.6653261 C63.9954438,70.4688166 64.92,72.17 64.92,72.17 C64.2545643,73.8720649 63.4588724,75.5202839 62.54,77.1 C61.5205877,78.919971 60.270231,80.6005581 58.82,82.1 C58.82,82.1 56.4799516,79.2050148 53.8812975,76.0670101 L53.469138,75.5699028 C52.0211825,73.8256651 50.5277049,72.0498361 49.34,70.69 C48.4638095,69.6868254 47.3586445,68.4585462 46.1973236,67.184206 L45.7595335,66.704519 C45.6862423,66.6243278 45.6128161,66.5440442 45.5392971,66.4637118 L44.8762604,65.7405829 L44.8762604,65.7405829 L44.4348278,65.2605302 C41.5725397,62.1511565 38.89,59.3 38.89,59.3 C38.89,59.3 41.5648753,56.4411791 44.4284408,53.3307105 L44.8701427,52.8505431 L44.8701427,52.8505431 L45.7544315,51.8867347 C47.0757143,50.4438776 48.3557143,49.0328571 49.35,47.91 C50.2627869,46.8791803 51.3489465,45.6041252 52.4547307,44.2838773 L52.8700194,43.7870546 C55.8485434,40.2168826 58.83,36.5 58.83,36.5 Z M106.95,63.74 L98.28,63.74 L98.26,75.57 L108.55,75.57 C109.4511,75.5688347 110.349509,75.4716188 111.23,75.28 C112.105662,75.1045732 112.940299,74.7652901 113.69,74.28 C114.426689,73.7876108 115.042122,73.1345674 115.49,72.37 C115.979743,71.4946959 116.221743,70.5024959 116.19,69.5 C116.24443,68.4230793 115.918806,67.3612617 115.27,66.5 C114.653762,65.7381305 113.856019,65.1432616 112.95,64.77 C111.98974,64.369926 110.981128,64.0976008 109.95,63.96 C108.956104,63.8191069 107.953817,63.7456058 106.95,63.74 Z M106.06,42.89 L98.27,42.89 L98.26,54.0300233 L106.57,54.0300233 C107.448135,54.0317545 108.323668,53.9344731 109.18,53.74 C110.005963,53.5452097 110.79125,53.2067243 111.5,52.74 C112.18541,52.2968031 112.751899,51.6925485 113.15,50.98 C113.587716,50.1668023 113.804916,49.2531819 113.78,48.33 C113.814498,47.3873543 113.57107,46.4553705 113.08,45.65 C112.629859,44.9560636 112.010387,44.3882141 111.28,44 C110.495329,43.589807 109.652082,43.3031028 108.78,43.15 C107.883132,42.9807627 106.972689,42.8937351 106.06,42.89 Z M45.33,26.82 C47.0317633,27.4822099 48.6799745,28.2745549 50.26,29.19 L50.26,29.19 L50.24,29.2 C52.0597276,30.2197878 53.7402684,31.4701101 55.24,32.92 L55.24,32.92 L55.2162974,32.9390182 C54.9263561,33.1717301 52.0208028,35.5058219 48.9543937,38.0466681 L48.4561158,38.4602103 C48.3729638,38.5293363 48.2897911,38.5985386 48.2066464,38.6677796 L47.7085002,39.0833924 C46.3002311,40.2605859 44.9280328,41.427377 43.83,42.4 C42.686129,43.4132258 41.2472529,44.7163996 39.7810785,46.0557625 L39.0469559,46.7272849 C35.7035484,49.7894771 32.45,52.82 32.45,52.82 C32.45,52.82 29.3490635,49.9313424 26.0930466,46.9468168 L25.6038491,46.4987681 C23.971769,45.0052029 22.3377419,43.5225806 21.07,42.4 C20.0391803,41.4872131 18.7641252,40.4010535 17.4438773,39.2952693 L16.9470546,38.8799806 C13.3768826,35.9014566 9.66,32.92 9.66,32.92 C11.1594419,31.469769 12.840029,30.2194123 14.66,29.2 C16.2397161,28.2811276 17.8879351,27.4854357 19.59,26.82 C19.59,26.82 21.2911834,27.7445562 23.0946739,28.7639387 L23.5286573,29.0099863 C24.3972781,29.5040237 25.26,30.0046154 25.94,30.42 C28.1,31.7228571 31.3473469,34.1130612 32.2310787,34.7693878 L32.3558903,34.8622373 C32.4237188,34.9127891 32.46,34.94 32.46,34.94 C32.46,34.94 34.5161224,33.4093878 36.598484,31.9808163 L37.0147047,31.6969463 C37.0839326,31.6500227 37.1530394,31.6033333 37.2219497,31.5569388 L37.6324537,31.2825926 C38.1072222,30.9677778 38.565,30.6733333 38.98,30.42 C39.66,30.0046154 40.5227219,29.5040237 41.3913427,29.0099863 L41.8253261,28.7639387 C43.6288166,27.7445562 45.33,26.82 45.33,26.82 Z" id="BTCCtp"></path>
        </g>
    </g>
</svg>