<?xml version="1.0" encoding="UTF-8"?>
<svg width="146px" height="22px" viewBox="0 0 146 22" version="1.1" xmlns="http://www.w3.org/2000/svg" xmlns:xlink="http://www.w3.org/1999/xlink">
    <title>huobi</title>
    <g id="Page-1" stroke="none" stroke-width="1" fill="none" fill-rule="evenodd">
        <g id="huobi">
            <path d="M27.102809,5.73155 L27.102809,11.9738667 L20.9432965,11.9738667 L20.9432965,6.53455 C20.9432965,6.09106667 20.5834322,5.73155 20.1397462,5.73155 L18.0607136,5.73155 L18.0607136,20.6070333 C18.0607136,21.0507 18.4203945,21.4102167 18.8642638,21.4102167 L20.9432965,21.4102167 L20.9432965,14.4914 L27.102809,14.4914 L27.102809,20.6070333 C27.102809,21.0507 27.4624899,21.4102167 27.9063593,21.4102167 L29.9852085,21.4102167 L29.9852085,6.53455 C29.9852085,6.09106667 29.6255276,5.73155 29.1816583,5.73155 L27.102809,5.73155" id="Fill-1" fill="#D7E2F2" fill-rule="nonzero"></path>
            <path d="M39.1938467,9.42791667 L39.1938467,16.8576833 C39.1938467,17.5327167 38.8493894,18.1727333 38.2646558,18.5104333 C36.6324271,19.4531333 34.9433392,18.2755833 34.9433392,16.7229333 L34.9433392,10.2309167 C34.9433392,9.78743333 34.5836583,9.42791667 34.1397889,9.42791667 L32.0525025,9.42791667 L32.0525025,16.9876667 C32.0525025,19.4201333 34.043495,21.4102167 36.4770729,21.4102167 L37.6601131,21.4102167 C40.093691,21.4102167 42.0846834,19.4201333 42.0846834,16.9876667 L42.0846834,10.2309167 C42.0846834,9.78743333 41.7250025,9.42791667 41.2813166,9.42791667 L39.1938467,9.42791667" id="Fill-2" fill="#D7E2F2" fill-rule="nonzero"></path>
            <path d="M71.2560704,21.4102167 L73.335103,21.4102167 L73.335103,10.8889 C73.335103,10.4452333 72.9752387,10.0857167 72.5315528,10.0857167 L70.4527035,10.0857167 L70.4527035,20.6070333 C70.4527035,21.0507 70.8123844,21.4102167 71.2560704,21.4102167" id="Fill-3" fill="#357CE1" fill-rule="nonzero"></path>
            <path d="M71.8938116,8.94556667 C72.7822839,8.94556667 73.5025628,8.22561667 73.5025628,7.33755 C73.5025628,6.44948333 72.7822839,5.72971667 71.8938116,5.72971667 C71.0053392,5.72971667 70.2852437,6.44948333 70.2852437,7.33755 C70.2852437,8.22561667 71.0053392,8.94556667 71.8938116,8.94556667" id="Fill-4" fill="#357CE1" fill-rule="nonzero"></path>
            <path d="M52.2285653,16.4352833 C52.2285653,17.8647333 51.0587312,18.8162333 49.6286281,18.8162333 C48.1985251,18.8162333 47.0285075,17.8647333 47.0285075,16.4352833 L47.0285075,14.3955167 C47.0285075,12.9660667 48.1985251,12.0145667 49.6286281,12.0145667 C51.0587312,12.0145667 52.2285653,12.9660667 52.2285653,14.3955167 L52.2285653,16.4352833 Z M49.6286281,9.42058333 L49.6286281,9.42058333 C46.6049975,9.42058333 44.1312513,11.58245 44.1312513,14.6045167 L44.1312513,16.2391167 C44.1312513,19.2611833 46.6049975,21.4102167 49.6286281,21.4102167 C52.6520754,21.4102167 55.126005,19.2611833 55.126005,16.2391167 L55.126005,14.6045167 C55.126005,11.58245 52.6520754,9.42058333 49.6286281,9.42058333 L49.6286281,9.42058333 Z" id="Fill-5" fill="#D7E2F2" fill-rule="nonzero"></path>
            <path d="M65.3124397,16.4352833 C65.3124397,17.8647333 64.1424221,18.8162333 62.7123191,18.8162333 C61.2823995,18.8162333 60.1121985,17.8647333 60.1121985,16.4352833 L60.1121985,14.3955167 C60.1121985,12.9660667 61.2823995,12.0145667 62.7123191,12.0145667 C64.1424221,12.0145667 65.3124397,12.9660667 65.3124397,14.3955167 L65.3124397,16.4352833 Z M62.7123191,9.42058333 L62.7123191,9.42058333 C61.7673543,9.42058333 60.8763141,9.63178333 60.0975251,10.0144 L60.0975251,6.52116667 C60.0975251,6.0775 59.7376608,5.71798333 59.2939749,5.71798333 L57.2149422,5.71798333 L57.2149422,16.2391167 C57.2149422,19.2613667 59.6888719,21.4102167 62.7123191,21.4102167 C65.7359497,21.4102167 68.209696,19.2613667 68.209696,16.2391167 L68.209696,14.6045167 C68.209696,11.58245 65.7359497,9.42058333 62.7123191,9.42058333 L62.7123191,9.42058333 Z" id="Fill-6" fill="#357CE1" fill-rule="nonzero"></path>
            <path d="M122.788568,16.4849667 C122.788568,17.8995667 121.630656,18.84135 120.215226,18.84135 C118.79998,18.84135 117.641884,17.8995667 117.641884,16.4849667 L117.641884,14.4661 C117.641884,13.0515 118.79998,12.1097167 120.215226,12.1097167 C121.630656,12.1097167 122.788568,13.0515 122.788568,14.4661 L122.788568,16.4849667 Z M120.21541,9.5425 L120.215226,9.5425 C119.280166,9.5425 118.398113,9.75131667 117.627394,10.1299 L117.627394,6.52373333 C117.627394,6.08483333 117.271198,5.72898333 116.832098,5.72898333 L114.774525,5.72898333 L114.774525,16.2908167 C114.774525,19.2819 117.222776,21.4085667 120.215226,21.4085667 L120.21541,21.4085667 C123.207676,21.4085667 125.656111,19.2819 125.656111,16.2908167 L125.656111,14.6729 C125.656111,11.682 123.207676,9.5425 120.21541,9.5425 L120.21541,9.5425 Z" id="Fill-7" fill="#D7E2F2" fill-rule="nonzero"></path>
            <g id="Fill-8"></g>
            <path d="M145.886465,21.35485 L145.886465,19.5457167 C145.886465,19.11745 145.539623,18.7707667 145.111161,18.7722333 C144.677746,18.7737 144.133915,18.7751667 143.674271,18.7751667 C142.50297,18.7751667 142.557812,18.1899667 142.557812,16.6727 L142.557812,6.51566667 C142.557812,6.08831667 142.211337,5.742 141.784158,5.742 L139.673761,5.742 L139.673761,17.0195667 C139.673761,19.7506833 140.378083,21.35485 143.327246,21.35485 C144.467,21.35485 145.293661,21.3225833 145.886281,21.3550333 L145.886465,21.35485" id="Fill-9" fill="#D7E2F2" fill-rule="nonzero"></path>
            <path d="M90.6414221,12.0396833 L85.0637085,12.0396833 L85.0637085,13.5587833 C85.0637085,14.0154667 85.4340276,14.3856167 85.8907362,14.3856167 L88.540196,14.3856167 L88.540196,15.7287167 C88.540196,16.7196333 88.2925829,17.45095 87.7810327,17.9663 C87.1530126,18.6145667 86.283799,18.9570333 85.2680352,18.9570333 C84.3526005,18.9570333 83.4811859,18.6402333 82.9375377,18.10985 C82.1816759,17.3693667 82.0188015,16.5652667 82.0188015,13.5804167 C82.0188015,10.6126167 82.1816759,9.81218333 82.9371709,9.07243333 C83.4949422,8.52848333 84.5826055,8.1169 85.4842839,8.1169 C88.5334095,8.1169 89.5574271,9.19856667 90.3213593,10.1834333 L90.4213216,10.1834333 L90.4213216,7.98105 C90.4213216,7.65545 90.2657839,7.35111667 90.0113844,7.1478 C88.7340678,6.1259 87.4607864,5.75245 85.2680352,5.75245 C83.4971432,5.75245 81.9828518,6.30868333 80.7677136,7.40556667 C79.0896307,8.92008333 79.0898141,10.6289333 79.0901702,13.4599667 L79.0901702,13.7008667 C79.0898141,16.5319 79.0896307,18.2405667 80.7677136,19.7550833 C81.9659774,20.8369333 83.5222714,21.4085667 85.2680352,21.4085667 C87.1016558,21.4085667 88.7157261,20.79165 89.9356332,19.6247333 L89.936,19.6243667 C91.0245804,18.5793667 91.4686332,16.5781 91.4686332,14.4972667 L91.4686332,12.8663333 C91.4686332,12.4098333 91.0983141,12.0396833 90.6414221,12.0396833" id="Fill-10" fill="#D7E2F2" fill-rule="nonzero"></path>
            <g id="Fill-11"></g>
            <path d="M99.7297387,21.35485 L99.7297387,19.5457167 C99.7297387,19.11745 99.382897,18.7707667 98.9544347,18.7722333 C98.5210201,18.7737 97.9771884,18.7751667 97.5175452,18.7751667 C96.3464271,18.7751667 96.4010854,18.1899667 96.4010854,16.6727 L96.4010854,6.51566667 C96.4010854,6.08831667 96.054794,5.742 95.6274322,5.742 L93.5170352,5.742 L93.5170352,17.0195667 C93.5170352,19.7506833 94.2213568,21.35485 97.1707035,21.35485 C98.3102739,21.35485 99.1369347,21.3225833 99.7295553,21.3550333 L99.7297387,21.35485" id="Fill-12" fill="#D7E2F2" fill-rule="nonzero"></path>
            <path d="M109.825015,16.4849667 C109.825015,17.8995667 108.66692,18.84135 107.251673,18.84135 C105.836244,18.84135 104.678332,17.8995667 104.678332,16.4849667 L104.678332,14.4661 C104.678332,13.0515 105.836244,12.1097167 107.251673,12.1097167 C108.66692,12.1097167 109.825015,13.0515 109.825015,14.4661 L109.825015,16.4849667 Z M107.251673,9.5425 L107.251673,9.5425 C104.259224,9.5425 101.810789,11.682 101.810789,14.6729 L101.810789,16.2908167 C101.810789,19.2819 104.259224,21.4085667 107.251673,21.4085667 C110.244123,21.4085667 112.692374,19.2819 112.692374,16.2908167 L112.692374,14.6729 C112.692374,11.682 110.244123,9.5425 107.251673,9.5425 L107.251673,9.5425 Z" id="Fill-13" fill="#D7E2F2" fill-rule="nonzero"></path>
            <path d="M134.757633,16.0372667 L134.757633,19.0146 C134.535148,19.0576833 134.289369,19.0919667 134.023231,19.11635 C133.37045,19.1777667 132.785166,19.18895 132.106156,19.1271667 C131.840384,19.10315 131.594972,19.0353167 131.376523,18.92715 C131.165593,18.8221 130.992997,18.6728667 130.849565,18.4704667 C130.713286,18.2787 130.644138,17.99545 130.644138,17.6286 C130.644138,17.05715 130.847915,16.64795 131.267756,16.3771667 C131.714377,16.0887833 132.391003,15.9423 133.279108,15.9423 C133.518651,15.9423 133.810467,15.95605 134.155291,15.9833667 C134.381078,16.0013333 134.582103,16.0193 134.757633,16.0372667 Z M136.300721,10.5508333 C135.445631,9.86828333 134.195827,9.52233333 132.585058,9.52233333 C131.986201,9.52233333 131.356897,9.56596667 130.71402,9.65176667 C130.198435,9.72051667 129.468802,9.81896667 128.962754,9.93556667 C128.75751,9.98286667 128.71991,10.1440167 128.71991,10.3370667 L128.71991,11.87615 C128.71991,12.1504167 128.722661,12.3999333 129.013193,12.3291667 C129.555191,12.1971667 130.606721,11.9643333 130.892118,11.9172167 C131.343874,11.8429667 131.835616,11.8055667 132.353585,11.8055667 C133.160437,11.8055667 133.775618,11.94985 134.18207,12.2334667 C134.563945,12.5007667 134.757633,13.0095167 134.757633,13.7454167 L134.757633,13.8345167 C134.614018,13.8213167 134.456279,13.8086667 134.284234,13.7971167 C133.96252,13.7754833 133.550198,13.7644833 133.047636,13.7644833 C132.361472,13.7644833 131.696585,13.8422167 131.072234,13.9956667 C130.438344,14.1518667 129.868467,14.3931333 129.378193,14.7134167 C128.879482,15.0401167 128.47945,15.4546333 128.189467,15.9467 C127.89655,16.44225 127.748349,17.0226833 127.748349,17.67095 C127.748349,18.3294833 127.875274,18.9027667 128.125638,19.3744833 C128.377837,19.8504167 128.740819,20.2473333 129.203214,20.5536833 C129.658455,20.8561833 130.217327,21.0772833 130.863688,21.21185 C131.492075,21.3423833 132.20355,21.4085667 132.978304,21.4085667 C133.542495,21.4085667 137.606834,21.3513667 137.606834,19.4181167 C137.606834,17.1779667 137.606834,13.8295667 137.606834,13.8295667 C137.606834,12.3465833 137.167367,11.2434667 136.300721,10.5508333 L136.300721,10.5508333 Z" id="Fill-14" fill="#D7E2F2" fill-rule="nonzero"></path>
            <path d="M9.43002261,6.81981667 C9.43002261,3.69765 7.90839447,1.01273333 6.75103266,0.138416667 C6.74626382,0.135666667 6.66244221,0.08855 6.66959548,0.2134 L6.66794472,0.21725 C6.57183417,6.24543333 3.49079397,7.8793 1.79693719,10.0802167 C-2.11204774,15.1592833 1.52327889,20.72785 5.22518593,21.7570833 C7.29651508,22.3329333 4.74683417,20.7381167 4.41851759,17.36955 C4.0214196,13.2980833 9.43002261,10.1902167 9.43002261,6.81981667" id="Fill-15" fill="#D7E2F2" fill-rule="nonzero"></path>
            <path d="M11.2062337,8.87223333 C11.1825729,8.8561 11.1488241,8.8451 11.1255302,8.8836 C11.0618844,9.64241667 10.286397,11.26565 9.30346482,12.75615 C5.96967588,17.8119333 7.86951005,20.2491667 8.93773116,21.5581667 C9.55804774,22.3180833 8.93773116,21.5581667 10.4881558,20.7815667 C10.6095779,20.7207 13.5132538,19.0930667 13.8276307,15.3846 C14.132103,11.7934667 11.974201,9.52985 11.2062337,8.87223333" id="Fill-16" fill="#357CE1" fill-rule="nonzero"></path>
        </g>
    </g>
</svg>