<svg width="656" height="200" viewBox="0 0 656 200" fill="none" xmlns="http://www.w3.org/2000/svg">
<path fill-rule="evenodd" clip-rule="evenodd" d="M52.5349 26.3889C52.5349 11.8147 40.7745 0 26.2674 0C11.7603 0 0 11.8147 0 26.3889V173.611C0 188.185 11.7603 200 26.2674 200C31.4198 200 36.2257 198.51 40.2818 195.937C42.0383 194.863 43.6965 193.563 45.215 192.038L46.6622 190.584L47.3721 189.87L59.943 177.24L63.0765 174.092L64.8351 172.325L65.2519 171.907L66.058 171.097L67.1984 169.951L67.3395 169.809C68.1514 168.997 70.5566 166.61 74.5551 162.649C83.0824 154.198 96.756 154.102 105.401 162.431L105.808 162.824C109.832 166.7 112.248 169.04 113.058 169.843L117.777 174.582L118.728 175.538L124.033 180.868L125.204 182.044L129.59 186.45L130.926 187.792L135.152 192.038C145.41 202.343 162.041 202.343 172.299 192.038C182.557 181.732 182.576 164.56 172.299 153.329C162.022 142.098 154.123 133.633 146.139 125.597C138.154 117.561 133.134 112.989 124.72 105.396C123.945 104.697 123.054 103.864 122.046 102.899C121.736 102.602 121.422 102.309 121.103 102.021C102.53 85.2144 73.9123 86.7161 57.1833 105.375L56.1603 106.403L54.5676 108.003L53.4671 109.108L52.5439 110.036L52.5349 26.3889ZM169.647 8.29538C157.515 -1.71627 139.564 0.00233176 129.552 12.134L107.515 38.8382C97.5032 50.9698 99.2218 68.9205 111.353 78.9322C123.485 88.9439 141.436 87.2253 151.448 75.0936L173.485 48.3894C183.497 36.2578 181.778 18.307 169.647 8.29538Z" fill="white"/>
<path d="M319.823 141.875L271.218 95.4718L315.589 57.0283C319.315 53.8105 319.992 50.5928 319.992 48.2218C319.992 42.8025 315.758 38.5686 310 38.5686C307.46 38.5686 304.581 39.5847 301.363 42.6331L247.847 91.9154H247.339V50.5928C247.339 40.4315 240.226 38.5686 236.669 38.5686C233.113 38.5686 226 40.4315 226 50.5928V149.496C226 159.657 233.113 161.52 236.669 161.52C240.226 161.52 247.339 159.657 247.339 149.496V99.8751H247.847L304.242 157.117C307.29 160.335 310.508 161.52 313.218 161.52C319.653 161.52 324.226 156.948 324.226 150.682C324.226 147.802 323.04 145.093 319.823 141.875Z" fill="white"/>
<path d="M400.943 163C418.048 163 431.597 156.903 439.218 149.452C442.435 146.234 443.621 143.016 443.621 140.306C443.621 134.548 439.387 130.992 434.137 130.992C431.935 130.992 429.734 131.5 426.177 134.548C418.726 141.153 410.597 143.863 401.113 143.863C376.387 143.863 360.468 125.742 360.468 99.6613C360.468 74.9355 377.234 55.7984 401.96 55.7984C410.935 55.7984 418.895 59.1855 423.637 63.25C427.363 65.9597 429.564 66.6371 431.766 66.6371C437.524 66.6371 441.758 62.2339 441.758 56.8145C441.758 54.4435 441.08 51.5645 437.016 48.0081C429.056 41.2339 415.677 37 401.96 37C365.04 37 336.927 61.2177 336.927 99.6613C336.927 137.089 363.516 163 400.943 163Z" fill="white"/>
<path d="M527.742 107.113C536.718 107.113 537.903 100.847 537.903 98.1371C537.903 95.4274 536.718 89.1612 527.742 89.1612H481.339V58.6774H530.452C539.597 58.6774 540.952 52.2419 540.952 49.3629C540.952 46.4838 539.597 40.0483 530.452 40.0483H472.702C464.065 40.0483 460 44.1129 460 52.75V147.25C460 155.887 464.065 159.952 472.702 159.952H533.669C542.645 159.952 544 153.516 544 150.468C544 147.419 542.645 140.984 533.669 140.984H481.339V107.113H527.742Z" fill="white"/>
<path d="M652.61 142.847L618.908 96.4436L647.868 55.9678C650.239 52.7501 650.916 50.2098 650.916 48.1775C650.916 42.4195 646.682 38.5243 641.094 38.5243C638.384 38.5243 635.166 39.3711 631.779 44.113L606.037 81.5404L579.448 44.113C576.061 39.3711 572.674 38.5243 569.965 38.5243C564.206 38.5243 559.634 42.9275 559.634 48.5162C559.634 50.8872 560.311 53.2582 563.021 56.8146L592.319 95.9356L558.787 142.847C556.077 146.742 555.4 149.113 555.4 151.315C555.4 157.242 559.803 161.476 565.731 161.476C568.44 161.476 571.997 160.629 575.384 155.718L605.19 112.363L635.505 155.548C639.061 160.629 642.448 161.476 645.158 161.476C651.255 161.476 655.997 157.242 655.997 151.145C655.997 148.944 655.319 146.573 652.61 142.847Z" fill="white"/>
</svg>
