<svg
    xmlns="http://www.w3.org/2000/svg"
    width="88"
    height="24"
    viewBox="0 0 88 24"
  >
    <g fill="white" fill-rule="evenodd" stroke="none" stroke-width="1">
      <g fill="white" fill-rule="nonzero">
        <path
          d="M4.722 18.984c-1.911 0-3.437-.41-4.577-1.228L0 14.503h1.108c.257 1.028.699 1.863 1.325 2.506.627.642 1.39.963 2.289.963.594 0 1.084-.144 1.47-.433.385-.29.578-.69.578-1.205 0-.562-.197-.988-.59-1.277-.394-.289-1.056-.586-1.988-.891-1.446-.45-2.506-1.008-3.18-1.674C.337 11.825 0 10.906 0 9.733c0-1.317.458-2.349 1.373-3.096.916-.747 2.112-1.12 3.59-1.12 1.622 0 3.003.37 4.144 1.108v2.891H8.07c-.16-.851-.506-1.562-1.036-2.132-.53-.57-1.197-.855-2-.855-.514 0-.931.136-1.253.41-.32.272-.481.634-.481 1.084 0 .481.172.855.518 1.12.345.265.943.55 1.794.855 1.574.53 2.71 1.116 3.41 1.759.698.642 1.047 1.582 1.047 2.818 0 1.398-.477 2.482-1.433 3.253-.956.77-2.26 1.156-3.915 1.156zM17.78 5.517c1.702 0 3.007.482 3.915 1.446.907.963 1.36 2.24 1.36 3.83v.602h-7.684c-.017 1.414.325 2.542 1.023 3.385.7.843 1.603 1.265 2.71 1.265 1.51 0 2.707-.586 3.59-1.759l.458.29c-.337 1.365-.976 2.44-1.915 3.228-.94.787-2.148 1.18-3.626 1.18-1.83 0-3.333-.578-4.505-1.734-1.173-1.157-1.759-2.723-1.759-4.698 0-2.088.627-3.783 1.88-5.084 1.252-1.3 2.77-1.951 4.553-1.951zm-.29 1.012c-1.268 0-1.967 1.253-2.095 3.758h3.854v-.193c-.03-2.377-.616-3.565-1.758-3.565zm13.83.144c-.836 0-1.478.422-1.928 1.265-.45.843-.675 1.964-.675 3.361 0 1.526.261 2.77.783 3.734s1.241 1.446 2.157 1.446c.513 0 .971-.113 1.373-.338V9.155c0-.803-.149-1.418-.446-1.843-.297-.426-.719-.639-1.265-.639zm1.71 15.202V16.72c-.98 1.51-2.28 2.264-3.903 2.264-1.462 0-2.638-.542-3.53-1.626-.891-1.084-1.337-2.59-1.337-4.517 0-2.28.615-4.072 1.843-5.373 1.229-1.3 2.799-1.951 4.71-1.951 1.719 0 3.092.49 4.12 1.47l1.783-1.398h.891l-.12 2.891v13.492c0 .369.092.61.277.722.184.113.542.185 1.072.217v.94h-7.661v-.94l.238-.021c.637-.062 1.06-.143 1.267-.244.233-.112.35-.37.35-.77zM52.713 8.601v7.372c0 .45.048.759.144.927.097.169.321.261.675.277l.578.024v.94l-5.083.843h-.844l.073-2.337c-1.221 1.558-2.65 2.337-4.289 2.337-1.108 0-1.991-.341-2.65-1.024-.658-.682-.987-1.69-.987-3.023V9.034c0-.77-.314-1.236-.94-1.397l-.361-.12v-.868l5.083-1.108h.795l-.145 3.06v5.902c0 1.285.546 1.928 1.639 1.928.514 0 1.132-.161 1.855-.482V9.034c0-.77-.305-1.236-.916-1.397l-.361-.12v-.868l5.06-1.108h.794l-.12 3.06zm9.058 9.371c.69 0 1.18-.413 1.47-1.24.289-.827.433-2.052.433-3.674v-.259c-.028-4.18-.735-6.27-2.12-6.27-.69 0-1.18.413-1.47 1.24-.28.804-.425 1.983-.433 3.536v.139c0 4.352.707 6.528 2.12 6.528zm-.12 1.012c-2.008 0-3.63-.59-4.867-1.77-1.237-1.181-1.855-2.75-1.855-4.71 0-2.024.63-3.694 1.891-5.011 1.261-1.317 2.88-1.976 4.855-1.976 2.007 0 3.63.59 4.866 1.77 1.237 1.181 1.855 2.751 1.855 4.71 0 2.024-.63 3.695-1.89 5.012-1.262 1.317-2.88 1.975-4.855 1.975zM75.214 5.517v11.347c0 .37.093.61.277.723.185.112.542.185 1.072.217v.94h-7.13v-.94c.53-.032.887-.105 1.071-.217.185-.112.277-.353.277-.723V8.408l-1.325-.82v-.674l5.011-1.397h.747zm-2.168-1.06c-.723 0-1.297-.217-1.722-.65a2.184 2.184 0 01-.639-1.59c0-.627.213-1.153.639-1.579.425-.425 1-.638 1.722-.638.707 0 1.277.213 1.71.638.434.426.651.952.651 1.578 0 .627-.217 1.157-.65 1.59-.434.434-1.004.651-1.71.651zm10.215 5.686v6.36c0 .482.128.795.385.94.257.144.771.264 1.542.36v.94h-7.71v-.94c.531-.031.888-.104 1.073-.216.185-.112.277-.353.277-.723V8.408l-1.325-.82v-.674l5.035-1.397h.82l-.097 3.71c.498-1.397.988-2.365 1.47-2.903.481-.538 1.108-.807 1.879-.807.53 0 .931.137 1.204.41v3.348h-.578c-.931 0-1.702.053-2.313.157a3.839 3.839 0 00-1.662.71z"
        ></path>
      </g>
    </g>
  </svg>