<svg data-name="Layer 1" xmlns="http://www.w3.org/2000/svg" viewBox="0 0 278.5 63.78"><path d="M187 19.13h-21.55L171.67 0h-19.14l-20.72 63.78h39.83a21.26 21.26 0 0020.22-14.69l5.21-16A10.64 10.64 0 00187 19.13zm-8.9 13.41l-4.31 13.26a10.63 10.63 0 01-10.11 7.35h-9.28l7.6-23.39h14.08a2.12 2.12 0 012.02 2.78zM220.57 0l-4.15 12.76h19.14L239.7 0h-19.13zm-20.73 63.78h19.14l14.5-44.65h-19.13l-14.51 44.65zm62.34-34.02h12.87l3.45-10.63h-12.87L271.85 0h-19.14l-16.2 49.86a10.64 10.64 0 0010.12 13.92h21.24l3.46-10.63h-13.84a2.11 2.11 0 01-2-2.77zm-207.54-7.5L75.57 0H53.15L35.88 53.15H21.52a2.13 2.13 0 01-2-2.78L35.87 0H16.73L.53 49.88a10.62 10.62 0 0010.1 13.9h40.93l14.5-44.65zM125.44 0h-44L88 22.26l-9.39-3.12-14.56 44.64h19.14l6.91-21.26h20.69A21.26 21.26 0 00131 27.83l4.53-13.93A10.63 10.63 0 00125.44 0zm-8.88 13.4l-3.62 11.15a10.63 10.63 0 01-10.11 7.34h-9.28l6.91-21.26h14.09a2.11 2.11 0 012.01 2.77z" fill="#fff"/></svg>