<?xml version="1.0" encoding="utf-8"?>
<!-- Generator: Adobe Illustrator 24.1.0, SVG Export Plug-In . SVG Version: 6.00 Build 0)  -->
<svg version="1.1" id="fb0462f1-4822-46c6-85a1-002b71cfcb82"
	 xmlns="http://www.w3.org/2000/svg" xmlns:xlink="http://www.w3.org/1999/xlink" x="0px" y="0px" viewBox="0 0 464.3 387.1"
	 style="enable-background:new 0 0 464.3 387.1;" xml:space="preserve">
<style type="text/css">
	.st0{fill:#3F3D56;}
	.st1{fill:none;stroke:#3F3D56;stroke-width:2;stroke-miterlimit:10;}
	.st2{fill-rule:evenodd;clip-rule:evenodd;fill:#E31313;stroke:#E31313;stroke-width:2;stroke-linejoin:round;}
</style>
<rect x="20.1" y="135.4" class="st0" width="2.1" height="79.3"/>
<rect x="39.1" y="231.6" class="st0" width="137.6" height="2.1"/>
<rect x="83.1" y="366" class="st0" width="131.6" height="2.1"/>
<path class="st1" d="M231.6,350.1"/>
<path class="st1" d="M231.6,263.4"/>
<rect x="230.6" y="38.1" class="st0" width="2.1" height="142.8"/>
<path class="st0" d="M21.2,250.7c-9.9,0-18-8.1-18-18s8.1-18,18-18s18,8.1,18,18C39.1,242.6,31.1,250.7,21.2,250.7z M21.2,216.8
	c-8.8,0-15.9,7.1-15.9,15.9s7.1,15.9,15.9,15.9S37,241.4,37,232.7C37,223.9,29.9,216.8,21.2,216.8z"/>
<rect x="283.5" y="231.6" class="st0" width="140.7" height="2.1"/>
<rect x="248.6" y="366" class="st0" width="105.2" height="2.1"/>
<rect x="230.6" y="284.5" class="st0" width="2.1" height="65.6"/>
<path class="st0" d="M231.6,385c-9.9,0-18-8.1-18-18s8.1-18,18-18s18,8.1,18,18l0,0C249.6,376.9,241.6,385,231.6,385z M231.6,351.1
	c-8.8,0-15.9,7.1-15.9,15.9c0,8.8,7.1,15.9,15.9,15.9s15.9-7.1,15.9-15.9l0,0C247.5,358.3,240.4,351.2,231.6,351.1z"/>
<path class="st0" d="M62.4,344.8c-11.7,0-21.2,9.5-21.2,21.2s9.5,21.2,21.2,21.2s21.2-9.5,21.2-21.2
	C83.5,354.3,74.1,344.8,62.4,344.8z M62.4,351.1c3.5,0,6.3,2.8,6.3,6.3s-2.8,6.3-6.3,6.3c-3.5,0-6.3-2.8-6.3-6.3
	C56.1,354,58.9,351.2,62.4,351.1z M62.4,381.7c-5.1,0-9.8-2.6-12.7-6.8c0.1-4.2,8.5-6.6,12.7-6.6s12.6,2.3,12.7,6.6
	C72.2,379.1,67.5,381.7,62.4,381.7z"/>
<path class="st0" d="M21.2,93.1C9.5,93.1,0,102.5,0,114.2s9.5,21.2,21.2,21.2s21.2-9.5,21.2-21.2C42.3,102.6,32.8,93.1,21.2,93.1z
	 M21.2,99.4c3.5,0,6.3,2.8,6.3,6.3s-2.8,6.3-6.3,6.3s-6.3-2.8-6.3-6.3C14.8,102.3,17.7,99.4,21.2,99.4z M21.2,130
	c-5.1,0-9.8-2.6-12.7-6.8c0.1-4.2,8.5-6.6,12.7-6.6s12.6,2.3,12.7,6.6C31,127.4,26.2,129.9,21.2,130z"/>
<path class="st0" d="M376,0c-11.7,0-21.2,9.5-21.2,21.2s9.5,21.2,21.2,21.2s21.2-9.5,21.2-21.2C397.1,9.5,387.7,0,376,0z M376,6.3
	c3.5,0,6.3,2.8,6.3,6.3S379.5,19,376,19s-6.3-2.8-6.3-6.3C369.7,9.2,372.5,6.4,376,6.3z M376,36.9c-5.1,0-9.8-2.6-12.7-6.8
	c0.1-4.2,8.5-6.6,12.7-6.6s12.6,2.3,12.7,6.6C385.8,34.3,381.1,36.9,376,36.9z"/>
<path class="st0" d="M443.2,122.2c-11.7,0-21.2,9.5-21.2,21.2s9.5,21.2,21.2,21.2c11.7,0,21.2-9.5,21.2-21.2
	C464.3,131.7,454.8,122.3,443.2,122.2z M443.2,128.6c3.5,0,6.3,2.8,6.3,6.3c0,3.5-2.8,6.3-6.3,6.3c-3.5,0-6.3-2.8-6.3-6.3
	C436.8,131.4,439.7,128.6,443.2,128.6z M443.2,159.1c-5.1,0-9.8-2.6-12.7-6.8c0.1-4.2,8.5-6.6,12.7-6.6c4.2,0,12.6,2.3,12.7,6.6
	C453,156.6,448.3,159.1,443.2,159.1z"/>
<path class="st0" d="M374.9,344.8c-11.7,0-21.2,9.5-21.2,21.2s9.5,21.2,21.2,21.2s21.2-9.5,21.2-21.2
	C396.1,354.3,386.6,344.8,374.9,344.8z M374.9,351.1c3.5,0,6.3,2.8,6.3,6.3s-2.8,6.3-6.3,6.3c-3.5,0-6.3-2.8-6.3-6.3
	C368.6,354,371.4,351.2,374.9,351.1z M374.9,381.7c-5.1,0-9.8-2.6-12.7-6.8c0.1-4.2,8.5-6.6,12.7-6.6s12.6,2.3,12.7,6.6
	C384.8,379.1,380,381.7,374.9,381.7z"/>
<g transform="translate(97)">
	<path class="st2" d="M141.3,237.6h9.1h0.3l-13.4,23.2h-9.6l13.4-23.2H141.3z M141.2,232.5l-13.4-23.2h9.6l13.4,23.2H141.2z"/>
	<path class="st2" d="M157.3,235l-14.9-25.8h9.6l14.9,25.8l-14.9,25.8h-9.6L157.3,235z"/>
	<path class="st2" d="M137.4,235l-15,26l-15.2-26l15-26L137.4,235z"/>
</g>
<path class="st0" d="M442.1,250.7c-9.9,0-18-8.1-18-18s8.1-18,18-18s18,8.1,18,18l0,0C460.1,242.6,452,250.7,442.1,250.7z
	 M442.1,216.8c-8.8,0-15.9,7.1-15.9,15.9s7.1,15.9,15.9,15.9c8.8,0,15.9-7.1,15.9-15.9l0,0C458,223.9,450.9,216.8,442.1,216.8z"/>
<rect x="441" y="161.9" class="st0" width="2.1" height="53.8"/>
<path class="st0" d="M232.3,38.4c-9.9,0-18-8.1-18-18s8.1-18,18-18c9.9,0,18,8.1,18,18l0,0C250.3,30.3,242.2,38.4,232.3,38.4z
	 M232.3,4.5c-8.8,0-15.9,7.1-15.9,15.9s7.1,15.9,15.9,15.9c8.8,0,15.9-7.1,15.9-15.9l0,0C248.2,11.6,241.1,4.5,232.3,4.5z"/>
<rect x="250.3" y="20.4" class="st0" width="105.2" height="2.1"/>
<rect x="111.1" y="20.1" class="st0" width="105.2" height="2.1"/>
<path class="st0" d="M89.8,0.3c-11.7,0-21.2,9.5-21.2,21.2s9.5,21.2,21.2,21.2s21.2-9.5,21.2-21.2C110.9,9.8,101.4,0.3,89.8,0.3z
	 M89.8,6.6c3.5,0,6.3,2.8,6.3,6.3s-2.8,6.3-6.3,6.3s-6.3-2.8-6.3-6.3C83.4,9.5,86.3,6.7,89.8,6.6z M89.8,37.2
	c-5.1,0-9.8-2.6-12.7-6.8c0.1-4.2,8.5-6.6,12.7-6.6c4.2,0,12.6,2.3,12.7,6.6C99.6,34.6,94.9,37.2,89.8,37.2z"/>
</svg>
