<svg width="546" height="187" viewBox="0 0 546 187" fill="none" xmlns="http://www.w3.org/2000/svg">
<path d="M133.902 0.000488281C163.149 0.000488281 186.855 23.7143 186.855 52.953V133.906C186.855 163.154 163.14 186.859 133.902 186.859H52.9491C23.7017 186.859 -0.00314689 163.145 -0.00341797 133.906V52.953C-0.00319251 23.7057 23.7017 0.000576589 52.9491 0.000488281H133.902ZM154.099 32.7659C137.824 16.4909 111.717 16.0303 94.8857 31.3841C94.0698 32.1284 92.8081 32.1285 91.9921 31.3845C75.1525 16.0303 49.0454 16.4908 32.7702 32.7659C16.4953 49.041 16.0345 75.1476 31.3883 91.9791C32.1326 92.795 32.1328 94.0566 31.3887 94.8727C16.0347 111.712 16.4952 137.818 32.7702 154.094C49.0451 170.368 75.1513 170.829 91.9829 155.476C92.7989 154.731 94.0609 154.731 94.8769 155.476C111.708 170.829 137.815 170.368 154.09 154.094H154.099C170.373 137.81 170.834 111.704 155.481 94.8727C154.737 94.0567 154.737 92.7947 155.481 91.9787C170.834 75.1472 170.373 49.0409 154.099 32.7659ZM91.5531 49.6887C92.1379 48.0915 94.6954 48.0916 95.2803 49.6887C102.402 69.1173 117.729 84.4441 137.158 91.5661C138.754 92.1511 138.754 94.7073 137.158 95.2924C117.729 102.414 102.402 117.741 95.2803 137.17C94.6955 138.767 92.1379 138.767 91.5531 137.17C84.431 117.741 69.1051 102.414 49.6766 95.2924C48.0794 94.7076 48.0794 92.1509 49.6766 91.5661C69.1051 84.444 84.431 69.1172 91.5531 49.6887Z" fill="#181819"/>
<path d="M229.443 138.635V45.799H250.54V66.4482L248.838 63.3764C250.993 56.4365 254.368 51.6012 258.961 48.8707C263.555 46.1403 269.084 44.775 275.549 44.775H280.994V64.7417H272.997C266.646 64.7417 261.542 66.6758 257.685 70.5439C253.829 74.4121 251.901 79.8731 251.901 86.9268V138.635H229.443Z" fill="#181819"/>
<path d="M377.831 176.181C375.336 176.181 372.897 175.982 370.515 175.584C368.133 175.185 365.978 174.474 364.05 173.45V154.849C365.524 155.19 367.311 155.532 369.409 155.873C371.508 156.214 373.464 156.385 375.279 156.385C380.383 156.385 384.098 155.219 386.423 152.886C388.748 150.554 390.818 147.454 392.633 143.586L398.757 129.251L398.417 148.023L358.095 45.8004H382.084L410.327 121.23H401.82L429.892 45.8004H454.051L413.729 148.023C411.347 153.939 408.455 159.03 405.052 163.296C401.65 167.563 397.708 170.777 393.228 172.938C388.748 175.1 383.615 176.181 377.831 176.181Z" fill="#181819"/>
<path d="M496.043 140.682C487.082 140.682 478.888 138.577 471.458 134.368C464.029 130.158 458.103 124.413 453.679 117.131C449.256 109.85 447.044 101.545 447.044 92.2158C447.044 82.8867 449.256 74.5814 453.679 67.3002C458.103 60.0189 464.001 54.2735 471.373 50.064C478.746 45.8545 486.969 43.7498 496.043 43.7498C505.117 43.7498 513.51 45.8545 520.882 50.064C528.255 54.2735 534.125 59.9904 538.491 67.2148C542.858 74.4392 545.042 82.7729 545.042 92.2158C545.042 101.659 542.83 109.85 538.406 117.131C533.983 124.413 528.085 130.158 520.712 134.368C513.34 138.577 505.117 140.682 496.043 140.682ZM496.043 120.203C501.147 120.203 505.599 119.009 509.398 116.619C513.198 114.23 516.204 110.903 518.416 106.636C520.627 102.37 521.733 97.563 521.733 92.2158C521.733 86.8686 520.627 82.0903 518.416 77.8808C516.204 73.6713 513.198 70.3719 509.398 67.9828C505.599 65.5936 501.147 64.399 496.043 64.399C490.939 64.399 486.629 65.5936 482.772 67.9828C478.916 70.3719 475.882 73.6713 473.67 77.8808C471.458 82.0903 470.352 86.8686 470.352 92.2158C470.352 97.563 471.458 102.37 473.67 106.636C475.882 110.903 478.916 114.23 482.772 116.619C486.629 119.009 491.052 120.203 496.043 120.203Z" fill="#181819"/>
<path d="M355.817 59.6207C352.584 54.6148 348.076 50.7182 342.291 47.9308C336.507 45.1434 329.815 43.7498 322.215 43.7498C311.554 43.7498 300.24 46.7078 292.555 54.4726C287.026 60.0473 283.566 67.5277 283.198 75.3494H288.557C293.916 75.3494 304.748 75.3494 304.748 75.3494C306.421 70.3435 308.775 66.1625 313.879 64.0008C317.905 62.2943 322.527 62.3227 326.724 63.5173C332.877 65.2523 338.208 70.0591 338.208 76.8568V79.8717L310.816 84.3657C303.557 85.5034 297.546 87.4375 292.782 90.1679C288.018 92.8984 284.474 96.2831 282.149 100.322C279.823 104.361 278.661 108.94 278.661 114.06C278.661 119.179 279.965 124.1 282.574 128.139C285.183 132.178 288.897 135.278 293.718 137.439C298.538 139.601 304.181 140.682 310.646 140.682C315.75 140.682 320.372 139.999 324.512 138.634C328.652 137.269 332.395 135.221 335.741 132.49C337.102 131.381 338.378 130.158 339.569 128.85V138.634H360.666V76.8568C360.666 70.3719 359.05 64.6266 355.817 59.6207ZM335.316 112.353C333.388 115.88 330.637 118.639 327.064 120.63C323.491 122.621 319.38 123.616 314.729 123.616C311.1 123.616 308.066 122.678 305.627 120.801C303.189 118.923 301.969 116.392 301.969 113.206C301.969 110.021 303.047 107.262 305.202 105.271C307.357 103.28 310.646 101.886 315.07 101.09L338.208 96.9657V100.919C338.208 105.015 337.244 108.826 335.316 112.353Z" fill="#181819"/>
</svg>
