<?xml version="1.0" encoding="utf-8"?>
<!-- Generator: Adobe Illustrator 24.1.0, SVG Export Plug-In . SVG Version: 6.00 Build 0)  -->
<svg version="1.1" id="_x37_148f5f1-8839-4464-a941-0c8a08d3460a"
	 xmlns="http://www.w3.org/2000/svg" xmlns:xlink="http://www.w3.org/1999/xlink" x="0px" y="0px" viewBox="0 0 678.3 733"
	 style="enable-background:new 0 0 678.3 733;" xml:space="preserve">
<style type="text/css">
	.st0{fill:url(#SVGID_1_);}
	.st1{fill:#F5F5F5;}
	.st2{fill:url(#SVGID_2_);}
	.st3{fill:url(#SVGID_3_);}
	.st4{fill:#E5E5E5;}
	.st5{fill:url(#SVGID_4_);}
	.st6{fill:#FFFFFF;}
	.st7{fill:url(#SVGID_5_);}
	.st8{fill:#FAFAFA;}
	.st9{fill:url(#SVGID_6_);}
	.st10{fill:url(#SVGID_7_);}
	.st11{fill:url(#SVGID_8_);}
	.st12{fill:url(#SVGID_9_);}
	.st13{fill:#E31337;}
	.st14{opacity:0.7;fill:#E31337;enable-background:new    ;}
	.st15{opacity:0.5;fill:#E31337;enable-background:new    ;}
	.st16{opacity:0.3;fill:#E31337;enable-background:new    ;}
	.st17{opacity:0.2;enable-background:new    ;}
	.st18{fill:url(#SVGID_10_);}
	.st19{opacity:0.2;fill:#FFFFFF;enable-background:new    ;}
	.st20{fill:url(#SVGID_11_);}
	.st21{fill:url(#SVGID_12_);}
</style>
<linearGradient id="SVGID_1_" gradientUnits="userSpaceOnUse" x1="585.5" y1="791" x2="585.5" y2="731.6" gradientTransform="matrix(1 0 0 1 0 -58)">
	<stop  offset="0" style="stop-color:#808080;stop-opacity:0.25"/>
	<stop  offset="0.54" style="stop-color:#808080;stop-opacity:0.12"/>
	<stop  offset="1" style="stop-color:#808080;stop-opacity:0.1"/>
</linearGradient>
<rect x="560.4" y="673.6" class="st0" width="50.2" height="59.4"/>
<rect x="561.5" y="673.6" class="st1" width="47.9" height="57.2"/>
<linearGradient id="SVGID_2_" gradientUnits="userSpaceOnUse" x1="94" y1="791" x2="94" y2="731.6" gradientTransform="matrix(1 0 0 1 0 -58)">
	<stop  offset="0" style="stop-color:#808080;stop-opacity:0.25"/>
	<stop  offset="0.54" style="stop-color:#808080;stop-opacity:0.12"/>
	<stop  offset="1" style="stop-color:#808080;stop-opacity:0.1"/>
</linearGradient>
<rect x="68.9" y="673.6" class="st2" width="50.2" height="59.4"/>
<rect x="70.1" y="673.6" class="st1" width="47.9" height="57.2"/>
<linearGradient id="SVGID_3_" gradientUnits="userSpaceOnUse" x1="339.2" y1="739.9" x2="339.2" y2="58" gradientTransform="matrix(1 0 0 1 0 -58)">
	<stop  offset="0" style="stop-color:#808080;stop-opacity:0.25"/>
	<stop  offset="0.54" style="stop-color:#808080;stop-opacity:0.12"/>
	<stop  offset="1" style="stop-color:#808080;stop-opacity:0.1"/>
</linearGradient>
<path class="st3" d="M14.9,0h648.6c8.2,0,14.9,6.7,14.9,14.9V667c0,8.2-6.7,14.9-14.9,14.9H14.9C6.7,681.9,0,675.2,0,667V14.9
	C0,6.7,6.7,0,14.9,0z"/>
<path class="st4" d="M19.5,3.5h640.4c8.2,0,14.9,6.7,14.9,14.9v640.4c0,8.2-6.7,14.9-14.9,14.9H19.5c-8.2,0-14.9-6.7-14.9-14.9V18.4
	C4.7,10.2,11.3,3.5,19.5,3.5z"/>
<linearGradient id="SVGID_4_" gradientUnits="userSpaceOnUse" x1="339.2" y1="627.2" x2="339.2" y2="169.5" gradientTransform="matrix(1 0 0 1 0 -58)">
	<stop  offset="0" style="stop-color:#808080;stop-opacity:0.25"/>
	<stop  offset="0.54" style="stop-color:#808080;stop-opacity:0.12"/>
	<stop  offset="1" style="stop-color:#808080;stop-opacity:0.1"/>
</linearGradient>
<rect x="112.7" y="111.5" class="st5" width="453" height="457.7"/>
<rect x="116.2" y="116.2" class="st6" width="446" height="446"/>
<linearGradient id="SVGID_5_" gradientUnits="userSpaceOnUse" x1="339.1" y1="481.2" x2="339.1" y2="313" gradientTransform="matrix(1 0 0 1 0 -58)">
	<stop  offset="0" style="stop-color:#808080;stop-opacity:0.25"/>
	<stop  offset="0.54" style="stop-color:#808080;stop-opacity:0.12"/>
	<stop  offset="1" style="stop-color:#808080;stop-opacity:0.1"/>
</linearGradient>
<circle class="st7" cx="339.1" cy="339.1" r="84.1"/>
<circle class="st8" cx="339.1" cy="339.1" r="80.6"/>
<linearGradient id="SVGID_6_" gradientUnits="userSpaceOnUse" x1="290.15" y1="583.35" x2="290.15" y2="557.65" gradientTransform="matrix(1 0 0 1 0 -58)">
	<stop  offset="0" style="stop-color:#808080;stop-opacity:0.25"/>
	<stop  offset="0.54" style="stop-color:#808080;stop-opacity:0.12"/>
	<stop  offset="1" style="stop-color:#808080;stop-opacity:0.1"/>
</linearGradient>
<rect x="277.9" y="499.7" class="st9" width="24.5" height="25.7"/>
<linearGradient id="SVGID_7_" gradientUnits="userSpaceOnUse" x1="322.75" y1="583.35" x2="322.75" y2="557.65" gradientTransform="matrix(1 0 0 1 0 -58)">
	<stop  offset="0" style="stop-color:#808080;stop-opacity:0.25"/>
	<stop  offset="0.54" style="stop-color:#808080;stop-opacity:0.12"/>
	<stop  offset="1" style="stop-color:#808080;stop-opacity:0.1"/>
</linearGradient>
<rect x="310.5" y="499.7" class="st10" width="24.5" height="25.7"/>
<linearGradient id="SVGID_8_" gradientUnits="userSpaceOnUse" x1="355.45" y1="583.35" x2="355.45" y2="557.65" gradientTransform="matrix(1 0 0 1 0 -58)">
	<stop  offset="0" style="stop-color:#808080;stop-opacity:0.25"/>
	<stop  offset="0.54" style="stop-color:#808080;stop-opacity:0.12"/>
	<stop  offset="1" style="stop-color:#808080;stop-opacity:0.1"/>
</linearGradient>
<rect x="343.2" y="499.7" class="st11" width="24.5" height="25.7"/>
<linearGradient id="SVGID_9_" gradientUnits="userSpaceOnUse" x1="388.15" y1="583.35" x2="388.15" y2="557.65" gradientTransform="matrix(1 0 0 1 0 -58)">
	<stop  offset="0" style="stop-color:#808080;stop-opacity:0.25"/>
	<stop  offset="0.54" style="stop-color:#808080;stop-opacity:0.12"/>
	<stop  offset="1" style="stop-color:#808080;stop-opacity:0.1"/>
</linearGradient>
<rect x="375.9" y="499.7" class="st12" width="24.5" height="25.7"/>
<rect x="278.4" y="500.8" class="st13" width="23.4" height="23.4"/>
<rect x="311.1" y="500.8" class="st14" width="23.4" height="23.4"/>
<rect x="343.8" y="500.8" class="st15" width="23.4" height="23.4"/>
<rect x="376.5" y="500.8" class="st16" width="23.4" height="23.4"/>
<rect x="361.9" y="293.6" transform="matrix(0.5736 -0.8192 0.8192 0.5736 -84.6467 429.3698)" class="st13" width="16.3" height="4.7"/>
<rect x="380" y="361.9" transform="matrix(0.5736 -0.8192 0.8192 0.5736 -140.0847 470.9887)" class="st13" width="4.7" height="16.3"/>
<rect x="300.1" y="380" transform="matrix(0.5736 -0.8192 0.8192 0.5736 -181.7913 415.532)" class="st13" width="16.3" height="4.7"/>
<rect x="293.6" y="300" transform="matrix(0.5736 -0.8192 0.8192 0.5736 -126.254 373.8393)" class="st13" width="4.7" height="16.3"/>
<rect x="361.9" y="293.5" transform="matrix(0.5736 -0.8192 0.8192 0.5736 -84.5177 429.3158)" class="st17" width="16.3" height="4.7"/>
<rect x="380" y="361.7" transform="matrix(0.5736 -0.8192 0.8192 0.5736 -139.9603 470.9363)" class="st17" width="4.7" height="16.3"/>
<rect x="300.1" y="379.9" transform="matrix(0.5736 -0.8192 0.8192 0.5736 -181.6655 415.487)" class="st17" width="16.3" height="4.7"/>
<rect x="293.6" y="299.9" transform="matrix(0.5736 -0.8192 0.8192 0.5736 -126.1275 373.7887)" class="st17" width="4.7" height="16.3"/>
<linearGradient id="SVGID_10_" gradientUnits="userSpaceOnUse" x1="339.1" y1="447.9" x2="339.1" y2="346.3" gradientTransform="matrix(1 0 0 1 0 -58)">
	<stop  offset="0" style="stop-color:#808080;stop-opacity:0.25"/>
	<stop  offset="0.54" style="stop-color:#808080;stop-opacity:0.12"/>
	<stop  offset="1" style="stop-color:#808080;stop-opacity:0.1"/>
</linearGradient>
<circle class="st18" cx="339.1" cy="339.1" r="50.8"/>
<circle class="st13" cx="339.1" cy="339.1" r="47.9"/>
<path class="st19" d="M300,345.6c0-26.4,21.4-47.9,47.8-47.9c8.4,0,16.6,2.2,23.9,6.3c-19-18.3-49.3-17.7-67.7,1.3
	c-18.3,19-17.7,49.3,1.3,67.7c2.8,2.7,6,5.1,9.4,7C305.3,371,300,358.6,300,345.6z"/>
<linearGradient id="SVGID_11_" gradientUnits="userSpaceOnUse" x1="377.6" y1="438.5" x2="377.6" y2="341.6" gradientTransform="matrix(1 0 0 1 -260.85 -142)">
	<stop  offset="0" style="stop-color:#808080;stop-opacity:0.25"/>
	<stop  offset="0.54" style="stop-color:#808080;stop-opacity:0.12"/>
	<stop  offset="1" style="stop-color:#808080;stop-opacity:0.1"/>
</linearGradient>
<path class="st20" d="M135.4,296.5H98.1v-93.3c0-2,1.6-3.6,3.6-3.6h30.1c2,0,3.6,1.6,3.6,3.6l0,0L135.4,296.5z"/>
<linearGradient id="SVGID_12_" gradientUnits="userSpaceOnUse" x1="377.65" y1="621.8" x2="377.65" y2="524.9" gradientTransform="matrix(1 0 0 1 -260.85 -142)">
	<stop  offset="0" style="stop-color:#808080;stop-opacity:0.25"/>
	<stop  offset="0.54" style="stop-color:#808080;stop-opacity:0.12"/>
	<stop  offset="1" style="stop-color:#808080;stop-opacity:0.1"/>
</linearGradient>
<path class="st21" d="M131.6,479.8h-29.7c-2.1,0-3.8-1.7-3.8-3.8v-93.1h37.4V476C135.4,478.1,133.7,479.8,131.6,479.8L131.6,479.8z"
	/>
<path class="st8" d="M102.4,200.8h28.7c1.8,0,3.2,1.4,3.2,3.2v90.2l0,0h-35l0,0V204C99.2,202.2,100.6,200.8,102.4,200.8L102.4,200.8
	z"/>
<path class="st8" d="M99.2,384.1h35l0,0v92.3c0,0.6-0.5,1.1-1.1,1.1h-32.9c-0.6,0-1.1-0.5-1.1-1.1L99.2,384.1L99.2,384.1z"/>
</svg>
