<svg xmlns="http://www.w3.org/2000/svg" viewBox="0 0 525.88 96.24"><defs><style>.cls-1{fill:#6e45b7;}.cls-2{fill:#00dcd2;}</style></defs><title>资源 5</title><g id="图层_2" data-name="图层 2"><g id="图层_1-2" data-name="图层 1"><path class="cls-1" d="M106.83,37.3a76.63,76.63,0,0,1-1.35,13.25Q96.69,96.24,53,96.24H34.59l0-.22L39.1,75H51.82q23.66,0,28.65-26.9c.24-1.15.43-2.31.58-3.48L106.35,30A52.69,52.69,0,0,1,106.83,37.3Z"/><path class="cls-1" d="M97.57,10.88,74.88,24Q70.14,20.82,62,20.81H25.35l.11-.52L29.79,0h38A52.94,52.94,0,0,1,82.16,1.82a33.78,33.78,0,0,1,14.4,8C96.91,10.2,97.24,10.53,97.57,10.88Z"/><polygon class="cls-2" points="61.4 38.88 58.04 59.87 42.32 59.87 42.32 59.87 34.64 96.02 34.59 96.24 0 96.24 12.99 78.72 21.51 38.88 61.4 38.88"/><path class="cls-1" d="M161.71,23.93c15.27,0,25.52,12.35,22.82,27.62a33.26,33.26,0,0,1-9.72,17.88c-.57.55-1.22,1.1-1.87,1.66A32.44,32.44,0,0,1,152,79.24H124.35l9.76-55.38Zm-25.82,45.5h17.8c9.81,0,19.21-8,20.94-17.8S169.78,33.82,160,33.82h-17.8Z"/><path class="cls-1" d="M183.68,79.24l9.77-55.38h9.89l-9.77,55.38Z"/><path class="cls-1" d="M212.3,51.55c-1.73,9.81,4.85,17.8,14.66,17.8h17.81l1.87-10.6H228.83l1.75-9.89h27.69l-5.36,30.38H225.22c-15.27,0-25.5-12.42-22.81-27.69S219.72,23.86,235,23.86h27.69l-1.75,9.89H233.24C223.43,33.75,214,41.74,212.3,51.55Z"/><path class="cls-1" d="M256.87,79.24l9.76-55.38h9.89l-9.76,55.38Z"/><path class="cls-2" d="M335.94,23.86l-1.75,9.89H293.76a6.35,6.35,0,0,0-5.95,5.06L286.9,44h35.6l-1.74,9.89H285.08l-4.48,25.4h-9.81l7.13-40.43c1.45-8.23,9.28-15,17.51-15Z"/><path class="cls-2" d="M330.05,79.24l9.76-55.38h9.89l-9.76,55.38Z"/><path class="cls-2" d="M409,23.93l-9.76,55.39-8.55-7.6L360,44.27l-6.18,35h-9.89l9.74-55.23,8.55,7.6,30.76,27.45,6.22-35.28Z"/><path class="cls-2" d="M420.25,38.81,419.34,44h35.6l-1.74,9.89H417.6l-1.85,10.44a4.17,4.17,0,0,0,4.18,5.07h40.42l-1.74,9.89H418.18c-8.23,0-13.69-6.73-12.24-15l4.5-25.47c1.45-8.23,9.28-15,17.51-15h40.43l-1.75,9.89H426.2A6.33,6.33,0,0,0,420.25,38.81Z"/><path class="cls-2" d="M460.57,79.32h.16l-.18.15Zm65.31-55.39L499.54,51.7,516,79.32h-12.5L491.87,59.77,473.31,79.32h-12.5L487,51.7,470.42,23.93h12.5l11.72,19.7,18.66-19.7h12.58Zm-10,55.54,0-.15H516Z"/></g></g></svg>