<?xml version="1.0" encoding="utf-8"?>
<svg viewBox="152.389 97.2 150.741 42.833" xmlns="http://www.w3.org/2000/svg">
  <rect x="12.075" y="2.088" width="10.189" height="10.189" rx="0.054" ry="0.054" transform="matrix(0.7071070075035095, -0.7071070075035095, 0.7071070075035095, 0.7071070075035095, 158.13864135742188, 115.66337585449219)" fill="#2085f0"/>
  <rect x="12.069" y="22.118" width="10.189" height="10.189" rx="0.047" ry="0.047" transform="matrix(0.7071070075035095, -0.7071070075035095, 0.7071070075035095, 0.7071070075035095, 143.97323608398438, 121.52507781982422)" fill="#2085f0"/>
  <path d="M 165.298 111.475 L 158.204 118.591 C 158.183 118.611 158.183 118.645 158.204 118.666 L 165.298 125.752 C 165.319 125.773 165.352 125.773 165.373 125.752 L 172.467 118.652 C 172.489 118.631 172.489 118.597 172.467 118.576 L 165.373 111.474 C 165.352 111.453 165.319 111.453 165.298 111.474 L 165.298 111.475 Z M 160.668 118.591 L 165.298 113.941 C 165.319 113.92 165.352 113.92 165.373 113.941 L 170.003 118.575 C 170.025 118.596 170.025 118.63 170.003 118.651 L 165.373 123.286 C 165.352 123.307 165.319 123.307 165.298 123.286 L 160.668 118.666 C 160.647 118.645 160.647 118.611 160.668 118.59 L 160.668 118.591 Z M 185.334 111.476 L 178.234 118.591 C 178.214 118.61 178.214 118.643 178.234 118.663 L 185.334 125.749 C 185.354 125.769 185.386 125.769 185.406 125.749 L 192.506 118.649 C 192.527 118.629 192.527 118.596 192.506 118.577 L 185.406 111.477 C 185.386 111.456 185.354 111.456 185.334 111.477 L 185.334 111.476 Z M 180.699 118.591 L 185.334 113.941 C 185.354 113.921 185.386 113.921 185.406 113.941 L 190.041 118.577 C 190.061 118.597 190.061 118.629 190.041 118.649 L 185.406 123.284 C 185.386 123.304 185.354 123.304 185.334 123.284 L 180.699 118.664 C 180.679 118.644 180.679 118.611 180.699 118.592 L 180.699 118.591 Z" fill="#91cdff"/>
  <path d="M 261.823 113.725 L 261.748 114.01 C 261.135 116.76 260.423 119.488 259.613 122.187 C 258.871 124.744 257.988 127.259 256.968 129.719 C 256.646 130.53 256.259 131.315 255.811 132.064 C 255.445 132.662 254.995 133.204 254.473 133.673 C 253.966 134.095 253.378 134.406 252.744 134.589 C 252.001 134.799 251.232 134.9 250.46 134.889 C 249.998 134.893 249.537 134.833 249.092 134.709 L 248.596 134.559 L 248.326 134.559 L 248.701 132.861 L 248.971 132.966 C 249.061 132.996 249.181 133.041 249.361 133.086 C 250.244 133.311 251.169 133.311 252.052 133.086 C 252.503 132.964 252.924 132.749 253.286 132.455 C 253.668 132.131 253.997 131.751 254.262 131.327 C 254.574 130.794 254.841 130.236 255.059 129.659 L 255.089 129.599 L 255.044 129.509 C 254.397 128.271 253.781 127.018 253.195 125.751 C 252.584 124.437 252.018 123.103 251.496 121.752 C 251.031 120.595 250.565 119.272 250.038 117.693 C 249.645 116.482 249.289 115.259 248.971 114.026 L 248.896 113.726 L 250.94 113.726 L 250.985 113.906 C 251.225 114.897 251.481 115.859 251.782 116.836 C 252.052 117.678 252.474 118.956 252.939 120.264 C 253.383 121.487 253.854 122.7 254.353 123.902 C 254.758 124.894 255.269 125.976 255.84 127.193 L 256.066 127.614 L 256.216 127.164 C 256.606 126.021 256.953 124.999 257.253 124.067 C 257.644 122.729 257.944 121.707 258.2 120.76 L 258.546 119.437 C 258.711 118.791 258.876 118.099 259.056 117.407 L 259.176 116.851 C 259.432 115.769 259.642 114.837 259.838 113.921 L 259.868 113.725 L 261.823 113.725 Z M 298.154 128.531 L 297.944 128.621 C 297.494 128.824 297.026 128.985 296.546 129.101 C 295.722 129.347 294.866 129.469 294.006 129.463 C 293.089 129.491 292.175 129.363 291.3 129.087 C 290.633 128.873 290.036 128.483 289.572 127.959 C 289.107 127.4 288.792 126.733 288.655 126.02 C 288.452 125.112 288.356 124.184 288.369 123.254 L 288.369 108.674 L 290.413 108.358 L 290.413 123.435 C 290.392 124.186 290.483 124.936 290.683 125.66 C 290.82 126.174 291.078 126.648 291.435 127.042 C 291.774 127.343 292.182 127.555 292.623 127.659 C 293.124 127.752 293.632 127.802 294.141 127.809 C 294.909 127.834 295.676 127.732 296.411 127.509 C 296.802 127.373 297.103 127.253 297.313 127.163 L 297.629 127.027 L 297.749 127.297 L 298.154 128.531 Z" fill="#f7f8f9"/>
  <path fill="#f7f8f9" d="M 291.904 113.66 L 296.846 113.66 L 296.846 115.278 L 291.904 115.278 L 291.904 113.66 Z M 205.704 127.138 L 205.704 119.223 L 216.711 119.223 L 216.711 117.299 L 205.704 117.299 L 205.704 109.952 L 217.741 109.952 L 217.741 107.972 L 203.478 107.972 L 203.478 129.118 L 218.105 129.118 L 218.105 127.138 L 205.704 127.138 L 205.704 127.138 Z M 278.79 119.903 C 278.01 118.945 276.919 118.29 275.707 118.053 C 276.637 117.701 277.45 117.093 278.051 116.301 C 278.637 115.495 278.945 114.521 278.928 113.525 C 278.938 112.583 278.69 111.656 278.211 110.845 C 277.734 110.046 277.043 109.396 276.216 108.969 C 275.606 108.642 274.946 108.419 274.262 108.309 C 273.251 108.157 272.229 108.09 271.207 108.109 L 263.805 108.109 L 263.805 129.202 L 269.998 129.202 C 272 129.202 273.476 129.166 274.388 129.096 C 275.08 129.064 275.765 128.941 276.424 128.729 C 277.479 128.354 278.388 127.655 279.021 126.731 C 280.347 124.622 280.256 121.918 278.791 119.903 L 278.79 119.903 Z M 275.423 116.576 C 274.535 117.15 272.929 117.44 270.649 117.44 L 265.922 117.44 L 265.922 109.909 L 270.845 109.909 C 273.065 109.909 274.624 110.196 275.475 110.76 C 277.197 112.326 277.172 115.042 275.422 116.577 L 275.423 116.576 Z M 277.764 123.415 C 277.883 124.591 277.403 125.748 276.487 126.495 C 275.637 127.097 274.089 127.402 271.889 127.402 L 265.922 127.402 L 265.922 119.142 L 272.055 119.142 C 273.557 119.04 275.053 119.417 276.328 120.218 C 277.305 120.981 277.842 122.177 277.764 123.415 L 277.764 123.415 Z M 230.836 126.882 C 230.045 127.725 229.096 128.405 228.043 128.882 C 227.022 129.327 225.919 129.552 224.805 129.544 C 223.388 129.618 221.991 129.18 220.87 128.309 C 218.409 126.245 219.034 122.302 222.013 121.101 C 223.581 120.563 225.221 120.265 226.877 120.219 C 227.317 120.189 227.649 120.165 227.874 120.145 C 228.007 120.115 228.186 120.082 228.411 120.042 C 229.966 119.738 230.743 119.096 230.744 118.116 C 230.84 117.148 230.493 116.188 229.8 115.505 C 228.883 114.898 227.788 114.621 226.693 114.718 C 225.508 114.641 224.33 114.948 223.333 115.593 C 222.534 116.217 222.07 117.175 222.074 118.189 L 220.218 118.174 C 220.204 116.728 220.868 115.359 222.013 114.475 C 223.374 113.504 225.024 113.023 226.693 113.113 C 228.27 113.004 229.838 113.429 231.143 114.321 C 232.185 115.187 232.75 116.499 232.663 117.851 L 232.663 126.381 C 232.606 126.8 232.692 127.225 232.908 127.589 C 233.176 127.776 233.503 127.859 233.828 127.823 C 234.058 127.824 234.289 127.814 234.518 127.794 L 234.518 129.147 C 234.285 129.196 234.05 129.232 233.813 129.257 C 233.599 129.28 233.384 129.292 233.169 129.294 C 232.538 129.342 231.912 129.148 231.419 128.75 C 231.004 128.318 230.792 127.73 230.837 127.133 L 230.836 126.882 Z M 230.713 120.955 C 230.087 121.159 229.441 121.302 228.787 121.381 C 228.004 121.489 226.744 121.587 225.005 121.675 C 224.003 121.878 223.066 122.322 222.274 122.969 C 221.685 123.472 221.348 124.21 221.353 124.985 C 221.323 125.813 221.691 126.605 222.343 127.117 C 223.122 127.684 224.074 127.965 225.036 127.912 C 226.524 127.99 227.99 127.533 229.171 126.625 C 230.203 125.759 230.773 124.462 230.713 123.117 L 230.713 120.955 Z M 235.476 124.279 L 237.363 124.279 C 237.386 125.299 237.854 126.258 238.644 126.904 C 239.52 127.6 240.618 127.958 241.736 127.912 C 242.86 127.972 243.977 127.704 244.951 127.14 C 245.69 126.703 246.138 125.903 246.125 125.044 C 246.125 123.778 244.677 122.812 241.782 122.146 C 241.757 122.139 241.731 122.134 241.705 122.131 C 240.039 121.86 238.444 121.254 237.018 120.351 C 236.217 119.687 235.776 118.684 235.828 117.645 C 235.796 116.368 236.375 115.152 237.386 114.372 C 238.55 113.491 239.986 113.046 241.444 113.113 C 243.011 113.03 244.558 113.496 245.818 114.431 C 246.915 115.334 247.569 116.666 247.613 118.086 L 245.695 118.086 C 245.66 117.118 245.206 116.214 244.452 115.607 C 243.571 114.972 242.499 114.658 241.414 114.717 C 240.468 114.668 239.532 114.926 238.744 115.453 C 238.106 115.891 237.731 116.62 237.746 117.394 C 237.746 118.786 239.229 119.816 242.196 120.483 C 242.585 120.571 242.876 120.635 243.071 120.675 C 244.476 120.912 245.806 121.476 246.953 122.322 C 247.704 123.039 248.103 124.05 248.043 125.087 C 248.057 126.385 247.414 127.603 246.333 128.323 C 245.004 129.211 243.426 129.649 241.829 129.573 C 240.186 129.655 238.568 129.143 237.271 128.132 C 236.129 127.179 235.471 125.766 235.476 124.279 L 235.476 124.279 Z M 282.913 113.679 L 284.837 113.679 L 284.837 129.207 L 282.913 129.207 L 282.913 113.679 Z"/>
  <path d="M 282.913 113.679 L 282.913 129.207 L 284.836 129.207 L 284.836 113.679 L 282.913 113.679 Z" fill="#f7f8f9"/>
  <circle cx="283.874" cy="109.41" r="1.421" fill="#f7f8f9"/>
</svg>