<?xml version="1.0" encoding="UTF-8"?>
<svg width="1094px" height="317px" viewBox="0 0 1094 317" version="1.1" xmlns="http://www.w3.org/2000/svg" xmlns:xlink="http://www.w3.org/1999/xlink">
    <title>gate-io</title>
    <g id="Page-1" stroke="none" stroke-width="1" fill="none" fill-rule="evenodd">
        <g id="gate-io" fill="#DE5959" fill-rule="nonzero">
            <path d="M124.197732,156.001876 L121.452305,153.238572 C119.373705,151.16298 115.802952,152.632931 115.802952,155.57623 L115.802952,195.040763 C115.802952,196.863344 117.298502,198.346313 119.125768,198.346313 L158.603307,198.346313 C161.546858,198.346313 163.028256,194.781527 160.935505,192.708765 C159.644871,191.418242 159.644871,189.328501 160.935505,188.040808 L202.924119,145.92674 C204.217583,144.643575 204.217583,142.554399 202.924119,141.258216 L199.098636,137.447211 C197.020036,135.371054 198.501435,131.805701 201.436494,131.805701 L240.890259,131.805701 C242.714694,131.805701 244.207414,133.286972 244.207414,135.111251 L244.207414,174.572389 C244.207414,177.515687 240.629868,178.989034 238.54674,176.910047 L235.887355,174.252022 C234.588231,172.925274 232.498876,172.925274 231.227489,174.252022 L160.435101,245.004381 C159.150128,246.292074 157.063604,246.292074 155.761649,245.004381 L69.1522069,158.401796 C67.850252,157.099952 67.850252,155.007381 69.1522069,153.714027 L189.049242,33.8323629 C190.337045,32.5418399 190.337045,30.4362497 189.049242,29.1513868 L160.856255,0.963647126 C159.565622,-0.321215709 157.475701,-0.321215709 156.179407,0.963647126 L0.963729723,156.171681 C-0.321243241,157.462204 -0.321243241,159.567795 0.963729723,160.852657 L156.163557,316.038051 C157.454191,317.32065 159.561093,317.32065 160.846066,316.038051 L316.037968,160.852657 C317.320677,159.562134 317.320677,157.467865 316.037968,156.18187 L224.732431,64.883026 C223.455383,63.5981632 221.354707,63.5981632 220.061243,64.883026 L128.896091,156.003008 C127.594136,157.304851 125.499687,157.304851 124.197732,156.003008 L124.197732,156.001876 Z" id="Path"></path>
            <g id="Group" transform="translate(377.000000, 31.000000)">
                <path d="M506.73,165.625 C502.53,165.625 498.907,167.129 495.87,170.155 C492.872,173.183 491.34,176.758 491.34,180.898 C491.34,187.208 494.542,192.118 500.9,195.625 C507.873,197.529 513.478,196.289 517.697,191.973 C520.754,188.926 522.247,185.273 522.247,181.016 C522.247,176.719 520.754,173.126 517.697,170.156 C514.67,167.159 511.037,165.666 506.72,165.666 L506.72,165.626 L506.73,165.626 L506.73,165.625 Z M259.2,48.535 L247.72,48.535 C242.76,48.535 238.72,52.529 238.72,57.5 L238.72,63.906 C226.52,51.201 212.68,44.843 197.222,44.843 C179.39,44.843 164.502,51.483 152.622,64.726 C140.718,77.968 134.8,94.531 134.8,114.394 C134.8,134.599 140.728,151.504 152.598,165.019 C164.6,178.269 179.732,184.881 198.062,184.881 C212.559,184.881 226.119,178.963 238.732,167.156 L238.732,179.822 C238.732,185.974 243.732,190.974 249.869,190.974 L269.469,190.974 L269.469,58.8 C269.467,53.145 264.867,48.535 259.199,48.535 L259.2,48.535 Z M230.18,145.811 C223.18,153.615 214.038,157.511 202.68,157.511 C192.06,157.511 183.252,153.497 176.28,145.411 C169.478,137.451 166.08,127.081 166.08,114.376 C166.08,102.501 169.58,92.501 176.55,84.436 C183.62,76.446 192.423,72.482 202.95,72.482 C214.112,72.482 223.17,76.428 230.152,84.358 C237.149,92.424 240.65,102.658 240.65,115.081 C240.65,127.511 237.15,137.756 230.152,145.831 L230.182,145.831 L230.182,145.811 L230.18,145.811 Z M134.78,70.909 L134.78,57.813 C134.78,52.676 130.64,48.555 125.522,48.555 L113.418,48.555 C108.32,48.555 104.17,52.657 104.17,57.793 L104.17,63.496 C93.1,51.074 79.22,44.844 62.53,44.844 C43.48,44.844 28.13,52.041 16.528,66.348 C5.728,79.844 0.332,96.27 0.332,115.606 C0.332,135.46 6.147,152.042 17.769,165.274 C29.291,178.37 44.072,184.864 62.129,184.864 C77.987,184.864 92.011,178.674 104.169,166.241 L104.169,184.747 C104.169,212.247 92.969,225.997 70.569,225.997 C58.407,225.997 49.169,221.857 42.821,213.595 C41.201,211.505 39.857,208.907 38.788,205.773 C37.288,201.388 33.118,198.478 28.508,198.478 L16.908,198.478 C11.058,198.478 6.708,204.044 8.186,209.708 C11.36,221.778 17.488,231.583 26.609,239.161 C38.041,248.691 52.611,253.458 70.287,253.458 C91.239,253.458 107.709,246.563 119.691,232.794 C126.039,225.626 130.287,217.052 132.469,207.071 C133.197,203.477 133.769,199.249 134.169,194.473 C134.569,189.727 134.769,184.219 134.769,177.95 L134.769,158.69 C126.199,146.347 121.889,131.59 121.889,114.394 C121.889,97.49 126.189,83.046 134.769,70.908 L134.78,70.908 L134.78,70.909 Z M96,144.766 C89.2,153.272 79.96,157.51 68.242,157.51 C56.538,157.51 47.378,153.31 40.742,144.844 C34.678,137.149 31.64,127.246 31.64,115.196 C31.64,102.93 34.677,92.95 40.742,85.256 C47.472,76.651 56.622,72.346 68.242,72.346 C79.122,72.346 88.062,76.29 95.039,84.171 C101.937,91.877 105.399,102.171 105.399,115.071 C105.399,127.131 102.259,137.013 95.999,144.748 L95.999,144.768 L96,144.766 Z M389.297,48.633 L389.297,48.535 L325.8,48.535 L325.8,9.648 C325.8,4.648 321.758,0.605 316.748,0.605 L304.35,0.605 C299.302,0.605 295.2,4.707 295.2,9.765 L295.2,48.535 L282.12,48.535 L282.12,77.08 L295.182,77.08 L295.182,190.957 L312.642,190.957 C319.922,190.957 325.782,185.097 325.782,177.812 L325.782,77.1 L357.178,77.1 C359.658,72.364 362.661,67.998 366.231,64.004 C372.736,56.894 380.431,51.777 389.279,48.634 L389.299,48.634 L389.297,48.633 Z M545.527,0.605 C540.097,0.605 535.429,2.568 531.523,6.485 C527.636,10.38 525.663,15.019 525.663,20.361 C525.663,25.997 527.617,30.723 531.523,34.659 C535.429,38.555 540.156,40.499 545.683,40.499 C551.22,40.499 555.888,38.556 559.667,34.639 C563.573,30.704 565.547,26.036 565.547,20.489 C565.547,14.963 563.593,10.275 559.677,6.486 C555.751,2.55 551.034,0.588 545.507,0.588 L545.527,0.606 L545.527,0.605 Z M551.729,63.555 L540.624,63.555 C534.931,63.555 530.292,68.145 530.292,73.887 L530.292,171.075 C532.636,173.829 533.759,177.081 533.759,180.831 C533.759,184.581 532.655,187.863 530.292,190.627 L530.292,196.097 L550,196.097 C556.035,196.097 560.918,191.194 560.918,185.157 L560.918,72.697 C560.918,67.637 556.798,63.537 551.718,63.537 L551.728,63.557 L551.729,63.555 Z M695.624,82.305 C681.834,68.809 665.048,62.051 645.272,62.051 C625.584,62.051 608.885,68.751 595.194,82.208 C581.504,95.606 574.647,111.896 574.647,131.036 C574.647,151.339 581.347,168.243 594.784,181.671 C608.222,195.275 624.882,202.071 644.724,202.071 C664.764,202.071 681.678,195.411 695.477,182.071 C709.139,168.614 716.014,152.003 716.014,132.131 C716.014,112.433 709.218,95.831 695.624,82.306 L695.624,82.305 Z M673.964,163.145 C666.816,170.87 657.244,174.688 645.254,174.688 C633.358,174.688 623.808,170.811 616.542,162.988 C609.472,155.294 605.917,144.786 605.917,131.563 C605.917,119.239 609.569,109.161 616.815,101.368 C624.081,93.555 633.553,89.658 645.272,89.658 C657.137,89.658 666.717,93.555 673.962,101.368 C681.132,109.063 684.725,119.356 684.725,132.228 C684.725,145.138 681.112,155.42 673.963,163.125 L673.963,163.165 L673.963,163.145 L673.964,163.145 Z" id="Shape"></path>
                <path d="M400.703,157.793 C394.393,151.406 390.869,142.695 390.058,131.797 L477.812,131.797 C481.816,131.797 485.117,128.594 485.175,124.6 C485.175,102.696 479.55,85.645 468.31,73.3 C456.953,60.87 441.503,54.658 422.03,54.658 C402.734,54.658 387.207,61.054 375.508,73.848 C363.892,86.835 358.091,103.778 358.091,124.745 C358.091,145.868 364.093,162.841 376.036,175.625 C384.396,184.52 394.64,190.272 406.798,192.948 C411.896,194.148 417.178,194.784 422.521,194.706 C444.318,195.156 463.283,195.604 485.081,196.054 L485.119,192.851 C482.453,189.951 481.115,186.446 481.115,182.383 C481.115,178.418 482.511,175.01 485.235,172.061 L485.255,168.184 C468.068,167.754 426.389,167.344 424.729,167.344 C414.963,167.344 406.936,164.19 400.706,157.814 L400.706,157.794 L400.703,157.793 Z M396.445,96.583 C398.369,93.573 400.645,91.035 403.33,88.906 C406.035,86.738 408.965,85.136 412.246,84.004 C415.508,82.871 419.004,82.304 422.754,82.304 C439.044,82.304 449.356,90.45 453.652,106.778 L392.1,106.778 C393.106,102.968 394.55,99.571 396.446,96.563 L396.446,96.583 L396.445,96.583 Z" id="Shape"></path>
            </g>
        </g>
    </g>
</svg>