<?xml version="1.0" encoding="UTF-8"?>
<svg width="138px" height="17px" viewBox="0 0 138 17" version="1.1" xmlns="http://www.w3.org/2000/svg" xmlns:xlink="http://www.w3.org/1999/xlink">
    <g stroke="none" stroke-width="1" fill="none" fill-rule="evenodd">
        <g id="swapspace" transform="translate(12.000000, 2.000000)">
            <path d="M24.3052436,9.77539364 C24.3052436,9.32086235 24.1263427,8.97325242 23.7682964,8.73260786 C23.4100057,8.48663813 22.765498,8.22995206 21.8344311,7.96257166 C20.9033397,7.68984408 20.1662532,7.42246368 19.6231227,7.16043044 C18.1429619,6.44384392 17.4028693,5.47860308 17.4028693,4.26470792 C17.4028693,3.63369809 17.5998314,3.07220144 17.9937556,2.58021357 C18.3936187,2.08288734 18.9636088,1.69518685 19.7037014,1.41711211 C20.4497574,1.13903737 21.2853372,1 22.2104408,1 C23.1414099,1 23.9711486,1.15240529 24.6992167,1.45721807 C25.4275292,1.75668368 25.9913605,2.18181655 26.3911991,2.73261886 C26.7971478,3.28342558 27,3.90908824 27,4.60963326 L24.3142864,4.60963326 C24.3142864,4.07487245 24.1263427,3.66043393 23.7502108,3.36631768 C23.3743233,3.06685427 22.8461745,2.91711156 22.1656667,2.91711156 C21.5091345,2.91711156 20.9988513,3.04278101 20.6347684,3.29411991 C20.2707099,3.54011165 20.0886562,3.8663109 20.0886562,4.27271767 C20.0886562,4.65241061 20.3005511,4.97057811 20.7242922,5.22726418 C21.154021,5.48395024 21.7836936,5.72459481 22.61331,5.94919787 C24.1412511,6.36095181 25.2542495,6.87166137 25.9527452,7.48128253 C26.6509965,8.09090369 27,8.85026756 27,9.75935213 C27,10.7700549 26.5732773,11.5641644 25.7198319,12.1417025 C24.8663864,12.7138935 23.7174612,13 22.273105,13 C21.2704044,13 20.357252,12.8369004 19.5335989,12.5106791 C18.7099459,12.1791327 18.0802977,11.727264 17.6446055,11.155073 C17.2148766,10.582882 17,9.91978918 17,9.16577248 L19.6947564,9.16577248 C19.6947564,10.45455 20.5541896,11.0989167 22.273105,11.0989167 C22.9116738,11.0989167 23.4100057,10.9839416 23.7682964,10.7540134 C24.1263427,10.518716 24.3052436,10.1925168 24.3052436,9.77539364 Z" id="Path" fill="#FFFFFF" fill-rule="nonzero"></path>
            <polygon id="Path" fill="#FFFFFF" fill-rule="nonzero" points="38.693248 9.53846284 40.3984197 1 43 1 40.1896377 13 37.5621675 13 35.5 4.97252662 33.4380701 13 30.8103623 13 28 1 30.6015803 1 32.3155403 9.52198062 34.4038352 1 36.6137414 1"></polygon>
            <path d="M50.6153677,10.5274638 L46.3764925,10.5274638 L45.5706486,13 L43,13 L47.3677926,1 L49.6080078,1 L54,13 L51.4293514,13 L50.6153677,10.5274638 Z M47.0292194,8.52472728 L49.9626407,8.52472728 L48.4877902,4.03297235 L47.0292194,8.52472728 Z" id="Shape" fill="#FFFFFF" fill-rule="nonzero"></path>
            <path d="M57.6905467,8.77198317 L57.6905467,13 L55,13 L55,1 L60.094141,1 C61.0747252,1 61.9358274,1.16483575 62.6772029,1.49450499 C63.4246995,1.82417648 63.9986044,2.29395588 64.3991626,2.90383865 C64.7997209,3.50823188 65,4.19779453 65,4.97252662 C65,6.14834863 64.5605122,7.07691476 63.6817815,7.75824761 C62.808682,8.43406378 61.5979482,8.77198317 60.0493353,8.77198317 L57.6905467,8.77198317 Z M57.6905467,6.76922407 L60.094141,6.76922407 C60.805646,6.76922407 61.3467424,6.61539004 61.7174302,6.30769935 C62.0942389,6.00000867 62.2825209,5.56043763 62.2825209,4.98900884 C62.2825209,4.40109783 62.0942389,3.92582663 61.7174302,3.56319521 C61.3408662,3.20054119 60.8205813,3.01374272 60.1570649,3.00275457 L57.6905467,3.00275457 L57.6905467,6.76922407 Z" id="Shape" fill="#FFFFFF" fill-rule="nonzero"></path>
            <path d="M74.5198062,10.0401115 C74.5198062,9.54278083 74.3918339,9.12299513 74.1358894,8.78075438 C73.8856644,8.43314445 73.4869724,8.12833387 72.9398136,7.86630063 C72.3986125,7.59892022 71.5781126,7.32619265 70.4780755,7.04811791 C69.3782768,6.77004317 68.5518191,6.48930585 67.9989408,6.20588394 C67.451782,5.92246203 67.0502304,5.59357819 66.7942859,5.21925443 C66.5381031,4.84490866 66.4101308,4.39037737 66.4101308,3.85561656 C66.4101308,3.00535084 66.8000053,2.31818033 67.5799926,1.79411826 C68.3597416,1.26470682 69.375417,1 70.6265424,1 C71.4413229,1 72.1717418,1.14705812 72.8175608,1.44117657 C73.4693375,1.72994564 73.9728857,2.139037 74.327967,2.66844844 C74.6828099,3.19250172 74.8603506,3.78610338 74.8603506,4.44919622 L74.3889742,4.44919622 C74.3889742,3.57754182 74.0398507,2.85828831 73.3413652,2.29144229 C72.6431181,1.71925131 71.7380183,1.43315582 70.6265424,1.43315582 C69.5091087,1.43315582 68.6042472,1.66310164 67.9117195,2.1229933 C67.2249113,2.57753999 66.8815072,3.14972437 66.8815072,3.83957506 C66.8815072,4.54009808 67.1813006,5.10427931 67.7806493,5.53207476 C68.3802362,5.95989221 69.3694593,6.33956314 70.7487952,6.67113156 C72.1281311,6.99733082 73.1378489,7.37700175 73.7779484,7.81016637 C74.5927289,8.36096868 75,9.09892187 75,10.02407 C75,10.6123024 74.8195996,11.1336843 74.4587989,11.5882376 C74.0979982,12.0374217 73.5858709,12.3850317 72.922417,12.6310014 C72.2589631,12.8769931 71.5140073,13 70.6875496,13 C69.7681512,13 68.9416936,12.8609516 68.208415,12.5828769 C67.4751364,12.299455 66.9222581,11.8983954 66.5497802,11.3796761 C66.1832601,10.8609568 66,10.248651 66,9.54278083 L66.4713764,9.54278083 C66.4713764,10.4999899 66.8612509,11.2433123 67.6409998,11.7727259 C68.4209871,12.3021396 69.4364243,12.5668354 70.6875496,12.5668354 C71.7992639,12.5668354 72.7158026,12.3342226 73.437404,11.8689749 C74.1590055,11.3983802 74.5198062,10.788759 74.5198062,10.0401115 Z" id="Path" fill="#FBFF5C" fill-rule="nonzero"></path>
            <path d="M77.4670051,7.93132221 L77.4670051,13 L77,13 L77,1 L80.9350726,1 C82.2208712,1 83.2183922,1.31043998 83.9273994,1.93131768 C84.6425452,2.54670358 85,3.40384449 85,4.50274949 C85,5.59066633 84.6510447,6.43132729 83.9533703,7.02473237 C83.2615984,7.61813745 82.2756463,7.92033406 80.9957502,7.93132221 L77.4670051,7.93132221 Z M77.4670051,7.48625709 L80.9350726,7.48625709 C82.0709479,7.48625709 82.9530162,7.22527733 83.5815134,6.7032952 C84.215677,6.18131307 84.5329949,5.4532919 84.5329949,4.5192317 C84.5329949,3.55220707 84.215677,2.79945127 83.5815134,2.26098918 C82.9530162,1.71703302 82.0709479,1.44505381 80.9350726,1.44505381 L77.4670051,1.44505381 L77.4670051,7.48625709 Z" id="Shape" fill="#FBFF5C" fill-rule="nonzero"></path>
            <path d="M92.0795844,9.4148349 L85.9116779,9.4148349 L84.5103318,13 L84,13 L88.7146062,1 L89.2853938,1 L94,13 L93.4896682,13 L92.0795844,9.4148349 Z M86.0847798,8.9697924 L91.9064825,8.9697924 L88.9998819,1.53571505 L86.0847798,8.9697924 Z" id="Shape" fill="#FBFF5C" fill-rule="nonzero"></path>
            <path d="M105,9.2620215 C104.879502,10.4652443 104.434858,11.3903704 103.666301,12.0374217 C102.89751,12.6791479 101.853664,13 100.534294,13 C99.6452396,13 98.8564829,12.7914384 98.1682587,12.3743153 C97.4856718,11.9518671 96.9550579,11.3556028 96.5764172,10.5855666 C96.1977764,9.81016123 96.0056373,8.92512791 96,7.93048865 L96,6.12567642 C96,5.13101515 96.1862668,4.24331925 96.5592703,3.46256671 C96.9320388,2.6764692 97.4626527,2.06951722 98.1508769,1.64171077 C98.8449734,1.21390432 99.6396023,1 100.534294,1 C101.842155,1 102.883182,1.32085649 103.65761,1.96256726 C104.432039,2.60427803 104.879502,3.52407014 105,4.72192379 L104.53539,4.72192379 C104.403382,3.64705501 104.001723,2.83155027 103.330645,2.27540079 C102.659568,1.71390414 101.727529,1.43315582 100.534294,1.43315582 C99.3182744,1.43315582 98.33456,1.86096226 97.5831506,2.71657736 C96.8373786,3.57219465 96.4646101,4.71923921 96.4646101,6.15775943 L96.4646101,7.87433238 C96.4646101,8.79411129 96.6309114,9.60963143 96.9635139,10.3208488 C97.2963514,11.026741 97.772471,11.5775433 98.3918728,11.9732557 C99.0171469,12.3689682 99.7312089,12.5668354 100.534294,12.5668354 C101.733166,12.5668354 102.668259,12.2914452 103.339336,11.7406429 C104.016051,11.1898406 104.414892,10.3636261 104.53539,9.2620215 L105,9.2620215 Z" id="Path" fill="#FBFF5C" fill-rule="nonzero"></path>
            <polygon id="Path" fill="#FBFF5C" fill-rule="nonzero" points="114.079094 7.04944439 107.487567 7.04944439 107.487567 12.5549575 115 12.5549575 115 13 107 13 107 1 115 1 115 1.44505381 107.487567 1.44505381 107.487567 6.60440189 114.079094 6.60440189"></polygon>
            <path d="M13,6.5 C13,10.0898483 10.0898483,13 6.5,13 C2.91015172,13 0,10.0898483 0,6.5 C0,2.91015172 2.91015172,0 6.5,0 C10.0898483,0 13,2.91015172 13,6.5 Z M10.4000139,3.85807898 C10.4000139,4.32128148 10.0244955,4.69677673 9.56129301,4.69677673 C9.09809051,4.69677673 8.72259526,4.32128148 8.72259526,3.85807898 C8.72259526,3.39487648 9.09809051,3.01935812 9.56129301,3.01935812 C10.0244955,3.01935812 10.4000139,3.39487648 10.4000139,3.85807898 Z M6.45806511,3.85803275 C7.29183886,3.85803275 7.96774417,3.40742921 7.96774417,2.85157234 C7.96774417,2.29573165 7.29183886,1.84512811 6.45806511,1.84512811 C5.62429136,1.84512811 4.94838605,2.29573165 4.94838605,2.85157234 C4.94838605,3.40742921 5.62429136,3.85803275 6.45806511,3.85803275 Z" id="Shape" fill="#FBFF5C"></path>
        </g>
    </g>
</svg>