<?xml version="1.0" encoding="utf-8"?>
<!-- Generator: Adobe Illustrator 24.1.2, SVG Export Plug-In . SVG Version: 6.00 Build 0)  -->
<svg version="1.1" id="Layer_1" xmlns="http://www.w3.org/2000/svg" xmlns:xlink="http://www.w3.org/1999/xlink" x="0px" y="0px"
	 viewBox="0 0 255.8 43.4" style="enable-background:new 0 0 255.8 43.4;" xml:space="preserve">
<style type="text/css">
	.st0{fill:#FA4B29;}
	.st1{fill:#FA9F29;}
	.st2{opacity:0.2;enable-background:new    ;}
	.st3{fill:#FFFFFF;}
</style>
<g>
	<g>
		<path class="st0" d="M15.6,32.9c1-2.7,3-4.9,5.6-6.3l4.4,2.5c1.8,1,1.4,3.8-0.2,4.7l-9,5.1c-0.5,0.3-1.2,0.1-1.4-0.4c0,0,0,0,0,0
			c-0.1-0.1-0.1-0.2-0.1-0.4C14.7,36.4,15,34.6,15.6,32.9z"/>
		<path class="st1" d="M29.7,21.2c0-1.5-0.8-2.9-2.1-3.8L2.8,3.3c0.3,8.1,4.7,15.4,11.7,19.5l11.1,6.3c1.8,1,1.4,3.8-0.2,4.7
			l2.8-1.6c0.9-0.5,1.4-1.4,1.4-2.4v-3.2C29.6,26.6,29.7,21.2,29.7,21.2z"/>
		<path class="st2" d="M25.6,29.2l-4.4-2.5c0,0,2.8,2.4,3.9,3.6c1,1.2,0.4,3.6,0.4,3.6C27,33,27.4,30.2,25.6,29.2z"/>
		<path class="st0" d="M45.3,11.5c-1,2.7-3,4.9-5.6,6.3l-4.4-2.5c-1.8-1-1.4-3.8,0.2-4.7l9-5.1c0.5-0.3,1.2-0.1,1.4,0.4
			C46,6,46,6.2,46,6.3C46.2,8.1,45.9,9.9,45.3,11.5z"/>
		<path class="st1" d="M31.2,23.3c0,1.5,0.8,2.9,2.1,3.8l24.8,14.1c-0.3-8.1-4.7-15.4-11.7-19.6l-11.1-6.3c-1.8-1-1.4-3.8,0.2-4.7
			l-2.8,1.6c-0.9,0.5-1.4,1.4-1.4,2.4v3.2C31.3,17.9,31.2,23.3,31.2,23.3z"/>
		<path class="st2" d="M35.3,15.3l4.4,2.5c0,0-2.8-2.4-3.9-3.6c-1-1.2-0.3-3.6-0.3-3.6C33.9,11.5,33.5,14.3,35.3,15.3z"/>
	</g>
	<path class="st3" d="M59.9,21.9c0-2.3,0.4-4.5,1.2-6.7c1.7-4.5,5.1-8.1,9.4-10.1C73,4,75.7,3.4,78.4,3.5c3.1-0.1,6.2,0.7,9,2.2
		c2.4,1.4,4.4,3.4,5.6,5.8l-5.6,3.8c-0.4-1-1.1-1.9-1.8-2.6c-0.7-0.7-1.4-1.2-2.3-1.7c-0.8-0.4-1.6-0.7-2.5-0.9
		c-0.8-0.2-1.7-0.3-2.6-0.3c-1.7-0.1-3.3,0.3-4.8,1.1c-1.3,0.7-2.5,1.7-3.4,2.8c-0.9,1.2-1.6,2.5-2,3.9c-0.5,1.4-0.7,2.9-0.7,4.4
		c0,1.6,0.3,3.2,0.8,4.7c0.5,1.5,1.3,2.8,2.3,4c1,1.1,2.1,2.1,3.5,2.8c1.4,0.7,2.9,1.1,4.5,1.1c0.9,0,1.8-0.1,2.7-0.3
		c0.9-0.2,1.8-0.5,2.6-1c0.8-0.5,1.6-1.1,2.2-1.7c0.7-0.7,1.3-1.6,1.7-2.6l6,3.4c-0.6,1.4-1.5,2.6-2.6,3.7c-1.1,1.1-2.4,2-3.7,2.7
		c-1.4,0.7-2.9,1.3-4.5,1.7c-1.5,0.4-3.1,0.6-4.6,0.6c-2.5,0-5-0.5-7.3-1.7c-2.2-1.1-4.1-2.6-5.7-4.3c-1.6-1.8-2.9-3.8-3.7-6
		C60.3,26.6,59.8,24.3,59.9,21.9z"/>
	<path class="st3" d="M123.2,21.6c-0.7-1.7-1.6-3.2-2.9-4.5c-1.3-1.3-2.8-2.4-4.5-3.1c-1.9-0.8-4-1.2-6.1-1.1
		c-2.1,0-4.2,0.4-6.1,1.1c-3.4,1.4-6.1,4.2-7.4,7.6c-1.3,3.5-1.3,7.3,0,10.8c1.3,3.4,4,6.2,7.4,7.6c3.9,1.5,8.3,1.5,12.2,0
		c1.7-0.7,3.3-1.8,4.5-3.1c1.2-1.3,2.2-2.8,2.8-4.5C124.5,28.9,124.5,25.1,123.2,21.6z M116.4,30.3c-0.3,1-0.9,1.8-1.5,2.6
		c-2,2.2-5.2,2.9-8,1.7c-0.9-0.4-1.7-1-2.3-1.7c-0.7-0.8-1.2-1.6-1.5-2.6c-0.7-2.1-0.7-4.4,0-6.6c0.3-1,0.9-1.8,1.5-2.6
		c0.6-0.7,1.4-1.3,2.3-1.7c0.9-0.4,1.9-0.6,2.8-0.6c2,0,3.9,0.8,5.2,2.3c0.7,0.8,1.2,1.7,1.5,2.6c0.4,1.1,0.6,2.2,0.5,3.3
		C116.9,28.1,116.7,29.2,116.4,30.3L116.4,30.3z"/>
	<rect x="125.7" y="13.4" class="st3" width="7.1" height="27.2"/>
	<path class="st3" d="M160.2,40.6h-7.1V25.3c0.1-1.7-0.3-3.4-1.2-4.8c-0.8-1-2-1.6-3.2-1.5c-0.7,0-1.5,0.1-2.2,0.4
		c-0.8,0.3-1.5,0.7-2.1,1.2c-0.7,0.5-1.3,1.1-1.8,1.8c-0.5,0.7-0.9,1.5-1.2,2.3v15.9h-7.1V13.4h6.4v5c1-1.8,2.6-3.2,4.4-4.1
		c2-1,4.3-1.5,6.6-1.5c1.5-0.1,2.9,0.3,4.2,0.9c1,0.6,1.9,1.4,2.5,2.5c0.6,1.1,1.1,2.2,1.3,3.4c0.2,1.3,0.3,2.6,0.3,3.9V40.6z"/>
	<path class="st0" d="M252.6,3.7h-11.1l-6.8,11.7l-6.8-11.7h-11.1l2,3.1c-0.6-0.4-1.1-0.8-1.7-1.1c-2.9-1.5-6.1-2.3-9.4-2.2
		c-2.8-0.1-5.5,0.5-8.1,1.6c-2.3,1-4.3,2.5-6,4.2c-0.5,0.5-0.9,1.1-1.4,1.6c-1.8-2.6-4.4-4.6-7.4-5.8c-2.6-1-5.4-1.5-8.2-1.5h-14.4
		v36.9h14.5c2.7,0,5.3-0.4,7.8-1.3c2.2-0.8,4.3-2.1,6-3.7c0.8-0.8,1.4-1.6,2-2.5c0.5,0.6,1,1.2,1.5,1.8c1.7,1.8,3.7,3.3,6,4.3
		c2.4,1.1,5,1.7,7.6,1.6c1.6,0,3.3-0.2,4.9-0.6c1.6-0.4,3.2-0.9,4.7-1.7c0.9-0.4,1.7-0.9,2.5-1.5l-2.3,3.5h11.1l6.4-11.1l6.4,11.1
		h11.1l-12.1-18.2L252.6,3.7z M184.4,25.9c-0.3,1.1-0.9,2.2-1.6,3.1c-0.7,0.9-1.6,1.5-2.6,2c-1.1,0.5-2.4,0.8-3.6,0.7h-4.1V12.5h4.1
		c1.2,0,2.4,0.2,3.5,0.7c1,0.4,1.9,1.1,2.7,2c0.8,0.9,1.3,1.9,1.7,3c0.4,1.3,0.6,2.6,0.6,3.9l0,0C185,23.4,184.8,24.7,184.4,25.9z
		 M222.9,32l-7.8-4.6c-0.3,0.8-0.7,1.5-1.3,2.1c-0.5,0.6-1.2,1-1.9,1.4c-0.7,0.4-1.4,0.6-2.2,0.8c-0.7,0.2-1.4,0.2-2.2,0.2
		c-1.3,0-2.5-0.3-3.6-0.8c-1.1-0.5-2-1.2-2.7-2.1c-0.8-0.9-1.3-2-1.7-3.1c-0.4-1.2-0.6-2.4-0.6-3.7c0-1.2,0.2-2.3,0.5-3.5
		c0.3-1.1,0.8-2.2,1.5-3.1c0.7-0.9,1.6-1.7,2.6-2.2c1.2-0.6,2.5-0.9,3.8-0.8c0.7,0,1.4,0.1,2.2,0.2c0.7,0.1,1.5,0.4,2.2,0.7
		c0.7,0.4,1.3,0.8,1.9,1.4c0.6,0.6,1.1,1.4,1.4,2.2l7.2-5l6.9,10.4L222.9,32z"/>
	<rect x="125.7" y="3.7" class="st3" width="7.1" height="7"/>
</g>
</svg>
