<svg xmlns="http://www.w3.org/2000/svg"  fill="none" viewBox="0 0 138 28">
<path fill-rule="evenodd" clip-rule="evenodd" d="M1.33537 16.0879C2.29968 16.1376 3.2399 15.7778 3.92248 15.0981L11.2582 7.79798C11.9898 7.07002 13.09 6.85229 14.0458 7.24631C15.0016 7.64033 15.6248 8.56851 15.6249 9.59808V16.5014L21.7019 10.4537C23.0895 9.07339 25.0069 8.35416 26.9648 8.47956L26.9988 8.4817C24.2129 2.02128 17.0449 -1.38143 10.2465 0.529216C3.44815 2.43986 -0.872347 9.07134 0.149086 16.0277L1.33537 16.0879ZM49.034 22.5382C49.9239 22.5291 50.6393 21.806 50.6345 20.9203V7.03304C50.6345 6.27015 50.013 5.6517 49.2465 5.6517C48.4799 5.6517 47.8584 6.27015 47.8584 7.03304V16.8386L42.2309 6.53523C41.9482 5.98351 41.3777 5.63702 40.7554 5.63916C39.8119 5.63822 39.0429 6.39211 39.0296 7.33095V21.1451C39.0296 21.908 39.651 22.5264 40.4176 22.5264C41.1842 22.5264 41.8057 21.908 41.8057 21.1451V10.9146L47.6329 21.6662C47.8888 22.2042 48.4359 22.5447 49.034 22.5382ZM54.4134 14.1007C54.4134 18.9796 56.8644 22.688 61.0909 22.688C65.3174 22.688 67.7676 18.9796 67.7676 14.1007C67.7676 9.22171 65.3176 5.51475 61.0909 5.51475C56.8642 5.51475 54.4134 9.22327 54.4134 14.1007ZM64.9407 14.1005C64.9407 17.5365 63.5653 20.224 61.0891 20.224C58.588 20.224 57.2378 17.5365 57.2378 14.1005C57.2378 10.6177 58.5882 7.95362 61.0891 7.95362C63.5647 7.95362 64.9407 10.6177 64.9407 14.1005ZM84.8262 22.538C85.5876 22.5205 86.197 21.9037 86.2018 21.1457V7.77942C86.2022 7.21153 85.9756 6.66681 85.5721 6.26532C85.1685 5.86382 84.6211 5.63849 84.0504 5.63901C83.1316 5.62984 82.3127 6.21388 82.0261 7.08267L78.8743 16.6654L75.7478 7.10756C75.4144 6.1099 74.4035 5.49978 73.3603 5.6666C72.3172 5.83342 71.5493 6.72801 71.5467 7.77942V21.1457C71.5467 21.9082 72.1678 22.5264 72.9341 22.5264C73.7003 22.5264 74.3214 21.9082 74.3214 21.1457V10.4425L78.0731 21.7913C78.1982 22.2891 78.4991 22.5128 78.8743 22.5128C79.2494 22.5128 79.4995 22.2891 79.65 21.7913L83.4506 10.4425V21.1457C83.4463 21.9073 84.0609 22.5294 84.8262 22.538ZM91.9784 22.5382C92.7398 22.5207 93.3492 21.9039 93.354 21.1459V7.03308C93.354 6.27057 92.7328 5.65243 91.9666 5.65243C91.2004 5.65243 90.5793 6.27057 90.5793 7.03308V21.1459C90.5868 21.9118 91.2088 22.5308 91.9784 22.5382ZM107.761 22.5382C108.651 22.5293 109.366 21.8061 109.361 20.9203V7.03304C109.361 6.26999 108.74 5.65142 107.973 5.65142C107.206 5.65142 106.585 6.26999 106.585 7.03304V16.8386L100.957 6.53523C100.675 5.9832 100.104 5.63655 99.4818 5.63917C98.5385 5.63854 97.7698 6.39231 97.7564 7.33096V21.1451C97.7564 21.6387 98.021 22.0948 98.4506 22.3416C98.8801 22.5884 99.4094 22.5884 99.8389 22.3416C100.268 22.0948 100.533 21.6387 100.533 21.1451V10.9146L106.36 21.6662C106.616 22.2041 107.163 22.5446 107.761 22.5382ZM115.239 22.3884H121.816C122.493 22.3884 123.041 21.8426 123.041 21.1692C123.041 20.4958 122.493 19.9499 121.816 19.9499H116.54V15.1468H121.642C122.319 15.1468 122.867 14.6009 122.867 13.9275C122.867 13.2542 122.319 12.7083 121.642 12.7083H116.54V8.20268H121.816C122.253 8.2082 122.659 7.97935 122.879 7.6036C123.099 7.22785 123.099 6.76331 122.879 6.38757C122.659 6.01182 122.253 5.78296 121.816 5.78848H115.239C114.289 5.78848 113.764 6.31119 113.764 7.25703V20.9203C113.764 21.8673 114.289 22.3884 115.239 22.3884ZM137.774 20.4476L133.547 13.8769L137.524 7.70474C137.654 7.49536 137.724 7.25425 137.725 7.008C137.729 6.25998 137.126 5.64862 136.375 5.63901C135.889 5.63348 135.442 5.90394 135.224 6.33595L131.873 11.8117L128.496 6.33595C128.278 5.90394 127.831 5.63348 127.345 5.63901C126.85 5.6328 126.392 5.90028 126.156 6.33368C125.92 6.76707 125.944 7.295 126.22 7.70474L130.173 13.8769L125.944 20.4729C125.797 20.6751 125.718 20.9191 125.72 21.1691C125.714 21.9175 126.318 22.5295 127.07 22.538C127.55 22.548 127.995 22.2887 128.221 21.8672L131.847 16.0431L135.474 21.8672C135.784 22.3975 136.414 22.653 137.008 22.4889C137.602 22.3248 138.01 21.7824 138.001 21.1691C137.999 20.9115 137.92 20.6603 137.774 20.4476Z" fill="#00A0FF"/>
<path opacity="0.5" fill-rule="evenodd" clip-rule="evenodd" d="M26.7464 11.8663C25.7671 11.8028 24.8078 12.1629 24.1146 12.8542L16.5812 20.3525C16.1029 20.8303 15.4531 21.099 14.7753 21.0992C13.3616 21.0992 12.2156 19.9587 12.2156 18.5518V11.6466L6.33557 17.4998C4.96932 18.8579 3.08932 19.5771 1.16076 19.4794L1.12402 19.4775C3.89462 25.9591 11.0725 29.3833 17.8852 27.4733C24.6979 25.5633 29.0241 18.9138 27.9874 11.9461L26.7464 11.8663Z" fill="#00A0FF"/>
</svg>
