<svg id="Layer_1" data-name="Layer 1" xmlns="http://www.w3.org/2000/svg" viewBox="0 0 589.51 195.56"><defs><style>.cls-1,.cls-4{fill:#fff;}.cls-2{fill:#41ad49;}.cls-3{fill:#35bdac;}.cls-4{font-size:30px;font-family:Montserrat-Regular, Montserrat;}</style></defs><path class="cls-1" d="M219.59,105.58c3.53,1.67,7.16,2.06,13,2.16,15.41.29,21,4,21,13.05a13.47,13.47,0,0,1-1.38,6.08,16.5,16.5,0,0,1-5.39,5.49c-2.65,1.86-7.26,2.75-13.83,2.75-9.32,0-16.19-2.26-20.8-6.87a3.27,3.27,0,0,1-.88-2c.09-1.67.88-2.45,2.35-2.45a2.5,2.5,0,0,1,1.87.68c3.43,3.83,9.61,6,17.17,6,10.2,0,15.89-3.53,15.89-9.81.09-2.85-.79-4.71-2.65-5.69-3.63-2-7.56-2.45-13.84-2.55-14.91-.29-20-3.63-20-12,0-8.83,8-14.42,20.21-14.42,7.55,0,13.73,2.16,18.35,6.18a2.58,2.58,0,0,1,.78,2,2.32,2.32,0,0,1-2.26,2.45,2.67,2.67,0,0,1-2-.68c-3.53-3.43-8.73-5.2-14.62-5.2a25.38,25.38,0,0,0-6.37.69,22.47,22.47,0,0,0-6,2.64c-2.06,1.28-3,3.34-3.13,6.38-.1,2.55.78,4.22,2.45,5.1" transform="translate(-7.79 -22.88)"/><path class="cls-1" d="M364.07,107.05v24.73c0,1.76-.78,2.64-2.45,2.74a2.43,2.43,0,0,1-2.55-2.74V107.54c0-11-4.62-16.77-13.54-16.77s-14.81,7.16-14.81,18.64v22.37c0,1.76-.79,2.64-2.46,2.74a2.42,2.42,0,0,1-2.54-2.74V107.54c0-11-4.62-16.77-13.54-16.77-9.13,0-14.81,7.16-14.81,18.64v22.37a2.43,2.43,0,0,1-2.56,2.74c-1.57-.1-2.35-1-2.45-2.74V89.5c.1-1.87.88-2.75,2.45-2.85,1.67.1,2.56,1,2.56,2.85v5.09h.19c3.14-5.49,8.53-8.53,15.5-8.53,7.85,0,13.15,3.53,15.79,10.1h.2c3.14-6.27,8.83-10.1,17.17-10.1,11.87,0,17.85,7.36,17.85,21" transform="translate(-7.79 -22.88)"/><path class="cls-1" d="M426,110.58c0-11.77-7.75-19.81-19.33-19.81s-19.52,8-19.52,19.81,8.05,19.82,19.52,19.82,19.33-8,19.33-19.82M387.19,89.49v6.77h.2A21.61,21.61,0,0,1,390.82,92a25.1,25.1,0,0,1,5.89-3.83c2.55-1.37,6.08-2.06,10.69-2.06,7.06,0,13,2.45,17.17,6.77,6.28,7.06,6.28,12.75,6.57,17.75A29.84,29.84,0,0,1,429,121.77c-2.55,6.77-11.18,13.73-21.58,13.34-4.61,0-8.14-.68-10.69-2-5.1-2.74-7.36-5-9.32-8.23h-.2V150c0,1.77-.78,2.65-2.45,2.74a2.42,2.42,0,0,1-2.55-2.74V89.49c0-1.86.88-2.74,2.55-2.84,1.67.1,2.45,1,2.45,2.84" transform="translate(-7.79 -22.88)"/><path class="cls-1" d="M451.23,67.42v64.35a2.42,2.42,0,0,1-2.54,2.75c-1.57-.09-2.36-1-2.46-2.75V67.42c.1-1.76.89-2.65,2.46-2.75a2.43,2.43,0,0,1,2.54,2.75" transform="translate(-7.79 -22.88)"/><path class="cls-1" d="M471.11,107.74h38.55c-1.27-10.2-8.64-17-19.22-17-10.8,0-18.06,6.77-19.33,17m40.32,4.61H471c.79,10.79,8.25,18.05,19.91,18.05,7,0,12.37-2.84,15.9-7.26a2.22,2.22,0,0,1,1.86-1,2.4,2.4,0,0,1,2.55,2.65,2.28,2.28,0,0,1-.69,1.66c-4.51,5.3-11.08,8.64-19.62,8.64-7.55,0-13.83-2.46-18.24-6.77-6.47-7.06-6.67-12.75-6.87-17.76a25.75,25.75,0,0,1,2.26-11.08c2.75-6.87,11.48-13.93,22.37-13.44,14,0,24,9.71,24,23.35a2.86,2.86,0,0,1-3,2.94" transform="translate(-7.79 -22.88)"/><path class="cls-1" d="M566.41,129.91a2.87,2.87,0,0,1,.88,2.16c-.09,1.57-1,2.35-2.65,2.45a2.67,2.67,0,0,1-2-1.08l-17.76-19.81-18,19.91a2.28,2.28,0,0,1-2,1,2.41,2.41,0,0,1-2.46-2.55,2.37,2.37,0,0,1,.69-1.77l18.25-19.81L523.84,91.26A3.24,3.24,0,0,1,523,89.1c.1-1.57,1-2.35,2.65-2.45a2.72,2.72,0,0,1,2.07,1.08l17.26,19.42,17.36-19.52a2.54,2.54,0,0,1,2-1,2.4,2.4,0,0,1,2.46,2.55A2.35,2.35,0,0,1,566,91l-17.66,19.33Z" transform="translate(-7.79 -22.88)"/><path class="cls-2" d="M84.67,54.66l20.2-16.11L59.47,48.91Zm15.71,3.59L108,42.42,90.87,56.08ZM112.47,61V44.6l-7.12,14.79Zm14.47,3.31-9.49-19.7V62.15Zm-54.86.38,7.61-6.07L58.36,53.76Zm86.28,6.79L121.93,42.43l11.22,23.31Zm-96,1,5.72-4.56L55.25,57.65Zm27.91,6.78,7.88-16.37L85.9,60.05l-9.83,7.83Zm49.86,1,17.11-3.9-21.34-4.87ZM50.77,81.69l7.61-6.07-7.6-15.81Zm66.68,3.73,17.71-4-5.45-11.32-12.26-2.81Zm-15.08,3.44,10.1-2.3V66.12L103.14,64,94.27,82.4Zm43.15,2.57L158.36,81.2l-16,3.65Zm-55.75.31,6.4-1.46L92.05,87ZM73.45,95.46l10.11-2.31,4.5-9.34-16-12.75-7.49,6Zm39,1.45V91.67l-5.12,1.16Zm-61.7,3.72,17.71-4L60.6,80.22l-9.83,7.84Zm-25.19,1.15L45.79,85.66V59.81Zm52.37,3,2.85-5.91-5.13,1.17Zm74,0,9.5-19.71L147.74,96Zm-123.28.87,17.11-3.9V92Zm96.87,1.68,16-12.73L137.38,86l-19.93,4.54v10.35Zm-8.11,6.47,4.12-3.29-4.12-3.28Zm-71.65.35v-7.3l-16,3.65Zm24.91,5.69,4.49-9.33-4.5-9.34-19.92,4.55v9.57Zm73.05,2,5.45-11.32-5.45-11.33-14.21,11.32Zm-63,.31L78,116.27,75.67,121Zm20.35,4.64,11.33-9V103.28l-11.33-9L87,97.47l-6.3,13.06,6.28,13ZM45.79,129v-9.74l-17.11-3.9Zm66.67.39v-5.25l-5.12,4.08Zm53.48,4.41V87.25l-11.23,23.29Zm-73.9.25,4.12-3.28-6.41-1.47Zm45.33,1,4.16-8.63-16-12.74-8.11,6.47v10.35Zm24.09.91L152,116.27,147.73,125Zm-3.1,3.88-12.84-10.23-3.17,6.58Zm-97.77,1,7.89-16.38-17.72-4V133Zm75.31,8.77,21.35-4.87-17.12-3.91ZM72.07,150l16-12.74-4.5-9.34-10.1-2.31L64.58,144Zm45.36,3.83L129.7,151l5.45-11.33-17.71-4.05Zm-14.31,3.26,9.34-2.13V134.5l-10.09-2.3-8.12,6.47ZM85.88,161l12.26-2.8-7.88-16.37L76.05,153.18Zm-40.1.22V135.39L25.57,119.27Zm5,0,7.61-15.8-7.61-6.08Zm4.48,2.17,12.83-10.23-5.7-4.56Zm3.1,3.89,21.33-4.87-7.61-6.07Zm54.11,9.18V160.06l-7.13,1.63Zm5,0,9.5-19.72-9.5,2.16ZM108,178.64l-7.62-15.82L90.85,165Zm13.94,0,36.45-29-25.22,5.75Zm-17.07,3.88L84.65,166.4l-25.2,5.75Zm10.1,15.67a10.81,10.81,0,0,1-10.81-10.73L57.94,176.91A10.51,10.51,0,0,1,55,180.58a10.8,10.8,0,0,1-13.53-16.84L20.92,121.06a10.8,10.8,0,0,1-9.06-19,10.67,10.67,0,0,1,6.71-2.35,10.92,10.92,0,0,1,2.35.26L41.49,57.29a10.3,10.3,0,0,1-1.65-1.65,10.81,10.81,0,0,1,16.9-13.47,10.6,10.6,0,0,1,1.24,2l46.18-10.53A10.8,10.8,0,0,1,123.41,27a10.87,10.87,0,0,1,1.32,11.35l37,29.55a10.81,10.81,0,0,1,15.12,1.77,10.8,10.8,0,0,1-1.71,15.18,10.65,10.65,0,0,1-4.26,2.07v47.35a10.81,10.81,0,0,1,4.25,19,10.69,10.69,0,0,1-6.73,2.35,10.8,10.8,0,0,1-6.68-2.3l-37,29.54a10.82,10.82,0,0,1-3,13.05,10.64,10.64,0,0,1-6.73,2.36" transform="translate(-7.79 -22.88)"/><path class="cls-2" d="M282.64,76a10.48,10.48,0,1,0-13,10.17v45.58c.09,1.76.88,2.64,2.45,2.74a2.43,2.43,0,0,0,2.55-2.74V86.2a10.47,10.47,0,0,0,8-10.17" transform="translate(-7.79 -22.88)"/><path class="cls-1" d="M410.8,181.65a11,11,0,0,0-4.08-7.41c-3.81-2.85-8-3-12.19-1.08a11.13,11.13,0,0,0-6.18,11.58,10.57,10.57,0,0,0,7.39,9.28,14.87,14.87,0,0,0,8.49.24,11.65,11.65,0,0,0,4.66-2.1c.2-.15.44-.26.2-.61-.87-1.24-1.72-2.5-2.57-3.77-.14-.2-.23-.25-.45-.08a8.29,8.29,0,0,1-4.34,1.62c-3,.3-5.88-1.15-6.34-4.43.4.23.5.65,1,.65,4.7,0,9.41,0,14.12,0,.33,0,.45-.08.44-.43A24.76,24.76,0,0,0,410.8,181.65Zm-7.11-.62c-1.28,0-2.57,0-3.85,0s-2.61,0-3.92,0c-.36,0-.5-.05-.4-.46a4.24,4.24,0,0,1,4.09-3.23c2.41,0,4,1,4.6,3C404.36,180.9,404.25,181.05,403.69,181Z" transform="translate(-7.79 -22.88)"/><path class="cls-1" d="M359.09,191.5a17.93,17.93,0,0,1-3.29,2.13,10.37,10.37,0,0,1-6.86.86,5.78,5.78,0,0,1-4.82-5.69c-.08-2.18,0-4.35,0-6.53,0-3.05,0-6.1,0-9.14,0-.53.15-.64.65-.63,1.87,0,3.75,0,5.62,0,.53,0,.69.11.69.67,0,3.93,0,7.87,0,11.81,0,2.93,1.7,3.9,4.41,3.54a5,5,0,0,0,2.7-1.36,1.76,1.76,0,0,0,.62-1.41c0-4.2,0-8.4,0-12.61,0-.49.09-.66.63-.65,1.91,0,3.83,0,5.75,0,.47,0,.57.14.57.58q0,10.26,0,20.51c0,.48-.12.62-.61.61-1.94,0-3.88,0-5.82,0-.39,0-.52-.09-.53-.5A4.77,4.77,0,0,1,359.09,191.5Z" transform="translate(-7.79 -22.88)"/><path class="cls-1" d="M327.41,175.34c.42,0,.52-.22.67-.35a11.88,11.88,0,0,1,7-3,8.46,8.46,0,0,1,3.95.63c2.65,1.18,3.6,3.41,3.63,6.12,0,3.57,0,7.13,0,10.7,0,1.42,0,2.83,0,4.25,0,.44-.14.53-.55.53-1.94,0-3.88,0-5.82,0-.5,0-.61-.13-.61-.61,0-4,0-7.92,0-11.89a5.69,5.69,0,0,0-.17-1.42c-.38-1.43-1.42-2.15-3.22-2.19a5.26,5.26,0,0,0-4.07,1.75,1.11,1.11,0,0,0-.26.83c0,4.27,0,8.53,0,12.8,0,.62-.18.74-.76.73-1.89,0-3.79,0-5.68,0-.43,0-.55-.12-.55-.55q0-10.31,0-20.63c0-.38.07-.53.49-.52q3,0,6,0c.37,0,.5.09.49.47C328,173.78,328.13,174.62,327.41,175.34Z" transform="translate(-7.79 -22.88)"/><path class="cls-1" d="M378.12,186.35a4.15,4.15,0,0,1,.35-2.08q2.05-5.6,4-11.2a.72.72,0,0,1,.83-.57c2,0,4,0,6.08,0h.66c-.49,1.26-.95,2.45-1.42,3.64l-6.91,17.55a.62.62,0,0,1-.69.5c-2.14,0-4.27,0-6.41,0a.63.63,0,0,1-.7-.49l-6.81-17.32a7.16,7.16,0,0,1-.13-2.53c0-1.35,0-1.35,1.33-1.35s2.71,0,4.06,0a.64.64,0,0,1,.73.52q2.42,6.81,4.85,13.6C378.28,186.65,378.15,186.48,378.12,186.35Z" transform="translate(-7.79 -22.88)"/><path class="cls-1" d="M412.34,183.31c0-3.38,0-6.75,0-10.12,0-.61.18-.7.73-.69,1.91,0,3.83,0,5.75,0,.4,0,.5.1.5.5q0,10.35,0,20.7c0,.41-.12.5-.51.5q-2.94,0-5.88,0c-.47,0-.58-.13-.58-.58C412.35,190.18,412.34,186.74,412.34,183.31Z" transform="translate(-7.79 -22.88)"/><path class="cls-3" d="M415.77,169.79a4,4,0,0,1,.05-7.95,4,4,0,1,1-.05,7.95Z" transform="translate(-7.79 -22.88)"/><path class="cls-1" d="M378.12,186.35a.89.89,0,0,1,.09.62.33.33,0,0,1-.22-.35Z" transform="translate(-7.79 -22.88)"/><text class="cls-4" transform="translate(283.19 170.86)">A</text><text class="cls-4" transform="translate(420.46 171.86)">company</text></svg>