<svg xmlns="http://www.w3.org/2000/svg" width="150" height="57" viewBox="0 0 500 57" fill="none">
    <path
        d="M106.106 41.1935C106.106 39.1279 105.374 37.5482 103.909 36.4546C102.443 35.3368 99.8059 34.1703 95.9963 32.9552C92.1866 31.7158 89.1707 30.5007 86.9484 29.3099C80.8921 26.0534 77.8639 21.6669 77.8639 16.1504C77.8639 13.2828 78.6698 10.7311 80.2816 8.49528C81.9177 6.2352 84.2499 4.47331 87.2781 3.20961C90.3307 1.94591 93.7496 1.31406 97.5348 1.31406C101.344 1.31406 104.739 2.00666 107.718 3.39187C110.698 4.75278 113.005 6.68478 114.641 9.18788C116.302 11.691 117.132 14.5343 117.132 17.7179H106.143C106.143 15.2877 105.374 13.4043 103.835 12.0677C102.297 10.7068 100.136 10.0263 97.3516 10.0263C94.6653 10.0263 92.5774 10.5974 91.0877 11.7396C89.5981 12.8575 88.8532 14.3399 88.8532 16.1868C88.8532 17.9123 89.7202 19.3582 91.454 20.5247C93.2123 21.6912 95.7887 22.7848 99.1832 23.8055C105.435 25.6767 109.989 27.9976 112.847 30.768C115.704 33.5384 117.132 36.9893 117.132 41.1206C117.132 45.7137 115.386 49.3225 111.894 51.9471C108.402 54.5474 103.701 55.8476 97.7912 55.8476C93.6885 55.8476 89.9522 55.1064 86.5821 53.6239C83.212 52.1172 80.6357 50.0637 78.853 47.4634C77.0947 44.8631 76.2155 41.8497 76.2155 38.4231H87.2415C87.2415 44.2799 90.758 47.2082 97.7912 47.2082C100.404 47.2082 102.443 46.6857 103.909 45.6408C105.374 44.5715 106.106 43.0891 106.106 41.1935Z"
        fill="white"/>
    <path
        d="M166.145 39.8083L173.324 2.04312H184.277L172.445 55.1185H161.383L152.701 19.6134L144.02 55.1185H132.957L121.125 2.04312H132.078L139.294 39.7354L148.086 2.04312H157.39L166.145 39.8083Z"
        fill="white"/>
    <path
        d="M218.747 44.1826H199.479L195.816 55.1185H184.131L203.985 2.04312H214.168L234.132 55.1185H222.447L218.747 44.1826ZM202.446 35.3246H215.78L209.076 15.4578L202.446 35.3246Z"
        fill="white"/>
    <path
        d="M250.103 36.4182V55.1185H239.114V2.04312H259.92C263.925 2.04312 267.442 2.77218 270.47 4.23029C273.523 5.68841 275.867 7.76622 277.503 10.4637C279.139 13.1369 279.957 16.1868 279.957 19.6134C279.957 24.814 278.162 28.921 274.573 31.9345C271.007 34.9236 266.062 36.4182 259.737 36.4182H250.103ZM250.103 27.5601H259.92C262.826 27.5601 265.036 26.8797 266.55 25.5188C268.089 24.1579 268.858 22.2137 268.858 19.6863C268.858 17.086 268.089 14.9839 266.55 13.38C265.012 11.776 262.887 10.9498 260.177 10.9012H250.103V27.5601Z"
        fill="white"/>
    <path
        d="M322.046 42.3965C322.046 40.1364 321.509 38.2287 320.435 36.6734C319.385 35.0937 317.712 33.7085 315.416 32.5177C313.145 31.3026 309.702 30.0632 305.086 28.7995C300.471 27.5358 297.003 26.26 294.683 24.972C292.387 23.684 290.702 22.1894 289.628 20.4883C288.553 18.7871 288.016 16.7215 288.016 14.2913C288.016 10.4273 289.652 7.30448 292.925 4.9229C296.197 2.51701 300.459 1.31406 305.709 1.31406C309.128 1.31406 312.193 1.98236 314.903 3.31897C317.638 4.63127 319.751 6.49037 321.241 8.89626C322.73 11.2778 323.475 13.9754 323.475 16.9888H321.497C321.497 13.0276 320.032 9.75898 317.101 7.18297C314.171 4.58267 310.373 3.28252 305.709 3.28252C301.02 3.28252 297.223 4.3275 294.317 6.41746C291.435 8.48313 289.994 11.0834 289.994 14.2184C289.994 17.4019 291.252 19.9658 293.767 21.9099C296.283 23.8541 300.434 25.5795 306.222 27.0863C312.01 28.5687 316.247 30.2941 318.933 32.2626C322.352 34.7657 324.061 38.1193 324.061 42.3236C324.061 44.9968 323.304 47.3662 321.79 49.4319C320.276 51.4732 318.127 53.0529 315.343 54.1707C312.559 55.2886 309.433 55.8476 305.965 55.8476C302.107 55.8476 298.639 55.2157 295.562 53.952C292.485 52.664 290.165 50.8414 288.602 48.4841C287.064 46.1268 286.295 43.3442 286.295 40.1364H288.273C288.273 44.4864 289.909 47.8644 293.181 50.2703C296.454 52.6762 300.715 53.8791 305.965 53.8791C310.63 53.8791 314.476 52.822 317.504 50.7077C320.532 48.5691 322.046 45.7987 322.046 42.3965Z"
        fill="#FBFF5C"/>
    <path
        d="M336.479 32.7V55.1185H334.501V2.04312H351.168C356.614 2.04312 360.839 3.41618 363.842 6.16229C366.871 8.88411 368.385 12.6752 368.385 17.5356C368.385 22.3474 366.907 26.0656 363.952 28.6902C361.022 31.3148 356.846 32.6514 351.425 32.7H336.479ZM336.479 30.7315H351.168C355.979 30.7315 359.715 29.5772 362.377 27.2685C365.063 24.9598 366.407 21.7398 366.407 17.6085C366.407 13.3314 365.063 10.002 362.377 7.62041C359.715 5.21452 355.979 4.01157 351.168 4.01157H336.479V30.7315Z"
        fill="#FBFF5C"/>
    <path
        d="M402.598 39.2615H376.48L370.546 55.1185H368.385L388.349 2.04312H390.766L410.73 55.1185H408.569L402.598 39.2615ZM377.213 37.2931H401.865L389.557 4.41256L377.213 37.2931Z"
        fill="#FBFF5C"/>
    <path
        d="M455.164 38.8605C454.651 44.3285 452.758 48.5327 449.486 51.4732C446.213 54.3895 441.769 55.8476 436.152 55.8476C432.367 55.8476 429.009 54.8998 426.079 53.0042C423.173 51.0844 420.914 48.3747 419.302 44.8753C417.69 41.3515 416.872 37.3295 416.848 32.8094V24.6075C416.848 20.0873 417.641 16.0532 419.229 12.5051C420.816 8.93271 423.075 6.17444 426.005 4.23029C428.96 2.28614 432.343 1.31406 436.152 1.31406C441.72 1.31406 446.152 2.77218 449.449 5.68841C452.746 8.60464 454.651 12.7846 455.164 18.2282H453.186C452.624 13.3435 450.914 9.63747 448.057 7.11007C445.2 4.55837 441.232 3.28252 436.152 3.28252C430.975 3.28252 426.787 5.22667 423.588 9.11498C420.413 13.0033 418.826 18.216 418.826 24.7533V32.5542C418.826 36.7341 419.534 40.4402 420.95 43.6723C422.367 46.8802 424.394 49.3833 427.031 51.1816C429.693 52.9799 432.733 53.8791 436.152 53.8791C441.256 53.8791 445.237 52.6276 448.094 50.1245C450.975 47.6214 452.673 43.8667 453.186 38.8605H455.164Z"
        fill="#FBFF5C"/>
    <path d="M496.264 28.7995H469.523V53.1501H500V55.1185H467.545V2.04312H500V4.01157H469.523V26.8311H496.264V28.7995Z"
          fill="#FBFF5C"/>
    <path fill-rule="evenodd" clip-rule="evenodd"
          d="M56.2348 28.1174C56.2348 43.6462 43.6462 56.2348 28.1174 56.2348C12.5886 56.2348 0 43.6462 0 28.1174C0 12.5886 12.5886 0 28.1174 0C43.6462 0 56.2348 12.5886 56.2348 28.1174ZM44.9879 16.6891C44.9879 18.6928 43.3635 20.3171 41.3598 20.3171C39.3561 20.3171 37.7318 18.6928 37.7318 16.6891C37.7318 14.6854 39.3561 13.061 41.3598 13.061C43.3635 13.061 44.9879 14.6854 44.9879 16.6891ZM27.936 16.6889C31.5427 16.6889 34.4665 14.7397 34.4665 12.3352C34.4665 9.93077 31.5427 7.98157 27.936 7.98157C24.3293 7.98157 21.4055 9.93077 21.4055 12.3352C21.4055 14.7397 24.3293 16.6889 27.936 16.6889Z"
          fill="#FBFF5C"/>
</svg>
