<svg xmlns="http://www.w3.org/2000/svg" viewBox="0 0 309.02 261.07"><defs><style>.cls-1{fill:#fff;}.cls-2{fill:#e31337;}</style></defs><g id="Layer_2" data-name="Layer 2"><g id="Layer_1-2" data-name="Layer 1"><path class="cls-1" d="M301.45,75.71a74,74,0,0,0-17.56-22.94c-1.78-1.56-3.6-3-5.48-4.37a73,73,0,0,0-19.49-10.15l-.23-.08a74.2,74.2,0,0,0-90.4,103L164,146,104.1,214a28.32,28.32,0,1,0,42.51,37.44c.15-.16.3-.32.43-.49h0a17.2,17.2,0,0,0,23.18-25.36c-.17-.11-.34-.24-.51-.37l-.39-.33c-.3-.26-.55-.53-.81-.8A10.63,10.63,0,0,1,183.4,209l.36.34.08-.08a17.2,17.2,0,0,0,22.73-25.79l4.24-4.83A74.2,74.2,0,0,0,301.45,75.71m-33.73,37.51a27.25,27.25,0,0,1-7.83,6.18,27.82,27.82,0,1,1,7.83-6.18"/><path class="cls-2" d="M112.28,145.92a17.17,17.17,0,0,0,11.06-21.25l6.1-2a74.33,74.33,0,0,0,30.31,21,74.18,74.18,0,0,1,80-120.16A74.19,74.19,0,0,0,111.6,68.88l-6.14,2-86,28.52A28.32,28.32,0,1,0,37.26,153.2c.21-.07.42-.13.62-.21h0a17.2,17.2,0,0,0,32.8-10.21,5.89,5.89,0,0,1-.24-.58,2.44,2.44,0,0,1-.17-.47c-.13-.37-.22-.75-.31-1.11A10.64,10.64,0,0,1,90.46,135c.05.15.1.32.14.48l.1,0a17.2,17.2,0,0,0,21.58,10.43"/></g></g></svg>