<?xml version="1.0" encoding="utf-8"?>
<!-- Generator: Adobe Illustrator 24.1.0, SVG Export Plug-In . SVG Version: 6.00 Build 0)  -->
<svg version="1.1" id="Layer_1" xmlns="http://www.w3.org/2000/svg" xmlns:xlink="http://www.w3.org/1999/xlink" x="0px" y="0px"
	 viewBox="0 0 77.9 77.9" style="enable-background:new 0 0 77.9 77.9;" xml:space="preserve">
<style type="text/css">
	.st0{fill:none;}
	.st1{fill:#FCC821;}
	.st2{fill:url(#SVGID_1_);}
	.st3{fill:#FDE38E;}
	.st4{fill:#FFFFFF;}
</style>
<pattern  x="-24.9" y="102.5" width="66.3" height="66.3" patternUnits="userSpaceOnUse" id="b" viewBox="0 -66.3 66.3 66.3" style="overflow:visible;">
	<g>
		<rect y="-66.3" class="st0" width="66.3" height="66.3"/>
		<rect y="-66.3" class="st0" width="66.3" height="66.3"/>
		<rect y="-66.3" class="st1" width="66.3" height="66.3"/>
	</g>
</pattern>
<g>
	<g>
		<pattern  id="SVGID_1_" xlink:href="#b" patternTransform="matrix(0.446 -0.365 -0.365 -0.446 -6059.5356 -14921.9385)">
		</pattern>
		<path class="st2" d="M38.9,77.9C17.4,77.9,0,60.4,0,38.9C0,18.7,15.5,1.8,35.7,0.1C36.8,0,37.9,0,39,0C60.5,0,78,17.5,77.9,39
			c0,20.2-15.5,37.1-35.7,38.8C41.2,77.9,40,77.9,38.9,77.9z"/>
		<path class="st3" d="M77.7,33.8c0-0.2-0.2-0.4-0.5-0.4c0,0,0,0,0,0c-0.1,0-0.3,0-0.4,0c-1,0-1.9-0.6-2.3-1.5
			c-0.5-0.9-0.3-2,0.4-2.8c0.3-0.4,0.7-0.6,1.1-0.8c0.4-0.2,0.5-0.3,0.4-0.8c-0.1-0.2-0.1-0.4-0.2-0.5c-0.2-0.5-0.4-0.6-0.8-0.4
			c-0.4,0.2-0.8,0.4-1.2,0.6c-0.3,0.2-0.4,0.2-0.7,0c0,0-0.1-0.1-0.1-0.1l-9.8-7.5c-0.2-0.1-0.4-0.3-0.6-0.4
			c-0.2-0.1-0.2-0.4-0.2-0.5c0-0.1,0.1-0.3,0.1-0.4c0.2-0.6,0.2-1.3,0.1-1.9c-0.2-1.2-1-2.2-2-2.7c-0.4-0.2-0.4-0.3-0.4-0.7
			c0.3-1.8,0.7-3.5,1-5.3c0.1-0.2,0-0.5-0.2-0.7c-0.1-0.1-0.3-0.2-0.4-0.3c-0.4-0.2-0.5-0.1-0.6,0.2c0,0,0,0.1,0,0.1
			c-0.1,0.6-0.2,1.3-0.4,1.9c-0.2,1.2-0.5,2.4-0.7,3.6c-0.1,0.4-0.2,0.5-0.6,0.5c-1.1,0.1-2.2,0.7-2.8,1.7c-0.4,0.5-0.4,0.5-1,0.4
			l0,0c-5.1-1.4-10.1-2.7-15.2-4.1c-0.4-0.1-0.9-0.2-1.3-0.4c-0.3,0-0.4-0.3-0.4-0.5c0,0,0,0,0,0c0-0.1,0-0.1,0-0.2
			c-0.1-0.3,0.1-0.7,0.4-0.8c2.4-1.3,4.8-2.5,7.2-3.8l5.5-2.9c0.1,0,0.2-0.1,0.3-0.2c0.2-0.2,0.2-0.3,0-0.5C51.3,2,51.1,1.9,51,1.9
			c-0.5-0.1-0.9-0.3-1.4-0.4c-0.2,0-0.4-0.1-0.5-0.1c-0.6-0.2-1.1-0.3-1.7-0.4l-0.1,0c-0.9-0.2-1.7-0.3-2.6-0.5c-0.1,0-0.2,0-0.4,0
			c-0.4-0.1-0.8-0.1-1.2-0.2c-0.2,0-0.4,0-0.7-0.1c-0.6-0.1-1.2-0.1-1.8-0.1c-0.1,0-0.2,0-0.2,0c-0.2,0-0.5,0-0.7,0
			c-0.2,0-0.4,0-0.6,0c-1.1,0-2.2,0-3.3,0.1C14.2,2-1.7,20.8,0.1,42.2c1.7,20.2,18.6,35.7,38.8,35.7c1.1,0,2.2,0,3.3-0.1
			c0.2,0,0.4,0,0.6-0.1c0.1,0,0.2,0,0.2,0c1.2-0.1,2.4-0.3,3.7-0.5c3.9-0.8,7.7-2.2,11.2-4.1c1.7-0.9,3.4-2,4.9-3.3
			c0.2-0.1,0.3-0.2,0.5-0.3c-0.1,0.1-0.2,0.1-0.3,0.2c0.1-0.1,0.2-0.2,0.2-0.3c0,0,0,0,0,0c-0.1,0.1-0.3,0.1-0.4,0.2
			c-0.5,0.3-0.9,0.6-1.4,0.8c-0.2,0.2-0.6,0.2-0.8,0.1c-0.1,0-0.2,0-0.2-0.1l-6.4-1.9c-0.6-0.2-1.1-0.3-1.7-0.5
			c-0.3,0-0.5-0.3-0.5-0.6c0-0.2,0-0.3-0.1-0.5c-0.1-0.3,0-0.6,0.3-0.7c0.1-0.1,0.2-0.2,0.4-0.2l7.3-4.6c1-0.6,2-1.3,3-1.9
			c0.4-0.2,0.5-0.2,0.8,0l0.1,0.1c0.7,0.5,1.5,0.8,2.3,0.7c0.5,0,0.6,0,0.7,0.5c0.3,0.7,0.5,1.4,0.8,2.2c0.2,0.4,0.3,0.9,0.5,1.3
			c0.1,0.3,0.3,0.4,0.5,0.1c0.1-0.1,0.2-0.2,0.3-0.3c0.3-0.3,0.4-0.7,0.2-1c-0.3-0.9-0.7-1.7-1-2.6c-0.2-0.6-0.2-0.6,0.3-1.1
			c1-0.9,1.5-2.3,1.2-3.6c-0.1-0.5-0.1-0.6,0.3-0.8c0.9-0.6,1.8-1.1,2.7-1.7c1-0.6,2-1.2,3-1.9c0.2-0.1,0.4-0.3,0.5-0.5
			c0.2-0.4,0.3-0.8,0.4-1.3c0-0.3-0.1-0.4-0.4-0.3c-0.2,0.1-0.3,0.2-0.4,0.2c-2.2,1.3-4.3,2.7-6.5,4c-0.6,0.4-0.6,0.3-1.1,0
			c-1.3-1-3.2-1-4.5,0c-0.1,0.1-0.2,0.1-0.2,0.2c-0.1,0.1-0.3,0.1-0.5,0c-0.2-0.1-0.4-0.2-0.5-0.3c-1.1-0.7-2.3-1.5-3.4-2.2
			c-0.3-0.1-0.4-0.4-0.4-0.7c0-2.1,0-4.2,0-6.3c0-4.9,0-9.7,0-14.6c0-1.4-1.1-2.6-2.6-2.8c-1.2-0.1-2.4-0.3-3.5-0.4
			c-1.2-0.1-2.5-0.2-3.7-0.2c-0.3,0-0.7,0-1-0.1c-0.2,0-0.2-0.2-0.1-0.3c0.1-0.1,0.3-0.2,0.4-0.3c2.6-1.7,5.1-3.4,7.7-5.1
			c0.7-0.5,0.7-0.3,1.1,0c1.2,0.9,2.9,1,4.3,0.3c0.2-0.1,0.4-0.2,0.5-0.3c0.1-0.1,0.4-0.1,0.5,0c0.1,0,0.1,0.1,0.2,0.1l10.2,7.8
			c0.5,0.3,0.5,0.4,0.3,0.9l0,0.1c-0.7,1.8-0.1,3.9,1.5,5.1c0.9,0.7,2,1,3.1,0.9c0.2,0,0.4-0.2,0.4-0.4c0,0,0,0,0-0.1
			C77.8,34.5,77.8,34.1,77.7,33.8z M65.9,54.4c1.2,0,2.2,1,2.1,2.2c0,1.2-1,2.1-2.2,2.1c-1.2,0-2.2-0.9-2.2-2.2
			C63.6,55.4,64.6,54.4,65.9,54.4C65.8,54.4,65.9,54.4,65.9,54.4z M49.2,2c-0.1,0.1-0.2,0.2-0.3,0.2c-2.8,1.5-5.7,3-8.5,4.5L38,8
			L37.9,8c-0.5,0.2-0.5,0.2-0.9-0.2c-0.2-0.2-0.3-0.4-0.5-0.5c-0.7-0.6-1.7-1-2.7-0.9c-0.5,0-0.6,0-0.7-0.5
			c-0.3-0.7-0.5-1.5-0.8-2.2c0,0,0-0.1,0-0.1c-0.1-0.3,0-0.5,0.3-0.6c0.8-0.3,1.5-0.4,2.3-0.6c1.4-0.3,2.9-0.6,4.3-0.8
			c1-0.1,2-0.2,2.9-0.2c0.8,0,1.5-0.1,2.3,0c1.2,0,2.3,0.1,3.5,0.2c0.3,0,0.7,0.1,1,0.1c0.1,0,0.2,0.1,0.3,0.2C49.3,2,49.2,2,49.2,2
			z M30.1,11.5c0,0.1,0.1,0.2,0.1,0.3c0,0.2,0,0.4-0.2,0.5c-0.1,0.1-0.2,0.1-0.3,0.2l-13.2,9c-0.1,0.1-0.3,0.2-0.5,0.2
			c-0.2,0-0.3-0.1-0.5-0.2c-0.4-0.2-0.7-0.3-1.2-0.4c-1.2-0.1-2.3,0.6-2.8,1.7c0,0,0,0,0,0c0,0.5-0.5,0.8-0.9,0.8
			c-0.4,0-0.7,0.1-1.1,0.1c-0.3,0-0.4-0.1-0.3-0.3c0.1-0.2,0.2-0.5,0.3-0.7c1.5-3.1,3.3-5.9,5.6-8.5c0.9-1,1.8-2,2.7-2.9
			c2.3-2.1,4.8-3.9,7.5-5.4c1.5-0.8,3.1-1.6,4.7-2.2c0.6-0.2,0.7-0.2,0.9,0.4c0.2,0.7,0.5,1.4,0.7,2.1c0.2,0.5,0.1,0.5-0.2,0.8
			c-0.8,0.6-1.4,1.5-1.6,2.5C29.9,10.3,29.9,10.9,30.1,11.5L30.1,11.5z M15.8,23.9c0,0.9-0.7,1.6-1.6,1.5c-0.8,0-1.5-0.7-1.5-1.5
			c0-0.9,0.7-1.6,1.6-1.5C15.1,22.4,15.7,23,15.8,23.9z M18.4,60.8c0,0.2-0.1,0.4-0.2,0.5c-0.8,0.8-1.7,1.6-2.5,2.5
			c-0.1,0.1-0.1,0.1-0.2,0.1c-0.2,0.1-0.3,0.1-0.5,0c-0.2-0.2-0.4-0.4-0.5-0.6c-2.8-3.3-5-7.2-6.4-11.3c-0.1-0.3-0.2-0.6-0.3-1
			c0-0.1-0.1-0.2-0.1-0.4c0-0.2,0.1-0.2,0.2-0.1c0.1,0.1,0.2,0.2,0.3,0.3c1.3,1.1,2.5,2.1,3.8,3.2l5.9,5c0.1,0.1,0.1,0.1,0.2,0.2
			c0.2,0.1,0.2,0.3,0.2,0.5c0,0.2,0,0.4,0,0.5C18.4,60.5,18.4,60.6,18.4,60.8z M34,74.7c-5.8-1.2-11.3-3.9-15.8-7.7
			c-0.5-0.5-1.1-0.9-1.6-1.4c-0.3-0.3-0.3-0.4,0-0.7c0.7-0.8,1.5-1.5,2.2-2.2c0.3-0.3,0.4-0.3,0.9-0.1c1,0.5,2.1,0.3,2.9-0.5
			c0.2-0.3,0.6-0.4,0.9-0.2c4.4,1.2,8.8,2.4,13.2,3.5l7.7,2.1c0,0,0.1,0,0.1,0c0.3,0.1,0.5,0.2,0.5,0.6c0,0.1,0,0.3,0.1,0.4
			c0,0.3-0.1,0.4-0.3,0.5l-2.2,1.3c-2.5,1.5-5,2.9-7.5,4.4C34.8,74.7,34.4,74.8,34,74.7z M19.4,60.2c0-0.8,0.6-1.4,1.4-1.4
			c0,0,0,0,0,0c0.8,0,1.4,0.6,1.4,1.4s-0.6,1.4-1.4,1.4C20.1,61.6,19.4,61,19.4,60.2C19.4,60.2,19.4,60.2,19.4,60.2L19.4,60.2z
			 M23.1,58.2c-0.3,0.2-0.7,0.1-0.9-0.1c-0.7-0.5-1.7-0.6-2.5-0.1c-0.3,0.2-0.7,0.1-0.9-0.2c-1.6-1.3-3.1-2.7-4.7-4
			c-2.2-1.9-4.4-3.7-6.6-5.6c-0.4-0.3-0.6-0.7-0.7-1.1c-0.2-1.3-0.4-2.6-0.6-3.9C6.1,41.5,6,39.8,6,38c0.1-3.4,0.6-6.9,1.6-10.1
			c0.2-0.7,0.4-1.3,0.7-2c0.1-0.3,0.4-0.6,0.7-0.6c0.7-0.1,1.4-0.2,2.1-0.3c0.3-0.1,0.6,0.1,0.7,0.3c0.6,0.9,1.6,1.4,2.6,1.2
			c0.3,0,0.6-0.1,0.8-0.2c0.3-0.2,0.7-0.2,0.9,0.1c1.5,1.2,2.9,2.3,4.4,3.5c0.7,0.6,1.4,1.1,2.1,1.7c0.3,0.2,0.5,0.6,0.4,1
			c0,2,0,4,0,6c0,1.1,0,2.1,0,3.2h0c0,3,0,6.1,0,9.1c0,1,0.5,2,1.4,2.6c0.3,0.2,0.7,0.4,1.1,0.4c0.8,0.1,1.6,0.2,2.4,0.2
			c1,0.1,2,0.2,3,0.3c0.1,0,0.3,0,0.3,0.1s-0.1,0.2-0.2,0.2c-0.8,0.4-1.7,0.7-2.5,1.1C26.8,56.6,25,57.4,23.1,58.2z M28.9,26.2
			c-0.1,0.2-0.3,0.4-0.5,0.4c-0.8,0.1-1.6,0.2-2.4,0.3c-1.5,0.1-2.6,1.2-2.8,2.7c0,0,0,0.1,0,0.1c0,0.2-0.2,0.3-0.4,0.2
			c-0.1-0.1-0.2-0.1-0.3-0.2l-5.3-4.2c-0.1-0.1-0.2-0.1-0.2-0.2c-0.1-0.1-0.2-0.3-0.1-0.5c0.1-0.4,0.1-0.9,0.1-1.4
			c0-0.3,0.1-0.5,0.3-0.6c1.4-1,2.9-1.9,4.3-2.9l9-6.1c0.1-0.1,0.2-0.2,0.4-0.2c0.1-0.1,0.2-0.1,0.3-0.1c0.1,0,0.2,0,0.3,0.1
			c0.2,0.1,0.3,0.2,0.5,0.4c0.3,0.2,0.3,0.3,0.2,0.6c-0.2,0.8-0.4,1.5-0.6,2.3c-0.8,3-1.7,6.1-2.5,9.1C28.9,26,28.9,26.1,28.9,26.2z
			 M31.6,10.4c0-1.3,1-2.3,2.2-2.4c0,0,0.1,0,0.1,0c1.3,0,2.4,1,2.4,2.3c0,1.3-1,2.4-2.3,2.4c0,0-0.1,0-0.1,0
			C32.7,12.8,31.6,11.8,31.6,10.4C31.6,10.5,31.6,10.4,31.6,10.4z M51.9,69.3c2.2,0.7,4.4,1.3,6.6,2c0.1,0,0.2,0,0.2,0.1
			c0.1,0,0.2,0.1,0.2,0.2c0,0.1-0.1,0.2-0.2,0.3c-0.1,0-0.2,0.1-0.3,0.1c-1.3,0.6-2.6,1.2-4,1.7c-1.5,0.6-3.1,1-4.6,1.4
			c-0.7,0.2-1.5,0.3-2.2,0.3c-1,0.1-2,0.2-3,0.2c-0.6,0-1.1,0.1-1.9,0.1c-1.8,0-3.5-0.2-5.3-0.4c-0.2,0-0.4,0-0.4-0.2
			s0.2-0.3,0.3-0.3c1.7-1,3.4-2,5.2-3c1-0.6,1.9-1.1,2.9-1.7c0.3-0.2,0.7-0.2,0.9,0.1c1.4,1.1,3.5,0.9,4.6-0.5c0,0,0,0,0-0.1
			C51.2,69.3,51.6,69.2,51.9,69.3z M49.3,63.6c0.1-0.8,0-1.7,0.1-2.5c0-0.3,0-0.6,0-0.9c0-0.8,0-1.5,0.1-2.3c0-1,0.1-2.1,0.1-3.1
			c0-0.4,0.1-0.5,0.5-0.5c0.8-0.1,1.6-0.1,2.5-0.2c1.1-0.1,2.3-0.2,3.4-0.4c0.7-0.1,1.4-0.5,1.8-1c0.3-0.3,0.4-0.3,0.7-0.1
			c1.2,0.8,2.3,1.5,3.5,2.3c0.3,0.1,0.4,0.4,0.3,0.7c-0.2,0.6-0.2,1.3,0,1.9c0.1,0.4,0,0.5-0.3,0.8c-1.1,0.7-2.3,1.4-3.4,2.2
			l-7.2,4.5c-0.1,0-0.1,0.1-0.2,0.1c-0.2,0.1-0.4,0.1-0.6,0c-0.3-0.2-0.6-0.4-0.9-0.5c-0.2-0.1-0.3-0.3-0.3-0.5
			C49.3,63.9,49.3,63.7,49.3,63.6z M50.4,67.6c0,1.1-0.8,1.9-1.9,1.9c-1.1,0-1.9-0.9-1.9-1.9c0-1,0.8-1.9,1.9-1.9
			C49.5,65.6,50.3,66.5,50.4,67.6z M47.5,54.5h0.1c0.6,0,0.6,0.2,0.6,0.6c0,0.2,0,0.4,0,0.6h0c0,0.8-0.1,1.7-0.1,2.5
			c0,1-0.1,2-0.1,2.9c0,0.8-0.1,1.6-0.1,2.3c0,0.1,0,0.1,0,0.2c0,0.4-0.2,0.8-0.6,0.9c-0.6,0.2-1.2,0.6-1.5,1.2
			c-0.2,0.3-0.5,0.4-0.8,0.3c-4.1-1.1-8.3-2.2-12.4-3.3c-2.9-0.8-5.7-1.5-8.6-2.3c-0.1,0-0.2-0.1-0.3-0.1c-0.2,0-0.3-0.2-0.3-0.3
			c0-0.2,0.1-0.3,0.2-0.4c0.1-0.1,0.3-0.1,0.4-0.2l7.1-3c1.1-0.5,2.3-1,3.4-1.5c0.5-0.2,1.1-0.3,1.6-0.3c0.6,0.1,1.1,0,1.7,0.1
			c1,0,1.9,0,2.9,0c1.4,0,2.8,0,4.2-0.1C45.7,54.6,46.6,54.5,47.5,54.5z M55.2,19c-0.1,0.1-0.2,0.1-0.2,0.2
			c-3.3,2.2-6.5,4.4-9.8,6.6c-0.3,0.2-0.7,0.3-1.1,0.3c-1.1-0.1-2.2,0-3.3,0c-1.1,0-2.3,0-3.4,0c-1,0-1.9,0.1-2.9,0.1
			c-0.9,0-1.8,0.1-2.7,0.2c-0.3,0-0.6,0.1-0.9,0.1c-0.5,0-0.5-0.1-0.4-0.5c0.1-0.5,0.3-1,0.4-1.5c0.9-3.1,1.7-6.3,2.6-9.4
			c0-0.1,0-0.1,0.1-0.2c0-0.2,0.2-0.4,0.5-0.4c0.3,0,0.6,0,0.9-0.1c0.9-0.2,1.8-0.8,2.3-1.6c0.1-0.1,0.1-0.2,0.2-0.3
			c0.1-0.2,0.3-0.3,0.6-0.2c0.8,0.2,1.7,0.4,2.5,0.7c4.7,1.3,9.4,2.5,14.1,3.8c0.1,0,0.2,0.1,0.3,0.1c0.2,0.1,0.3,0.2,0.3,0.4
			c0,0.5,0.1,0.9,0.2,1.3C55.4,18.7,55.3,18.9,55.2,19z M59.1,19.5c-1.3,0-2.3-1.1-2.3-2.3c0-1.3,1.1-2.3,2.3-2.3s2.3,1.1,2.3,2.3
			c0,0,0,0,0,0C61.4,18.5,60.4,19.5,59.1,19.5z"/>
		<g>
			<path d="M23.5,28.3c0.2-0.3,0.4-0.5,0.7-0.8c0.1-0.1,0.2-0.1,0.3-0.2c0,0,0.1-0.1,0.1-0.1c0.1,0,0.2-0.1,0.2-0.1
				c0.1,0,0.1-0.1,0.2-0.1s0.1,0,0.2,0c0.1,0,0.2-0.1,0.3-0.1c5.1-0.6,10.1-0.9,15.2-0.9c2.5,0,5,0.1,7.5,0.2c0.6,0,1.1,0.1,1.7,0.1
				c0.7,0,1.5,0.1,2.2,0.2c0.7,0.1,1.3,0.1,2,0.2c0.6,0.1,1.3,0.1,1.9,0.2c0.7,0.1,1.3,0.4,1.7,0.9c0.4,0.5,0.7,1.1,0.7,1.8l0,7.9
				v0.9v1.4v0.4v0.8l0,0v1.3v0.9l0,7.9c0,0.5-0.1,1-0.4,1.4c-0.2,0.3-0.4,0.5-0.7,0.8c-0.1,0.1-0.2,0.1-0.3,0.2c0,0-0.1,0.1-0.1,0.1
				c-0.1,0-0.2,0.1-0.2,0.1c-0.1,0-0.1,0.1-0.2,0.1s-0.1,0-0.2,0c-0.1,0-0.2,0.1-0.3,0.1c-5.1,0.6-10.1,0.9-15.2,0.9
				c-2.5,0-5-0.1-7.5-0.2c-0.6,0-1.1-0.1-1.7-0.1c-0.7,0-1.5-0.1-2.2-0.2c-0.7-0.1-1.3-0.1-2-0.2c-0.6-0.1-1.3-0.1-1.9-0.2
				c-0.7-0.1-1.3-0.4-1.7-0.9c-0.4-0.5-0.7-1.1-0.7-1.8l0-7.9v-0.9v-1.4v-0.4v-0.8l0,0v-1.3v-0.9l0-7.9
				C23.2,29.2,23.3,28.7,23.5,28.3z"/>
			<path class="st4" d="M27.8,33.2c8.6-0.7,17.2-0.7,25.9-0.1c0.5,0,0.9,0.5,0.8,1s-0.5,0.9-1,0.8C45,34.3,36.5,34.4,28,35
				c0,0,0,0-0.1,0c-0.5,0-0.9-0.4-0.9-0.9C27,33.6,27.4,33.2,27.8,33.2L27.8,33.2z"/>
			<path class="st4" d="M27.9,40l25.7-0.1c0.5,0,0.9,0.4,0.9,0.9c0,0.5-0.4,0.9-0.9,0.9l0,0l-25.7,0.1c-0.5,0-0.9-0.4-0.9-0.9
				C27.1,40.4,27.5,40,27.9,40L27.9,40z"/>
			<path class="st4" d="M28,46.7c8.5,0.6,17.1,0.6,25.6-0.1c0.5,0,1,0.3,1,0.8c0,0.5-0.3,1-0.8,1l0,0c-4.3,0.3-8.6,0.5-12.9,0.5
				s-8.6-0.1-12.9-0.5c-0.5,0-0.9-0.5-0.8-1S27.5,46.7,28,46.7L28,46.7L28,46.7z"/>
		</g>
	</g>
</g>
</svg>
