<?xml version="1.0" encoding="UTF-8" standalone="no"?>
<svg
   xmlns:dc="http://purl.org/dc/elements/1.1/"
   xmlns:cc="http://creativecommons.org/ns#"
   xmlns:rdf="http://www.w3.org/1999/02/22-rdf-syntax-ns#"
   xmlns:svg="http://www.w3.org/2000/svg"
   xmlns="http://www.w3.org/2000/svg"
   id="svg17"
   version="1.1"
   viewBox="0 0 350.38281 148"
   height="148"
   width="350.38281">
  <metadata
     id="metadata21">
    <rdf:RDF>
      <cc:Work
         rdf:about="">
        <dc:format>image/svg+xml</dc:format>
        <dc:type
           rdf:resource="http://purl.org/dc/dcmitype/StillImage" />
        <dc:title></dc:title>
      </cc:Work>
    </rdf:RDF>
  </metadata>
  <defs
     id="defs7">
    <linearGradient
       gradientTransform="translate(113.72656)"
       y1="0"
       gradientUnits="userSpaceOnUse"
       y2="72"
       x2="36"
       x1="36"
       id="linear-gradient">
      <stop
         id="stop2"
         stop-color="#8bc6ec"
         offset="0" />
      <stop
         id="stop4"
         stop-color="#9599e2"
         offset="1" />
    </linearGradient>
  </defs>
  <g
     id="g3748">
    <g
       id="TRIBALDEX"
       style="font-weight:800;font-size:56px;font-family:Avenir-Heavy, Avenir;fill:#ffffff"
       aria-label="TRIBALDEX">
      <path
         id="path3750"
         style=""
         d="m 0,107.17578 h 37.625 v 7.95703 H 24.089844 V 148 H 13.5625 V 115.13281 H 0 Z" />
      <path
         id="path3752"
         style=""
         d="m 58.023437,125.27734 q 3.308594,0 4.730469,-1.23046 1.449219,-1.23047 1.449219,-4.04688 0,-2.78906 -1.449219,-3.99219 -1.421875,-1.20312 -4.730469,-1.20312 H 53.59375 v 10.47265 z m -4.429687,7.27344 V 148 H 43.066406 v -40.82422 h 16.078125 q 8.066406,0 11.8125,2.70703 3.773438,2.70703 3.773438,8.5586 0,4.04687 -1.96875,6.64453 -1.941407,2.59765 -5.878907,3.82812 2.160157,0.49219 3.855469,2.24219 1.722656,1.72266 3.472656,5.25 L 79.925781,148 H 68.714844 l -4.976563,-10.14453 q -1.503906,-3.0625 -3.0625,-4.1836 -1.53125,-1.12109 -4.101562,-1.12109 z" />
      <path
         id="path3754"
         style=""
         d="M 86.1875,107.17578 H 96.714844 V 148 H 86.1875 Z" />
      <path
         id="path3756"
         style=""
         d="m 123.375,122.98047 q 2.48828,0 3.77344,-1.09375 1.28515,-1.09375 1.28515,-3.22656 0,-2.10547 -1.28515,-3.19922 -1.28516,-1.1211 -3.77344,-1.1211 h -5.82422 v 8.64063 z m 0.35547,17.85547 q 3.17187,0 4.75781,-1.33985 1.61328,-1.33984 1.61328,-4.04687 0,-2.65235 -1.58594,-3.96485 -1.58593,-1.33984 -4.78515,-1.33984 h -6.17969 v 10.69141 z m 9.78906,-14.6836 q 3.39063,0.98438 5.25,3.63672 1.85938,2.65235 1.85938,6.50781 0,5.90625 -3.99219,8.80469 Q 132.64453,148 124.49609,148 h -17.47265 v -40.82422 h 15.80469 q 8.5039,0 12.30468,2.57031 3.82813,2.57032 3.82813,8.23047 0,2.98047 -1.39453,5.08594 -1.39454,2.07813 -4.04688,3.08984 z" />
      <path
         id="path3758"
         style=""
         d="M 174.48047,140.5625 H 158.01953 L 155.42187,148 h -10.58203 l 15.1211,-40.82422 h 12.55078 L 187.63281,148 h -10.58203 z m -13.83594,-7.57422 h 11.18359 L 166.25,116.74609 Z" />
      <path
         id="path3760"
         style=""
         d="m 193.04687,107.17578 h 10.52735 v 32.86719 h 18.48437 V 148 h -29.01172 z" />
      <path
         id="path3762"
         style=""
         d="m 239.25781,115.13281 v 24.91016 h 3.77344 q 6.45312,0 9.84375,-3.19922 3.41797,-3.19922 3.41797,-9.29687 0,-6.07032 -3.39063,-9.24219 -3.39062,-3.17188 -9.87109,-3.17188 z m -10.52734,-7.95703 h 11.10156 q 9.29688,0 13.83594,1.33985 4.5664,1.3125 7.82031,4.48437 2.87109,2.76172 4.26563,6.37109 1.39453,3.60938 1.39453,8.17579 0,4.62109 -1.39453,8.25781 -1.39454,3.60937 -4.26563,6.37109 -3.28125,3.17188 -7.875,4.51172 Q 249.01953,148 239.83203,148 h -11.10156 z" />
      <path
         id="path3764"
         style=""
         d="M 275.21484,107.17578 H 303.625 v 7.95703 h -17.88281 v 7.60157 h 16.8164 v 7.95703 h -16.8164 v 9.35156 h 18.48437 V 148 h -29.01172 z" />
      <path
         id="path3766"
         style=""
         d="M 336.21875,127.16406 350.38281,148 H 339.41797 L 329.875,134.05469 320.41406,148 h -11.01953 l 14.16406,-20.83594 -13.61718,-19.98828 h 10.99218 l 8.94141,13.15235 8.91406,-13.15235 h 11.04688 z" />
    </g>
    <g
       id="g36"
       transform="translate(25.464844)">
      <path
         id="Rectangle_1"
         d="m 118.72656,0 h 62 c 2.77,0 5,2.23 5,5 v 62 c 0,2.77 -2.23,5 -5,5 h -62 c -2.77,0 -5,-2.23 -5,-5 V 5 c 0,-2.77 2.23,-5 5,-5 z"
         style="fill:url(#linear-gradient)" />
      <g
         id="T"
         style="font-weight:800;font-size:60px;font-family:AlrightSans-Black, 'Alright Sans';fill:#ffffff"
         aria-label="T">
        <path
           id="path3770"
           style=""
           d="m 129.85953,13.259766 h 40.3125 v 8.52539 H 155.67007 V 57 H 144.39078 V 21.785156 h -14.53125 z" />
      </g>
    </g>
  </g>
</svg>
