<?xml version="1.0" encoding="UTF-8"?><svg id="Ebene_1" xmlns="http://www.w3.org/2000/svg" viewBox="0 0 1202.48 1351.51"><defs><style>.cls-1{fill:#ed6d28;}.cls-1,.cls-2,.cls-3{isolation:isolate;}.cls-2{fill:#d73d15;fill-rule:evenodd;}.cls-3{fill:#404c54;}</style></defs><path class="cls-3" d="M1155.59,580.53c-1.49,1.9-2.52,3.24-3.44,4.62-15.87,23.72-31.27,47.71-47.65,71.02-4.57,6.52-5.91,12.68-5.14,20.08,1.13,11.66,2.36,23.31,3.13,34.97,1.23,18.08.92,19.62-17.1,17.72-20.13-2.11-32.04,3.95-39.54,23.52-9.55,18.44-18.02,35.79-28.09,55.15h10.22c22.23.1,44.47.36,66.76.21,6.73-.05,9.29,2.31,8.37,9.04-1.8,13.71-2.67,27.58-4.93,41.18-12.38,73.12-40.05,140.03-82.16,201.04-3.18,4.57-5.55,5.39-10.94,3.03-29.73-12.89-59.62-25.47-89.66-37.64-6.57-2.62-7.86-5.14-5.55-11.91,11.5-34.15,22.65-68.4,33.38-102.8,3.39-10.78,5.14-22.13,7.6-33.22-15.46,14.99-29.42,30.19-43.13,45.65-4.26,4.83-7.45,5.03-11.45,0-7.14-8.93-14.53-17.66-21.72-26.5-4.57-5.65-9.71-11.76-14.84-18.23-.56,2.52-.41,2.88-.72,4.26-6.83,37.28-16.18,73.84-30.76,108.97-2.41,5.8-4.98,8.42-11.86,7.55-35.74-4.47-71.48-8.73-107.32-12.38-18.95-1.9-38.1-2.41-57.87-3.65-.21-3.85-.46-7.09-.46-10.32-.05-51.09.15-102.24-.26-153.38-.05-8.99,3.03-11.04,11.4-10.94,47.24.41,94.43.31,141.68.36,3.08,0,6.21-.26,10.68-.46-14.84-23.42-29.22-45.19-42.52-67.63-4.98-8.47-10.58-11.09-20.18-10.89-29.73.67-59.52,0-89.3.51-8.73.15-11.45-2.62-11.4-11.19.26-38.51.1-77.03-.15-115.49,0-3.9-.77-8.83-3.13-11.55-26.34-29.89-49.81-61.72-69.94-96.08-1.54-2.62-5.29-5.08-8.27-5.44-43.44-5.8-86.94-11.14-130.33-16.89-9.09-1.18-17.97-3.7-28.24-5.91,2.41-5.6,3.65-9.96,5.91-13.66,14.74-24.08,28.7-48.73,44.88-71.79,15.51-22.13,33.02-43.03,55.46-58.69,6.21-4.36,8.47-8.93,8.27-16.28-1.34-45.75,6.21-90.27,20.08-133.92-104.55,6.62-200.52,42.26-281.92,97.98,3.03,6.68,4.67,14.12,4.67,21.88,0,29.68-24.03,53.71-53.71,53.71-11.55,0-22.29-3.65-31.02-9.86C28.39,487.58-44.94,721.33,28.95,942.19c5.7,18.02,12.27,35.69,19.72,52.89,5.14-6.37,13.04-10.42,21.88-10.42,15.61,0,28.29,12.63,28.29,28.24s-12.43,27.99-27.83,28.24c283.87,529.01,1104.4,346.1,1113.03-278.99,0-63.37-9.96-124.37-28.45-181.63ZM461.02,254.14c-2.82,3.18-4.57,5.29-6.47,7.29-38.82,40.41-74.36,83.39-101.67,132.59-7.96,14.43-15.25,29.27-22.59,44.01-1.9,3.8-3.24,7.09-8.58,4.88-27.93-11.71-55.92-23.26-83.86-34.97-3.24-1.39-6.06-3.8-9.6-6.01,31.32-45.86,179.27-140.08,232.77-147.79ZM81.53,718.87c7.09-77.13,30.91-148.76,70.2-215.42,6.83-11.66,14.22-22.95,21.26-34.51,3.18-5.14,6.47-6.26,12.58-3.54,32.35,14.12,65.01,27.73,97.57,41.39,5.19,2.16,10.68,3.65,15.56,5.29-7.45,30.5-15.15,59.77-21.57,89.3-8.27,37.9-12.07,76.41-13.04,115.23-.31,12.53-.1,12.58-12.22,12.58-53.46.05-106.96-.05-160.47.26-8.16.05-10.68-1.69-9.86-10.58ZM168.01,1063.22c-40.1-55.3-67.37-116.1-78.98-183.58-3.54-20.64-5.7-41.54-8.42-62.34v-.1c-.62-4.57,2.88-8.73,7.5-8.88,55.1-1.54,110.04.31,165.14-.56,8.11-.05,10.63,2.26,10.83,10.58,1.64,67.06,12.38,132.59,35.64,195.7,2.36,6.42.46,8.73-5.65,11.04-36.82,13.71-73.59,27.63-110.04,42.26-7.55,3.03-11.14,2.67-16.02-4.11ZM223.11,1129.93c6.93-3.65,12.32-7.19,18.23-9.45,26.14-9.81,52.43-19.1,78.52-28.96,6.93-2.62,10.42-1.18,14.28,5.29,17.36,28.76,34.2,57.98,53.46,85.4,22.39,31.99,48.68,60.95,78.31,86.63,2.26,1.9,4.93,3.29,7.39,4.93,3.9,2.62,5.7,4.47,6.06,4.57-96.08-24.34-185.79-75.85-256.24-148.4ZM562.9,1228.63c0,2.36-.41,4.72-.62,7.09-30.71-4.26-143.63-135.41-148.25-171.31,7.24-.36,14.38-.46,21.52-.77,39.54-2.52,79.08-4.78,118.62-7.29,5.65-.36,8.93.26,8.88,7.29-.21,55-.1,109.99-.15,164.99ZM551.39,984.55c-54.33,2.21-108.35,7.14-161.75,17.51-6.11,1.18-7.6-2-8.73-6.21-7.45-27.73-16.64-55.2-21.57-83.39-5.49-31.53-7.04-63.73-10.53-95.62-.77-7.14,1.64-9.29,8.83-9.24,65.52.26,131,.21,196.52.31,2.62,0,4.98.05,8.68.05l.15,10.17c.1,51.35.21,102.75.26,154.1.05,12.02-.05,11.86-11.86,12.32ZM552.88,729.44c-64.65-.41-129.25-.41-193.85-.05-8.58.05-10.58-2.72-10.32-10.78,1.59-58.8,11.86-116.16,28.14-172.59,2.26-7.86,4.88-10.68,14.38-8.37,50.84,12.38,102.8,17.51,154.87,21.77,5.34.46,10.63,1.23,16.84,2v9.35c.05,49.3-.05,98.59.31,147.84.05,7.96-1.69,10.89-10.37,10.83ZM651.01,1233.55c-.21-3.8-.05-7.09-.05-9.55-.1-52.89-.05-105.83-.21-158.73,0-5.39.31-9.45,7.5-9.09,45.03,2,90.12,3.8,135.16,5.6-35.07,66.24-83.55,122.88-142.4,171.77ZM731.17,1273.71c1.49-1.8,2.77-3.75,4.42-5.29,53.76-50.12,99.16-106.91,135.26-171,3.49-6.16,6.98-7.81,13.51-5.03,22.95,9.65,46.01,18.95,69.02,28.5,2.41.98,4.52,2.72,8.22,4.93-64.75,69.89-141.93,117.34-230.41,147.89Z"/><path class="cls-1" d="M1189.58,213.73c-21.88-70.71-64.39-124.68-125.4-162.99-6.73-4.26-13.71-8.32-20.9-12.17-55.2-29.68-114.31-42.98-176.49-37.28-50.99,4.67-98.34,21.93-140.8,51.35-60.75,42.06-100.9,98.85-119.7,170.18-11.04,42.11-10.78,84.88-4.31,127.86,6.42,42.31,22.13,80.88,44.57,116.98,18.18,29.32,40.98,54.64,65.78,78.36,42.98,41.13,75.23,90.27,104.86,141.37,20.9,36.1,40.26,69.63,64.14,107.53,7.34,11.71,23.78,33.17,23.78,33.17l70.4-104.55s79.85-140.91,137.93-199.45c43.39-43.85,71.79-96.69,82.93-157.9,9.35-51.25,8.68-102.44-6.78-152.46ZM898.47,441.47c-78.67,0-142.45-63.73-142.45-142.45s63.78-142.45,142.45-142.45,142.5,63.78,142.5,142.45-63.78,142.45-142.5,142.45Z"/><path class="cls-2" d="M1064.18,50.74c61,38.31,103.52,92.28,125.4,162.99,15.46,50.02,16.12,101.21,6.78,152.46-11.14,61.21-39.54,114.05-82.93,157.9-58.08,58.54-137.93,199.45-137.93,199.45l-70.4,104.55v-261.99s182.37-39.4,222.62-199.29c59.13-231.08-63.54-316.07-63.54-316.07Z"/></svg>