<svg width="103" height="103" xmlns="http://www.w3.org/2000/svg" xmlns:svg="http://www.w3.org/2000/svg">
 <defs>
  <radialGradient cx="0" cy="0" gradientTransform="translate(96.0084 26.5789) scale(68.3456 68.1672)" gradientUnits="userSpaceOnUse" id="paint0_radial_6023_298" r="1">
   <stop stop-color="#1FB7EF"/>
   <stop offset="0.88" stop-color="#8A3BCC"/>
  </radialGradient>
  <clipPath id="clip0_6023_298">
   <rect fill="white" height="103" id="svg_1" width="623"/>
  </clipPath>
 </defs>
 <g class="layer">
  <title>Layer 1</title>
  <path d="m76.5,29.92c5.66,-2.98 12.04,-5.43 18.57,-7.1c4.52,-1.16 9.1,-1.94 13.01,-2.23c-2.02,3.03 -4.7,6.36 -7.69,9.54c-4.76,5.05 -10.16,9.57 -15.7,13.15c-0.71,-0.66 -1.37,-1.35 -1.98,-2.06c7.38,-3.93 15.2,-11.86 16.53,-14.28c-12.12,7.77 -17.11,10.38 -18.84,11.2c-1.9,-2.93 -3.13,-5.89 -3.9,-8.22zm11.78,13.69c0,0 0,0 0,0c-1.23,0.86 -2.5,1.7 -3.81,2.5c-0.01,-0.01 -0.01,-0.01 -0.02,-0.02c0,0 0,0 0,0c-4.01,2.53 -8.51,4.76 -13.54,6.46l-0.89,6.38c2.05,-0.43 3.89,-0.53 5.28,-0.5c-2.09,3.92 -7.71,11.14 -18.17,11.81l-0.55,-0.94l-0.52,-0.89c1.13,-1.72 2.39,-3.16 3.72,-4.35l0,-0.01c1.26,-1.13 3.26,-2.7 5.97,-4.08c-2.28,0.29 -4.2,0.86 -5.64,1.58l0.86,-6.51c-1.67,0.28 -3.38,0.51 -5.13,0.67l-7.44,9.7l0.58,-7.66l-9.45,8.57l5.34,9.23l30.95,0l15.48,-26.73l-3.02,-5.21l0,0zm4.81,-3.61l3.82,6.59l11.9,0l-7.93,-13.69c-2.34,2.39 -4.95,4.8 -7.79,7.1l0,0zm-19.3,-11.17c0,0 0,0 0,0c0,0 0,0 0,0zm-38.79,29.68l11.86,-4.82l-9.94,-2.92l14.51,-1.61c1.1,-1.61 2.24,-3.12 3.4,-4.55l-0.01,-0.01c0.79,-0.97 1.85,-2.23 2.77,-3.17c-1.36,0.09 -3.38,1.16 -4.76,2.37l-6.38,-2.59c-1.7,0.56 -3.57,0.95 -5.64,1.08l-0.52,-0.89l-0.54,-0.94c5.74,-8.74 14.82,-10.05 19.26,-9.93c-0.65,1.22 -1.65,2.76 -3.04,4.33l5.93,2.35c3.83,-3.42 7.84,-6.18 11.89,-8.39c0,0 -0.01,-0.01 -0.01,-0.01c1.51,-0.84 3.03,-1.63 4.57,-2.36l-2.53,-4.36l-30.95,0l-15.48,26.73l5.61,9.69zm48.83,-34.44c3.41,-1.35 6.79,-2.43 10.02,-3.29l-3.9,-6.74l-8.93,5.13l2.83,4.89c0,0 -0.01,0 -0.02,0.01l0,0zm-28.39,24.71c0.4,0.85 1.05,1.54 1.05,1.54c0,0 11.88,-8.61 19.21,-13.45c0,0 -1.34,-2.8 -1.63,-4.33c0,0 -9.86,5.83 -18.63,16.24zm-15.61,-29.61l-8.93,-5.13l-18.86,32.55l11.9,0l15.89,-27.42l0,0zm-27.49,32.65l18.87,32.55l8.93,-5.13l-15.9,-27.41l-11.9,0l0,-0.01zm68.37,27.42l8.93,5.13l18.87,-32.55l-11.9,0l-15.9,27.42l0,0zm-30.14,-30.15c0.56,5.77 4.87,7.89 4.87,7.89c0,0 5.58,2.37 0.56,-1.27c-3.96,-2.88 -4.2,-7.29 -4.2,-7.29c0,0 -1.99,-7.03 -1.23,0.67z" fill="url(#paint0_radial_6023_298)" id="svg_3" transform="translate(-9 2)"/>
 </g>
</svg>