<svg id="Layer_1" data-name="Layer 1" xmlns="http://www.w3.org/2000/svg" xmlns:xlink="http://www.w3.org/1999/xlink" width="70" height="70" shape-rendering="geometricPrecision" viewBox="0 0 69 63.66"><defs><style>.cls-1{fill:#732617;}.cls-2{fill:#8d381f;}.cls-3{fill:url(#linear-gradient);}.cls-4{fill:url(#linear-gradient-2);}.cls-5{fill:url(#linear-gradient-3);}.cls-6{fill:url(#linear-gradient-4);}.cls-7{fill:url(#linear-gradient-5);}.cls-8{fill:url(#linear-gradient-6);}.cls-9{fill:#ff1212;}.cls-10{fill:#fff;}.cls-11{fill:url(#linear-gradient-7);}.cls-12{fill:url(#linear-gradient-8);}.cls-13{fill:url(#linear-gradient-9);}.cls-14{fill:url(#linear-gradient-10);}.cls-15{fill:url(#linear-gradient-11);}.cls-16{fill:url(#linear-gradient-12);}.cls-17{fill:url(#linear-gradient-13);}.cls-18{fill:url(#linear-gradient-14);}.cls-19{fill:url(#linear-gradient-15);}.cls-20{fill:url(#linear-gradient-16);}.cls-21{fill:url(#linear-gradient-17);}.cls-22{fill:url(#linear-gradient-18);}.cls-23{fill:url(#linear-gradient-19);}.cls-24{fill:url(#linear-gradient-20);}.cls-25{fill:url(#linear-gradient-21);}.cls-26{fill:url(#linear-gradient-22);}.cls-27{fill:url(#linear-gradient-23);}.cls-28{fill:url(#linear-gradient-24);}.cls-29{fill:url(#linear-gradient-25);}.cls-30{fill:url(#linear-gradient-26);}.cls-31{fill:url(#linear-gradient-27);}.cls-32{fill:#0066b3;}.cls-33{fill:#3d140f;}.cls-34{fill:#231f20;}.cls-35{fill:url(#linear-gradient-28);}.cls-36{fill:url(#linear-gradient-29);}.cls-37{fill:none;}</style><linearGradient id="linear-gradient" x1="34.43" y1="7.51" x2="29.85" y2="7.46" gradientUnits="userSpaceOnUse"><stop offset="0" stop-color="#5eea03"/><stop offset="0.22" stop-color="#51f007"/><stop offset="0.7" stop-color="#39fb0f"/><stop offset="1" stop-color="#30ff12"/></linearGradient><linearGradient id="linear-gradient-2" x1="36.82" y1="14.15" x2="34.91" y2="11.92" xlink:href="#linear-gradient"/><linearGradient id="linear-gradient-3" x1="33.2" y1="12.27" x2="32.91" y2="9.96" xlink:href="#linear-gradient"/><linearGradient id="linear-gradient-4" x1="30.49" y1="9.57" x2="29.39" y2="7.17" xlink:href="#linear-gradient"/><linearGradient id="linear-gradient-5" x1="27.94" y1="8.62" x2="24.32" y2="6.51" xlink:href="#linear-gradient"/><linearGradient id="linear-gradient-6" x1="27.55" y1="4.65" x2="23.5" y2="6.88" xlink:href="#linear-gradient"/><linearGradient id="linear-gradient-7" x1="37.73" y1="64.79" x2="41.8" y2="64.79" xlink:href="#linear-gradient"/><linearGradient id="linear-gradient-8" x1="27.79" y1="58.11" x2="31.11" y2="58.11" xlink:href="#linear-gradient"/><linearGradient id="linear-gradient-9" x1="31.76" y1="59.31" x2="33.41" y2="59.31" xlink:href="#linear-gradient"/><linearGradient id="linear-gradient-10" x1="28.79" y1="60.59" x2="32.26" y2="60.59" xlink:href="#linear-gradient"/><linearGradient id="linear-gradient-11" x1="35.03" y1="61.45" x2="36.9" y2="61.45" xlink:href="#linear-gradient"/><linearGradient id="linear-gradient-12" x1="30.87" y1="63.25" x2="35.39" y2="63.25" xlink:href="#linear-gradient"/><linearGradient id="linear-gradient-13" x1="37.26" y1="61.74" x2="41.77" y2="61.74" xlink:href="#linear-gradient"/><linearGradient id="linear-gradient-14" x1="17.62" y1="56.1" x2="21.71" y2="56.1" xlink:href="#linear-gradient"/><linearGradient id="linear-gradient-15" x1="20.66" y1="52.55" x2="22.75" y2="52.55" xlink:href="#linear-gradient"/><linearGradient id="linear-gradient-16" x1="23.08" y1="54.55" x2="26.35" y2="54.55" xlink:href="#linear-gradient"/><linearGradient id="linear-gradient-17" x1="28.04" y1="51.4" x2="31.16" y2="51.4" xlink:href="#linear-gradient"/><linearGradient id="linear-gradient-18" x1="29.29" y1="48.65" x2="31.76" y2="48.65" xlink:href="#linear-gradient"/><linearGradient id="linear-gradient-19" x1="25.53" y1="51.03" x2="27.2" y2="51.03" xlink:href="#linear-gradient"/><linearGradient id="linear-gradient-20" x1="15.69" y1="52.68" x2="18.12" y2="52.68" xlink:href="#linear-gradient"/><linearGradient id="linear-gradient-21" x1="57.17" y1="24" x2="59.25" y2="24" xlink:href="#linear-gradient"/><linearGradient id="linear-gradient-22" x1="52.91" y1="22.99" x2="55.95" y2="22.99" xlink:href="#linear-gradient"/><linearGradient id="linear-gradient-23" x1="52.61" y1="26.28" x2="54.43" y2="26.28" xlink:href="#linear-gradient"/><linearGradient id="linear-gradient-24" x1="48.65" y1="27.38" x2="50.57" y2="27.38" xlink:href="#linear-gradient"/><linearGradient id="linear-gradient-25" x1="45.87" y1="26.08" x2="48.86" y2="26.08" xlink:href="#linear-gradient"/><linearGradient id="linear-gradient-26" x1="49.37" y1="25.07" x2="51.93" y2="25.07" xlink:href="#linear-gradient"/><linearGradient id="linear-gradient-27" x1="56.79" y1="20.12" x2="60.11" y2="20.12" xlink:href="#linear-gradient"/><linearGradient id="linear-gradient-28" x1="29.37" y1="19.16" x2="58.17" y2="19.16" gradientUnits="userSpaceOnUse"><stop offset="0" stop-color="#5eea03"/><stop offset="0" stop-color="#4fea08"/><stop offset="0" stop-color="#37ea10"/><stop offset="0" stop-color="#2eea13"/></linearGradient><linearGradient id="linear-gradient-29" x1="33.13" y1="36" x2="47.67" y2="36" xlink:href="#linear-gradient-28"/></defs><title>dCrops Logo gdv</title><path class="cls-1" d="M20.36,16.52c-.95.12-1.26,0-2,.1s-3.25-.43-3.64-.35-1.8.27-1.8.27c-1.33.51-2.13.13-2.85,1.06l-.09.12h0a28,28,0,0,0-2.17,3.54c1.15.13,2.31.25,2.89.25a12.13,12.13,0,0,1,1.49.25l-1.63.55c-2.64.59-3.38.25-3.38.25A27.78,27.78,0,0,0,4.74,32.7l1.17.12,2.46,5.07S5.68,39.44,5.2,39.3A28.14,28.14,0,0,0,9.86,50.22a9.67,9.67,0,0,0,4.35.54c1.76-.35,3.32-.7,4.37-.95A4,4,0,0,1,21,50c.49.21-1.65-.64-1.84-.3-3.35.56,2.25.29-.54,1.18-.28.09-.58.18-.9.25.47,1.07.88,3-1.3,3.78-.31,0-1.48-1.68-.12-3.51a28.73,28.73,0,0,1-5.45.29A33.19,33.19,0,0,0,31.39,63c.65-.66,2-1.4,4-.1a.77.77,0,0,1-.24.41h.6a32.36,32.36,0,0,0,6.27-.6,2.86,2.86,0,0,1,.46-.55,2.91,2.91,0,0,1-1.16-.36,3.21,3.21,0,0,0-1.21-.93c-.29-.29-.58-.61-.88-.94a6.4,6.4,0,0,1,4-.17A4.37,4.37,0,0,1,44,56.1a6.51,6.51,0,0,1,1.59,3.58,4.34,4.34,0,0,1,3.43-.5,4.14,4.14,0,0,1-2,2.18A31.33,31.33,0,0,0,53.66,58a17.34,17.34,0,0,1-3.52-1.37,18.31,18.31,0,0,0-3.78-.25,7.33,7.33,0,0,1,3.75-.47,36.17,36.17,0,0,1,5.33.81,29.78,29.78,0,0,0,6.94-7.58c0-.88-2.61-.09-4.77.07a8.17,8.17,0,0,1-3.3-.58s1.72-.09,3.08-.19c4.94-.72,6.75-2.49,6.8-2.6a27.43,27.43,0,0,0,2.57-10.55,2.71,2.71,0,0,0-.88-.6c-.56-.08-1.43-2-1.43-2l2.19-1.44A27.58,27.58,0,0,0,64.91,24c-.41-.62-.82-1.27-1.16-1.89-.48-.84-2-1.38-3.75-1.74.14.38.14.7.06.77A2.06,2.06,0,0,1,57.14,20c-2.53-.26-4.81-.25-4.81-.25a11,11,0,0,1,4.58-.33,1.46,1.46,0,0,1-.11-.56,4.58,4.58,0,0,1,1.18,0,2.9,2.9,0,0,1,1.28.53,5,5,0,0,0,2.66-1.06A31.52,31.52,0,0,0,35.75,4.83,33.08,33.08,0,0,0,28,5.74a3.83,3.83,0,0,1-2.77.8c-.48.16-1,.33-1.42.52,1.24.35,2,1.45,2.79,2.71a6.36,6.36,0,0,1-4-.48,4.35,4.35,0,0,1-1.32,3.5,6.45,6.45,0,0,1-1-3.78,3.82,3.82,0,0,1-1.11.3A30.82,30.82,0,0,0,13,14.23h0s.31,1.68,5.38,1.79Z" transform="translate(-0.5 -3.17)"/><path class="cls-2" d="M36.39,61.34a5.8,5.8,0,0,0-3.13-1,4.34,4.34,0,0,0-2.4.72,31.17,31.17,0,0,1-10.08-3.57q-1.23-.69-2.37-1.47c-.62-.44-.69-2.2-.48-2.68.27-.64.92.07,2.06-.8a9.58,9.58,0,0,1,1.14-.06l1.21,0h.11a3.21,3.21,0,0,0,1.78-.93l.67-.71a10.93,10.93,0,0,0-3.14-2.54,6.55,6.55,0,0,0-2.28-.47,5.9,5.9,0,0,0-1.33.16c-1,.23-2.56.59-4.31.94a2.72,2.72,0,0,1-.53,0,26.3,26.3,0,0,1-3.73-.67c-1.68-2.51-1.46-4.91-2.19-7.78l.52-.25c.73-.37,1.36-.74,1.39-.76l1.51-.86L7.14,31.07l-.38,0A25.81,25.81,0,0,1,8.4,24.52,16,16,0,0,0,11,24.14l3.16-1.27a1.87,1.87,0,0,0,1.07-1.15h0a1.22,1.22,0,0,0-.36-1.31c-.47-.41-1-.93-1.44-.93-.86,0-1.87.08-2.44.13a2.34,2.34,0,0,1,.89-.78l0,0,.06,0,.12-.05c.1,0,.2-.08.31-.1.38-.08.4-.09,1-.25.38-.06,1.11-.16,1.54-.24l1.08.14a16.52,16.52,0,0,0,2.19.23,2.42,2.42,0,0,0,.39,0,5.82,5.82,0,0,1,.59,0h0a10.2,10.2,0,0,0,1.39-.08,25.27,25.27,0,0,1,2.63-.07,7.85,7.85,0,0,0,2.09-.63l1.32-.94c-.1,0-4.27-2.73-5.82-3l2.07-.55c.66-.79.5.23,1-.42a6.56,6.56,0,0,1,1.4-1c.47-.26,1.09,0,1.64-.15l2.76-.48-1.5-2.37-.47-.71L28,7.93a10.76,10.76,0,0,1,2.71-.83,30.85,30.85,0,0,1,5-.4c2.54,0,4.15-1.28,7.5.91,2,1.34,4.63,1.46,6.77,2.58a29.13,29.13,0,0,1,8.61,6.9L58.27,17a7.19,7.19,0,0,0-1-.07,5.74,5.74,0,0,0-.71,0l-.88.09-.3.22c-.18,0-.31.15-.49.15-.9,0-3.08,2.15-4.44,2.5l2.11.92h0a12.72,12.72,0,0,0,3.44.9,3.78,3.78,0,0,0,3,1.52,4.42,4.42,0,0,0,1.79-.41l.29-.13.1-.1a2.94,2.94,0,0,1,.92.45c.31.55,1.42,1.31,1.84,1.95.66,1.75.39,3.4.66,5.25L62.08,32l.67,1.46c0,.06.27.58.6,1.14a4.29,4.29,0,0,0,1.48,1.65c-.24,2.92-.41,6.47-1.62,9.16-.48.36-2.64.65-6,1.15a23.33,23.33,0,0,0-4.67,1.65l0,.11a4.62,4.62,0,0,0,2.56,2.28,6.86,6.86,0,0,0,2.11.48,5,5,0,0,0,.57,0c.31,0,2.64-1.13,2.94-1.17a66.08,66.08,0,0,1-6,5.54c-1.47-.29-2.92-1.34-4.47-1.39A9.77,9.77,0,0,0,49,53.94c-1.39,0-2.73,1-3.68,1.44l.16-.7h0L44.42,53.5c-.32-.36-.48,1.49-.72,1.9l-1.33-.25a8.54,8.54,0,0,0-1,2.51h0l-3.49,3.53c0,.06-.17,0-.11.09-.48,0-.69.15-1.17.16Zm-18.2-47.2A12.91,12.91,0,0,1,16,13.92a28.46,28.46,0,0,1,2.83-2.15,12,12,0,0,0,.85,1.92l.14.26C19.1,14,18.5,14.09,18.19,14.14Z" transform="translate(-0.5 -3.17)"/><path class="cls-1" d="M7.58,33.22,4.74,32.7a23.55,23.55,0,0,0,.46,6.6" transform="translate(-0.5 -3.17)"/><polygon class="cls-1" points="64.87 29.7 66.14 28.05 66.27 30.9 64.87 29.7"/><path class="cls-1" d="M16.41,50.36a13.87,13.87,0,0,1,2.48-.1.14.14,0,0,1,.07.26,2.8,2.8,0,0,1-1.14.52l1.92-.41s.13-.62,0-.62-1-.12-1-.12L17.9,50Z" transform="translate(-0.5 -3.17)"/><path class="cls-1" d="M54,56.38l-3.42.45-4.44-.23-.63-1.92A12.56,12.56,0,0,1,49,53.94C50.26,54,54,56.38,54,56.38Z" transform="translate(-0.5 -3.17)"/><path class="cls-1" d="M61.65,47.27c-.24.15-2.64,1.3-2.64,1.3a12.94,12.94,0,0,1,2.8.07c.37.21-.47.53-.66.58s-5.41.66-5.52.66-2.32-.14-2.25-.44a10.18,10.18,0,0,0-.11-1.58l4.83-.46Z" transform="translate(-0.5 -3.17)"/><path class="cls-1" d="M62.38,49.1c-.28,0-3.9-.25-3.9-.25A10.37,10.37,0,0,1,62.37,47l-1.3.8C61.72,48.16,62.35,48.54,62.38,49.1Z" transform="translate(-0.5 -3.17)"/><path class="cls-1" d="M36,44.23s1.71-.53,3.3-1.11.17-1.21,2.54-.63a17.76,17.76,0,0,0,3.54.75A12.47,12.47,0,0,1,49,44.71a22,22,0,0,0-4-.8,6.1,6.1,0,0,1-2.54-.16c-1.42-.36-3.64-.21-4.27.32s-3.29.64-3.29.64Z" transform="translate(-0.5 -3.17)"/><path class="cls-1" d="M40.32,42.3c-.25.11-4.74-2.62-4.74-1.87s-2.7-.79-3.25-.28c0,0,1.62.17,2,.82s.39,1.11,1.4,1.33a11,11,0,0,0,2.64,0c.71,0,.76.19.91.46s1.19.24,1.19.24Z" transform="translate(-0.5 -3.17)"/><path class="cls-1" d="M21.76,48.3s2.57,1.47,4.61,1.08,7.06-.66,8.55,1.06c0,0-2.8-1.26-4.34-.73s1.55,3,1.55,3,1.11,0-2.53-1.28-4.07-1.25-4.89-1a1,1,0,0,1-1.21-.58Z" transform="translate(-0.5 -3.17)"/><path class="cls-1" d="M20.82,21.73a16,16,0,0,0,4.71-.86c2.09-.8,4.76,1,6.8.86s3.46,2.14,3.46,2.14a14.17,14.17,0,0,0-3.1-.88c-1.35-.15-2-.9-3.95-.72s-3.6,1.09-6,1.31c0,0,3.5-.64,3.68-1.52C26.51,21.37,20.82,22,20.82,21.73Z" transform="translate(-0.5 -3.17)"/><path class="cls-1" d="M16.2,20.18H16l-.37,0c-.55-.07-1.34-.2-1.34-.2l-.32.27a3.4,3.4,0,0,0,.3.16,1.26,1.26,0,0,0-.44.3l.87.2v.78L13.84,23c1.06-.21,2.14-1.79,4.08-2.12s2.63.11,3.79-.7C21.71,20.17,17.94,20.33,16.2,20.18Z" transform="translate(-0.5 -3.17)"/><path class="cls-1" d="M10.51,28s4.77,1.36,7.61,0,4-.53,5.69-.62,2.74.19,3.39.13,2.48.93,2.71.87a7.1,7.1,0,0,0-3.27,0,30.59,30.59,0,0,1-4.93.7,26.35,26.35,0,0,0-6,1,5.76,5.76,0,0,1-3.6.13c-1.11-.27,1.43-1.08,1.43-1.08Z" transform="translate(-0.5 -3.17)"/><path class="cls-1" d="M8,43.48a5.49,5.49,0,0,0,3.57.43c1.5-.55,4.2-.23,4.83-.43a10.32,10.32,0,0,0-3.64,1.23c-1,.79-2.85,1.07-3.68.41A3.27,3.27,0,0,1,8,43.48Z" transform="translate(-0.5 -3.17)"/><path class="cls-1" d="M63.82,41.55a4.68,4.68,0,0,1-2.93.71c-1.51-.25-2.65-.63-4.1,0,0,0,2.79.23,3.32.74s-1.18.2-2.14.83c0,0,4.85-1.21,5.85-.35Z" transform="translate(-0.5 -3.17)"/><path class="cls-1" d="M47,8.81a4.3,4.3,0,0,1-2.83.45c-1.9-.2-1.11-1.11-2.54,0a15.1,15.1,0,0,1-4.16,1.62,14.79,14.79,0,0,1,3.38-.74c.64.12,1.12-.38,1.11,1.33,0,0-.08-2,1.46-1.74s5.51.57,6.19-.47Z" transform="translate(-0.5 -3.17)"/><path class="cls-1" d="M43.55,52.33c-.95-.62-1-2.06-1.42-2.26s1.11,1.68.52,2.68l-.85,1.43Z" transform="translate(-0.5 -3.17)"/><path class="cls-1" d="M52.52,48.19s-1.54.24-3.52.46c0,0,2.78,0,3.15.44s-.27,1.37.16,1.93c0,0,.18-2.15.72-2Z" transform="translate(-0.5 -3.17)"/><path class="cls-1" d="M19.19,43.83A16.32,16.32,0,0,0,23.53,43c1.08-.59,3.67.13,4.51.48,0,0-1.17,0-2.18,0s0-.36-1.73.35a8.46,8.46,0,0,1-3.31.64Z" transform="translate(-0.5 -3.17)"/><path class="cls-1" d="M38.71,25.49s1.94-1,3.74-1.76a7.75,7.75,0,0,1,2.6-.74c1.42.09,2.13.94,2.77,0s.83,0,.83,0-1.55,1.81-2.26,1.66.3-.37-1.34-.62-4.58,1.65-5.28,1.46A1.63,1.63,0,0,0,38.71,25.49Z" transform="translate(-0.5 -3.17)"/><path class="cls-1" d="M30.87,56.1a19.53,19.53,0,0,0,3.64-.72c1.19-.46,2.56.55,3.22.72a16.35,16.35,0,0,1,2,.84,5.82,5.82,0,0,0-3.36-.84,13.8,13.8,0,0,1-3.28,0A15.53,15.53,0,0,0,30.87,56.1Z" transform="translate(-0.5 -3.17)"/><path class="cls-3" d="M30.91,7.46c0-.27,2.06-2.1,4.59,0C35.5,7.41,33.69,9.93,30.91,7.46Z" transform="translate(-0.5 -3.17)"/><path class="cls-4" d="M34.53,11.84a2.67,2.67,0,0,1,2.94,2.6S34.88,15,34.53,11.84Z" transform="translate(-0.5 -3.17)"/><path class="cls-5" d="M33,13.21a2.3,2.3,0,0,1,.09-3.48S35,11.17,33,13.21Z" transform="translate(-0.5 -3.17)"/><path class="cls-6" d="M30.63,10.47a2.3,2.3,0,0,1-1-3.32S31.82,7.91,30.63,10.47Z" transform="translate(-0.5 -3.17)"/><path class="cls-7" d="M24.54,6.86a5.51,5.51,0,0,0,.34.73,5.28,5.28,0,0,1,1,1.11,4.09,4.09,0,0,0,2.82.5C28.37,5.84,24.54,6.86,24.54,6.86Z" transform="translate(-0.5 -3.17)"/><path class="cls-8" d="M24.58,6.47a5.76,5.76,0,0,0,.69.07A3.83,3.83,0,0,0,28,5.74,3.63,3.63,0,0,0,29.2,3.33,4,4,0,0,0,24.58,6.47Z" transform="translate(-0.5 -3.17)"/><path class="cls-9" d="M26.64,9.77c-.81-1.26-1.55-2.36-2.79-2.71L23.8,7c1-.63,1.18-1.58,1.22-3-1.37.32-2.55.77-3,1.72a4,4,0,0,0-2.83-2.21A4.56,4.56,0,0,0,20,7a4,4,0,0,0-3.13,2,4.93,4.93,0,0,0,2.36.36A3.82,3.82,0,0,0,20.34,9a6.45,6.45,0,0,0,1,3.78,4.35,4.35,0,0,0,1.32-3.5A6.36,6.36,0,0,0,26.64,9.77Z" transform="translate(-0.5 -3.17)"/><circle class="cls-10" cx="21.26" cy="4.44" r="0.94"/><path class="cls-11" d="M41.8,62.86a4,4,0,0,1-4.06,3.86S37.26,63,41.8,62.86Z" transform="translate(-0.5 -3.17)"/><path class="cls-12" d="M31.11,59.18a2.67,2.67,0,0,1-3.32-2.09S30.26,56.11,31.11,59.18Z" transform="translate(-0.5 -3.17)"/><path class="cls-13" d="M32.37,57.58A2.31,2.31,0,0,1,32.84,61S30.77,59.91,32.37,57.58Z" transform="translate(-0.5 -3.17)"/><path class="cls-14" d="M28.79,60.44a2.31,2.31,0,0,1,3.47.25S30.74,62.49,28.79,60.44Z" transform="translate(-0.5 -3.17)"/><path class="cls-15" d="M35.18,59.89A2.32,2.32,0,0,1,36.75,63S34.42,62.62,35.18,59.89Z" transform="translate(-0.5 -3.17)"/><path class="cls-16" d="M35.39,62.91c-2-1.3-3.35-.56-4,.1a3.24,3.24,0,0,0-.52.69,3.28,3.28,0,0,0,4.28-.38A.77.77,0,0,0,35.39,62.91Z" transform="translate(-0.5 -3.17)"/><path class="cls-17" d="M37.26,60.84a3.61,3.61,0,0,1,4.51,1.63S38.15,64.1,37.26,60.84Z" transform="translate(-0.5 -3.17)"/><path class="cls-18" d="M17.62,55.09a2.9,2.9,0,0,1,4.09,2.2S18.5,58.11,17.62,55.09Z" transform="translate(-0.5 -3.17)"/><path class="cls-19" d="M20.86,54.27a2.57,2.57,0,0,1,1.54-3.43C22.55,51,23.69,53.34,20.86,54.27Z" transform="translate(-0.5 -3.17)"/><path class="cls-20" d="M23.08,54.11a2.19,2.19,0,0,1,3.27,1A2.42,2.42,0,0,1,23.08,54.11Z" transform="translate(-0.5 -3.17)"/><path class="cls-21" d="M28,51.61a2,2,0,0,1,3.12-.32A2.24,2.24,0,0,1,28,51.61Z" transform="translate(-0.5 -3.17)"/><path class="cls-22" d="M29.34,49.86a2.18,2.18,0,0,1,2.42-2.41A2.41,2.41,0,0,1,29.34,49.86Z" transform="translate(-0.5 -3.17)"/><path class="cls-23" d="M26,52.68a2.19,2.19,0,0,1,.88-3.3A2.33,2.33,0,0,1,26,52.68Z" transform="translate(-0.5 -3.17)"/><path class="cls-24" d="M17.73,51.1a1.94,1.94,0,0,0-.41-.66,5.37,5.37,0,0,0-1,.94c-1.4,1.85-.22,3.55.09,3.55C18.67,54.15,18.21,52.16,17.73,51.1Z" transform="translate(-0.5 -3.17)"/><path class="cls-25" d="M58.89,22.07a2.54,2.54,0,0,0-1.26,3.86S60.16,24.52,58.89,22.07Z" transform="translate(-0.5 -3.17)"/><path class="cls-26" d="M56,23.55a2.24,2.24,0,0,0-3-1.24C52.9,22.49,53.6,24.67,56,23.55Z" transform="translate(-0.5 -3.17)"/><path class="cls-27" d="M54.42,25.07a1.92,1.92,0,0,0-1.74,2.44A2.14,2.14,0,0,0,54.42,25.07Z" transform="translate(-0.5 -3.17)"/><path class="cls-28" d="M50.57,26.42a1.76,1.76,0,0,0-1.92,2A2,2,0,0,0,50.57,26.42Z" transform="translate(-0.5 -3.17)"/><path class="cls-29" d="M48.86,26.15a1.92,1.92,0,0,0-3-.07A2.12,2.12,0,0,0,48.86,26.15Z" transform="translate(-0.5 -3.17)"/><path class="cls-30" d="M51.92,25.89a1.92,1.92,0,0,0-2.55-1.57A2.12,2.12,0,0,0,51.92,25.89Z" transform="translate(-0.5 -3.17)"/><path class="cls-31" d="M56.94,19.52a1.93,1.93,0,0,1-.14-.67,4.58,4.58,0,0,1,1.18,0c2,.32,2.28,2.11,2.08,2.3C58.19,22,57.27,20.47,56.94,19.52Z" transform="translate(-0.5 -3.17)"/><path class="cls-32" d="M49,59.18a4.34,4.34,0,0,0-3.43.5A6.51,6.51,0,0,0,44,56.1a4.37,4.37,0,0,0-.74,3.67,6.4,6.4,0,0,0-4,.17c.3.33.59.65.88.94a3.21,3.21,0,0,1,1.21.93,2.91,2.91,0,0,0,1.16.36c-.86.79-.92,1.76-.72,3.2,1.3-.53,2.39-1.17,2.73-2.19a3.91,3.91,0,0,0,3.14,1.73,4.55,4.55,0,0,0-1.4-3.3A4,4,0,0,0,49,59.18Z" transform="translate(-0.5 -3.17)"/><circle class="cls-10" cx="21.26" cy="4.44" r="0.94"/><circle class="cls-10" cx="43.9" cy="58.11" r="0.94"/><path class="cls-33" d="M62.38,49.22h0a.12.12,0,0,1-.08-.14c.15-.47-.85-1-1.24-1.17a.12.12,0,0,1-.07-.1.12.12,0,0,1,0-.1,22,22,0,0,0,3.09-2A27.58,27.58,0,0,0,66.65,35.3a3.08,3.08,0,0,0-.79-.54c-.6-.09-1.42-1.85-1.51-2a.11.11,0,0,1,0-.14l2.13-1.4a27.5,27.5,0,0,0-1.71-7.09c-.45-.68-.84-1.32-1.16-1.88S62.09,21,60.16,20.55c.08.29.1.59,0,.7l0,0a2.12,2.12,0,0,1-2,0,2.8,2.8,0,0,1-1-1.19c-2.47-.24-4.71-.24-4.73-.24h0a.12.12,0,0,1-.11-.09.12.12,0,0,1,.08-.13A9.2,9.2,0,0,1,56,19.25l.8,0c-.06-.21-.1-.43,0-.5a.11.11,0,0,1,.09-.05,4.34,4.34,0,0,1,1.2,0,2.86,2.86,0,0,1,1.3.53,4.77,4.77,0,0,0,2.47-1,31.33,31.33,0,0,0-26-13.37,32.75,32.75,0,0,0-7.66.9,4,4,0,0,1-2.81.81l-1.1.4a5.93,5.93,0,0,1,2.55,2.66.11.11,0,0,1,0,.11.1.1,0,0,1-.08.06,6.57,6.57,0,0,1-3.86-.4,4.62,4.62,0,0,1-1.38,3.38.1.1,0,0,1-.1,0,.12.12,0,0,1-.09-.05,6.81,6.81,0,0,1-1-3.67,3.94,3.94,0,0,1-.94.24,30.44,30.44,0,0,0-6.19,4.84,1.72,1.72,0,0,0,.75.75,9.34,9.34,0,0,0,4.5.89.12.12,0,0,1,.11.12.11.11,0,0,1-.11.11c-5.1-.11-5.48-1.81-5.49-1.88a.11.11,0,0,1,0-.1,31,31,0,0,1,6.3-4.94h0a3.54,3.54,0,0,0,1.09-.3.11.11,0,0,1,.11,0,.1.1,0,0,1,0,.1,6.2,6.2,0,0,0,.9,3.57,4.07,4.07,0,0,0,1.19-3.28.13.13,0,0,1,.05-.11.11.11,0,0,1,.11,0,6.31,6.31,0,0,0,3.75.5c-.82-1.28-1.51-2.21-2.63-2.53a.12.12,0,0,1-.09-.1A.12.12,0,0,1,23.8,7l1.43-.52h0A3.74,3.74,0,0,0,28,5.65a.05.05,0,0,1,0,0,33.34,33.34,0,0,1,15.72.06,32.23,32.23,0,0,1,7.21,2.75A30.57,30.57,0,0,1,62,18.28a.1.1,0,0,1,0,.09.15.15,0,0,1-.05.07,5.17,5.17,0,0,1-2.71,1.07.08.08,0,0,1-.08,0A2.73,2.73,0,0,0,58,19a4.51,4.51,0,0,0-1.05,0,2.57,2.57,0,0,0,.1.42.14.14,0,0,1,0,.11.13.13,0,0,1-.1,0l-1-.05a8.53,8.53,0,0,0-2.71.17c.9,0,2.37.08,3.92.24a.1.1,0,0,1,.09.06A1.94,1.94,0,0,0,60,21.08a1.05,1.05,0,0,0-.09-.64.14.14,0,0,1,0-.11.12.12,0,0,1,.11,0c2.11.42,3.39,1,3.82,1.8.32.56.71,1.19,1.16,1.88v0a27.69,27.69,0,0,1,1.74,7.22.11.11,0,0,1,0,.11l-2.11,1.39c.34.71,1,1.77,1.3,1.82a2.94,2.94,0,0,1,1,.63.15.15,0,0,1,0,.09,28.08,28.08,0,0,1-2.58,10.6l0,0a18.7,18.7,0,0,1-3,1.9c.44.21,1.36.74,1.18,1.36A.12.12,0,0,1,62.38,49.22Z" transform="translate(-0.5 -3.17)"/><path class="cls-33" d="M10.73,21.62c-.5,0-1.48-.08-2.91-.24,0,0-.07,0-.08-.06a.11.11,0,0,1,0-.11,27.72,27.72,0,0,1,2.18-3.55h0l.05-.08,0,0a2.13,2.13,0,0,1,1.62-.79,5.81,5.81,0,0,0,1.29-.31h0s1.39-.19,1.78-.27a7.76,7.76,0,0,1,1.58.15,12,12,0,0,0,2.08.2,8.16,8.16,0,0,1,.82,0,7.61,7.61,0,0,0,1.15-.07.12.12,0,0,1,.13.1.11.11,0,0,1-.1.12,8,8,0,0,1-1.18.07,5.85,5.85,0,0,0-.8,0,13,13,0,0,1-2.13-.21,8.92,8.92,0,0,0-1.5-.15c-.38.07-1.64.25-1.79.27a5.81,5.81,0,0,1-1.32.32,1.92,1.92,0,0,0-1.48.7l0,0-.05.08h0A28.73,28.73,0,0,0,8,21.17c1.33.15,2.24.23,2.72.23a.11.11,0,0,1,0,.22Z" transform="translate(-0.5 -3.17)"/><path class="cls-33" d="M13.31,51a12.37,12.37,0,0,1-3.48-.63.09.09,0,0,1-.06,0,28.09,28.09,0,0,1-4.68-11,.11.11,0,0,1,0-.1.11.11,0,0,1,.11,0,10.74,10.74,0,0,0,3-1.34L5.84,32.93l-1.11-.11a.12.12,0,0,1-.1-.12A27.72,27.72,0,0,1,7.1,22.51a.12.12,0,0,1,.15-.05s.77.3,3.31-.26l1-.23.27-.15-1.4-.21a.11.11,0,0,1-.1-.12.11.11,0,0,1,.13-.1l1.74.26s.09,0,.09.09a.11.11,0,0,1-.05.12l-.59.31h0l-1.05.24a8.12,8.12,0,0,1-3.34.28,27.41,27.41,0,0,0-2.41,9.9l1.06.11s.08,0,.09.06l2.46,5.07a.11.11,0,0,1-.05.15s-.68.39-1.41.76a6,6,0,0,1-1.67.67A27.9,27.9,0,0,0,9.93,50.13a9.42,9.42,0,0,0,4.26.52,21.6,21.6,0,0,1,4.47-.58.11.11,0,1,1,0,.22,21.32,21.32,0,0,0-4.43.58A4.28,4.28,0,0,1,13.31,51Z" transform="translate(-0.5 -3.17)"/><path class="cls-33" d="M35.75,63.43h-.6a.12.12,0,0,1-.1-.07.11.11,0,0,1,0-.12,1,1,0,0,0,.19-.27c-1.89-1.17-3.1-.58-3.79.12a.1.1,0,0,1-.1,0,32.45,32.45,0,0,1-6-1.44,34.44,34.44,0,0,1-5.55-2.48,32.69,32.69,0,0,1-9-7.42.1.1,0,0,1,0-.12.1.1,0,0,1,.1-.06,29.25,29.25,0,0,0,5.44-.29.13.13,0,0,1,.11.06.11.11,0,0,1,0,.12,2.69,2.69,0,0,0-.43,2.7,1.35,1.35,0,0,0,.45.63,2.26,2.26,0,0,0,1.4-1.19,3.22,3.22,0,0,0-.19-2.43.12.12,0,0,1,0-.1.11.11,0,0,1,.07-.06c.33-.07.63-.16.89-.24a.11.11,0,1,1,.07.21c-.23.08-.49.15-.77.22a3.36,3.36,0,0,1,.14,2.49A2.49,2.49,0,0,1,16.49,55h0c-.2,0-.44-.3-.6-.61a2.86,2.86,0,0,1,.24-2.86,28.45,28.45,0,0,1-5,.26A32.88,32.88,0,0,0,31.35,62.89c.63-.62,2-1.41,4.1-.07a.22.22,0,0,1,0,.08.58.58,0,0,1-.12.31h.37a33,33,0,0,0,6.2-.59,2.48,2.48,0,0,1,.29-.37,3,3,0,0,1-1-.34l0,0A3.1,3.1,0,0,0,40.06,61l0,0c-.3-.3-.6-.63-.88-.94a.11.11,0,0,1,0-.11.12.12,0,0,1,.07-.07,6.58,6.58,0,0,1,3.88-.23,4.62,4.62,0,0,1,.81-3.56A.1.1,0,0,1,44,56a.13.13,0,0,1,.1,0,6.79,6.79,0,0,1,1.6,3.45A4.47,4.47,0,0,1,49,59.07a.09.09,0,0,1,.07.06.1.1,0,0,1,0,.09,4.64,4.64,0,0,1-1.19,1.64A30.8,30.8,0,0,0,53.41,58l-1.12-.33A5.68,5.68,0,0,1,50.6,57a.1.1,0,0,1,0-.15.12.12,0,0,1,.16,0,5.08,5.08,0,0,0,1.63.66c.37.1.79.22,1.35.41a.11.11,0,0,1,.07.1.09.09,0,0,1-.05.1A30.93,30.93,0,0,1,47,61.46a.1.1,0,0,1-.14-.06.12.12,0,0,1,.06-.14,4,4,0,0,0,1.94-2,4.15,4.15,0,0,0-3.21.51.11.11,0,0,1-.11,0,.11.11,0,0,1-.06-.1A6.16,6.16,0,0,0,44,56.3a4.06,4.06,0,0,0-.64,3.43.13.13,0,0,1,0,.12.11.11,0,0,1-.11,0,6.28,6.28,0,0,0-3.78.11c.24.27.49.54.74.79a3.46,3.46,0,0,1,1.22.95,2.79,2.79,0,0,0,1.1.33.12.12,0,0,1,.09.08.1.1,0,0,1,0,.12,2.38,2.38,0,0,0-.44.52.08.08,0,0,1-.07,0A33.1,33.1,0,0,1,35.75,63.43Zm-.47-.51Z" transform="translate(-0.5 -3.17)"/><path class="cls-33" d="M55.44,56.8h0l-1.78-.34a.12.12,0,0,1-.09-.13.1.1,0,0,1,.13-.09l1.73.33A30,30,0,0,0,62.29,49a.11.11,0,0,1,.15,0,.11.11,0,0,1,0,.15,30,30,0,0,1-7,7.61A.11.11,0,0,1,55.44,56.8Z" transform="translate(-0.5 -3.17)"/><path class="cls-33" d="M20.36,16.64h0l-2.29-.51A.13.13,0,0,1,18,16a.11.11,0,0,1,.13-.08l2.3.51a.11.11,0,0,1,.08.14A.11.11,0,0,1,20.36,16.64Z" transform="translate(-0.5 -3.17)"/><path class="cls-1" d="M16.66,49.86v.44l2.82-.12,2.23.45s.2-1.25-.38-1.25H17.39Z" transform="translate(-0.5 -3.17)"/><path class="cls-33" d="M17.82,51.15a.12.12,0,0,1-.11-.1.11.11,0,0,1,.1-.12c1-.11,1.09-.31,1.11-.37s-.06-.18-.09-.2a10.08,10.08,0,0,0-3,.19.11.11,0,0,1-.13-.1.1.1,0,0,1,.09-.12,10.07,10.07,0,0,1,3.17-.17l0,0a.45.45,0,0,1,.18.44c-.08.27-.51.45-1.31.53Z" transform="translate(-0.5 -3.17)"/><path class="cls-33" d="M50.66,57a.11.11,0,0,1-.11-.09.11.11,0,0,1,.09-.13l3-.54a.11.11,0,0,1,0,.22l-3,.54Z" transform="translate(-0.5 -3.17)"/><path class="cls-34" d="M21.76,8.66h-.14a1,1,0,0,1-.9-1.18,1,1,0,0,1,1.17-.9,1.06,1.06,0,0,1,.91,1.18,1,1,0,0,1-.41.69A1,1,0,0,1,21.76,8.66Zm0-1.87a.82.82,0,1,0,.81.93h0a.83.83,0,0,0-.71-.93Z" transform="translate(-0.5 -3.17)"/><path class="cls-34" d="M33.31,8.66a3.78,3.78,0,0,1-2.47-1.12.09.09,0,0,1,0-.08c0-.2.44-.58.93-.82a3.48,3.48,0,0,1,3.84.69.12.12,0,0,1,0,.15,3.08,3.08,0,0,1-2,1.16ZM31.05,7.43a3.34,3.34,0,0,0,2.52,1,2.85,2.85,0,0,0,1.77-1,3.29,3.29,0,0,0-3.16-.72A2.31,2.31,0,0,0,31.05,7.43Zm0,0Z" transform="translate(-0.5 -3.17)"/><path class="cls-34" d="M37,14.59a2.5,2.5,0,0,1-1.47-.45,3.08,3.08,0,0,1-1.13-2.29.12.12,0,0,1,.07-.12,2.66,2.66,0,0,1,1.73.37,2.81,2.81,0,0,1,1.36,2.33.11.11,0,0,1-.09.12A2.8,2.8,0,0,1,37,14.59Zm-2.36-2.66a2.8,2.8,0,0,0,1,2,2.39,2.39,0,0,0,1.67.38,2.6,2.6,0,0,0-1.16-2A2.73,2.73,0,0,0,34.66,11.93Z" transform="translate(-0.5 -3.17)"/><path class="cls-34" d="M33,13.32H33a2.23,2.23,0,0,1-.78-1.4A2.51,2.51,0,0,1,33,9.65a.11.11,0,0,1,.15,0A2.32,2.32,0,0,1,34,11.2a2.76,2.76,0,0,1-.92,2.09A.11.11,0,0,1,33,13.32Zm.09-3.44a2.28,2.28,0,0,0-.7,2,2.33,2.33,0,0,0,.6,1.2,2.54,2.54,0,0,0,.79-1.84A2.18,2.18,0,0,0,33.12,9.88Z" transform="translate(-0.5 -3.17)"/><path class="cls-34" d="M30.63,10.58h0a2.24,2.24,0,0,1-1.19-1.07,2.51,2.51,0,0,1,.06-2.41A.12.12,0,0,1,29.62,7a2.29,2.29,0,0,1,1.3,1.21,2.73,2.73,0,0,1-.19,2.27A.11.11,0,0,1,30.63,10.58Zm-1-3.29a2.29,2.29,0,0,0,0,2.1,2.32,2.32,0,0,0,1,.94,2.53,2.53,0,0,0,.15-2A2.13,2.13,0,0,0,29.64,7.29Z" transform="translate(-0.5 -3.17)"/><path class="cls-34" d="M34.87,13.16a.12.12,0,0,1-.11-.08,9.23,9.23,0,0,0-4.9-5.81,8,8,0,0,0-3.22-.75.11.11,0,0,1-.11-.11.1.1,0,0,1,.11-.11A7.93,7.93,0,0,1,30,7.07a8.47,8.47,0,0,1,2.76,2A10.63,10.63,0,0,1,35,13a.12.12,0,0,1-.07.14Z" transform="translate(-0.5 -3.17)"/><path class="cls-34" d="M44.4,62.33a1.05,1.05,0,0,1-.77-1.77,1.1,1.1,0,0,1,.74-.33,1.06,1.06,0,0,1,1.08,1,1,1,0,0,1-.29.75,1,1,0,0,1-.73.33Zm0-1.87h0a.82.82,0,0,0-.57.26.81.81,0,0,0-.22.59h0a.77.77,0,0,0,.25.57.88.88,0,0,0,.6.23.82.82,0,0,0,.57-.26.81.81,0,0,0,.22-.59A.82.82,0,0,0,44.4,60.46Z" transform="translate(-0.5 -3.17)"/><path class="cls-34" d="M37.74,66.83a.12.12,0,0,1-.11-.1,3.71,3.71,0,0,1,.81-2.68,4.33,4.33,0,0,1,3.36-1.3.12.12,0,0,1,.11.09A4.28,4.28,0,0,1,41,65.3a4.17,4.17,0,0,1-3.25,1.53ZM41.69,63a4.1,4.1,0,0,0-3.08,1.21,3.51,3.51,0,0,0-.76,2.41,3.92,3.92,0,0,0,3-1.43A4.21,4.21,0,0,0,41.69,63Z" transform="translate(-0.5 -3.17)"/><path class="cls-34" d="M30.46,59.39a3.09,3.09,0,0,1-1.06-.19,2.84,2.84,0,0,1-1.72-2.09.1.1,0,0,1,.07-.13,2.66,2.66,0,0,1,2,.09,3.06,3.06,0,0,1,1.49,2.08.11.11,0,0,1,0,.12A1.61,1.61,0,0,1,30.46,59.39Zm-2.54-2.23A2.62,2.62,0,0,0,29.39,59a2.69,2.69,0,0,0,1.58.16,2.79,2.79,0,0,0-1.34-1.84A2.37,2.37,0,0,0,27.92,57.16Z" transform="translate(-0.5 -3.17)"/><path class="cls-34" d="M32.84,61.14h-.05a2.34,2.34,0,0,1-1.08-1.41,2.71,2.71,0,0,1,.57-2.2.11.11,0,0,1,.12-.05,2.3,2.3,0,0,1,1,1.26,2.53,2.53,0,0,1-.46,2.37A.13.13,0,0,1,32.84,61.14Zm-.43-3.41a2.4,2.4,0,0,0-.48,1.94,2.15,2.15,0,0,0,.88,1.21,2.24,2.24,0,0,0,.38-2.06A2.34,2.34,0,0,0,32.41,57.73Z" transform="translate(-0.5 -3.17)"/><path class="cls-34" d="M30.69,61.53a2.79,2.79,0,0,1-2-1,.11.11,0,0,1,0-.13,2.25,2.25,0,0,1,1.44-.72,2.5,2.5,0,0,1,2.22.95.1.1,0,0,1,0,.14,2.33,2.33,0,0,1-1.6.77Zm-1.75-1.09a2.49,2.49,0,0,0,1.8.87,2.16,2.16,0,0,0,1.37-.62,2.27,2.27,0,0,0-1.94-.8A2.3,2.3,0,0,0,28.94,60.44Z" transform="translate(-0.5 -3.17)"/><path class="cls-34" d="M36.75,63.12h0a2.38,2.38,0,0,1-1.48-1,2.77,2.77,0,0,1-.17-2.28.11.11,0,0,1,.1-.08h0a2.31,2.31,0,0,1,1.34.87A2.52,2.52,0,0,1,36.86,63,.12.12,0,0,1,36.75,63.12ZM35.27,60a2.45,2.45,0,0,0,.17,2,2.07,2.07,0,0,0,1.23.86,2.24,2.24,0,0,0-.31-2.07A2.3,2.3,0,0,0,35.27,60Z" transform="translate(-0.5 -3.17)"/><path class="cls-34" d="M38.37,63.52a7.67,7.67,0,0,1-2.23-.33,8.54,8.54,0,0,1-2.87-1.55,11.38,11.38,0,0,1-2.79-3.55.11.11,0,0,1,.2-.1,9.36,9.36,0,0,0,5.52,5,6.72,6.72,0,0,0,3,.26.11.11,0,0,1,.13.09.13.13,0,0,1-.09.14A6.64,6.64,0,0,1,38.37,63.52Z" transform="translate(-0.5 -3.17)"/><path class="cls-34" d="M32.9,64.41a4.16,4.16,0,0,1-2.08-.61.13.13,0,0,1-.05-.15,3.51,3.51,0,0,1,.54-.72c.62-.63,2-1.48,4.14-.11a.22.22,0,0,1,0,.08c0,.15-.18.39-.26.49a3.08,3.08,0,0,1-2.34,1ZM31,63.66a3.57,3.57,0,0,0,2.57.45,2.88,2.88,0,0,0,1.47-.87,1,1,0,0,0,.19-.27c-1.89-1.17-3.1-.58-3.79.12A2.81,2.81,0,0,0,31,63.66Zm4.25-.74Z" transform="translate(-0.5 -3.17)"/><path class="cls-34" d="M39.86,63a3,3,0,0,1-1.29-.27,2.72,2.72,0,0,1-1.42-1.86.1.1,0,0,1,0-.09.18.18,0,0,1,.07-.05h.05a4.48,4.48,0,0,1,1.89-.21,3.49,3.49,0,0,1,2.7,1.91.14.14,0,0,1,0,.09s0,.05-.06.07A5.45,5.45,0,0,1,39.86,63Zm-2.47-2.08a2.48,2.48,0,0,0,1.28,1.61,4.11,4.11,0,0,0,2.94-.11A3.45,3.45,0,0,0,37.39,60.92Zm-.15-.19Z" transform="translate(-0.5 -3.17)"/><path class="cls-34" d="M14.86,55.51a.11.11,0,0,1-.1-.06.12.12,0,0,1,.05-.15,14.9,14.9,0,0,1,3.32-.69c3.83-.56,9.63-1.41,11.06-4.94a.11.11,0,0,1,.14-.07.11.11,0,0,1,.06.15c-1.47,3.66-7.34,4.52-11.23,5.09a14.92,14.92,0,0,0-3.25.66Z" transform="translate(-0.5 -3.17)"/><path class="cls-34" d="M20.76,57.5a4.53,4.53,0,0,1-.79-.07,3,3,0,0,1-2.45-2.31.13.13,0,0,1,0-.06c0-.22.74-.35,1.21-.36a3,3,0,0,1,3.1,2.56.13.13,0,0,1-.09.14A4.89,4.89,0,0,1,20.76,57.5Zm-3-2.39A2.79,2.79,0,0,0,20,57.21a4.22,4.22,0,0,0,1.55,0,2.75,2.75,0,0,0-2-2.17A3,3,0,0,0,17.75,55.11Zm0,0Z" transform="translate(-0.5 -3.17)"/><path class="cls-34" d="M20.86,54.38h0c-.14-.06-.28-.63-.27-1.12a2.66,2.66,0,0,1,1.81-2.51.11.11,0,0,1,.12,0,2.46,2.46,0,0,1,.33,1.85,2.53,2.53,0,0,1-1.91,1.76Zm.08-.19ZM22.36,51a2.51,2.51,0,0,0-1.5,1.63,2.61,2.61,0,0,0,.05,1.52,2.3,2.3,0,0,0,1.67-1.53A2.34,2.34,0,0,0,22.36,51Z" transform="translate(-0.5 -3.17)"/><path class="cls-34" d="M25.09,55.49h-.2A2.58,2.58,0,0,1,23,54.17a.11.11,0,0,1,0-.08c0-.2.53-.4,1-.46A2.32,2.32,0,0,1,26.44,55a.08.08,0,0,1,0,.08.11.11,0,0,1-.09.1h0l-.09,0A3,3,0,0,1,25.09,55.49Zm-1.88-1.38a2.2,2.2,0,0,0,2.94.92l0,0a2,2,0,0,0-1.75-1.17A2.08,2.08,0,0,0,23.21,54.11Zm0,0Z" transform="translate(-0.5 -3.17)"/><path class="cls-34" d="M29.48,52.23A2.71,2.71,0,0,1,28,51.7a.12.12,0,0,1-.05-.07c0-.19.32-.53.67-.74a2.12,2.12,0,0,1,2.61.3s0,0,.05.06a.11.11,0,0,1,0,.13l0,0a.17.17,0,0,0-.06.06,2.57,2.57,0,0,1-1.06.68A1.9,1.9,0,0,1,29.48,52.23Zm-1.31-.67A2,2,0,0,0,31,51.3l0,0a2,2,0,0,0-2.81.28Z" transform="translate(-0.5 -3.17)"/><path class="cls-34" d="M29.34,50l-.07,0c-.16-.13-.09-.66.06-1.08a2.33,2.33,0,0,1,2.41-1.54l.09,0a.11.11,0,0,1,0,.13l0,0a.31.31,0,0,0,0,.1,2.81,2.81,0,0,1-.43,1.3,2.56,2.56,0,0,1-2.06,1Zm2.25-2.42a2.05,2.05,0,0,0-1.84,1,2.15,2.15,0,0,0-.34,1.21,2.19,2.19,0,0,0,2.2-2.15v0Z" transform="translate(-0.5 -3.17)"/><path class="cls-34" d="M26,52.8h0c-.2,0-.41-.52-.48-1a2.32,2.32,0,0,1,1.33-2.55.11.11,0,0,1,.15,0s0,0,0,0l0,0a2.69,2.69,0,0,1,.35,1.3A2.64,2.64,0,0,1,26,52.78Zm.83-3.27a2,2,0,0,0-1.14,1.8A2.1,2.1,0,0,0,26,52.55,2.21,2.21,0,0,0,26.79,49.53Zm.15-.09-.05,0Z" transform="translate(-0.5 -3.17)"/><path class="cls-34" d="M50.21,26.39a4.14,4.14,0,0,1-1.45-.26.11.11,0,0,1-.07-.14.12.12,0,0,1,.15-.07,5,5,0,0,0,3.85-.35,25.33,25.33,0,0,0,3.92-2.38c1.91-1.32,3.71-2.57,5.17-2.42a.12.12,0,1,1,0,.23c-1.37-.15-3.14,1.08-5,2.37a25.42,25.42,0,0,1-4,2.41A6.46,6.46,0,0,1,50.21,26.39Z" transform="translate(-0.5 -3.17)"/><path class="cls-34" d="M57.63,26a.12.12,0,0,1-.1-.06,2.63,2.63,0,0,1,.43-3.5c.29-.27.82-.63,1-.5,0,0,0,0,0,0a2.68,2.68,0,0,1-.16,3A4.33,4.33,0,0,1,57.69,26Zm1.19-3.86a2.62,2.62,0,0,0-1.22,1.09,2.39,2.39,0,0,0,.07,2.5,3.81,3.81,0,0,0,1-.92A2.44,2.44,0,0,0,58.82,22.18Zm0,0Z" transform="translate(-0.5 -3.17)"/><path class="cls-34" d="M54.72,24a1.84,1.84,0,0,1-1-.29,2.14,2.14,0,0,1-.91-1.39.12.12,0,0,1,.07-.1,2.36,2.36,0,0,1,2.67.5c.31.32.56.76.51.89a.1.1,0,0,1,0,.06A3,3,0,0,1,54.72,24ZM53,22.38a2.11,2.11,0,0,0,.85,1.15,2,2,0,0,0,1.94,0,2.33,2.33,0,0,0-.89-1A2.23,2.23,0,0,0,53,22.38ZM56,23.55Z" transform="translate(-0.5 -3.17)"/><path class="cls-34" d="M52.68,27.62a.12.12,0,0,1-.12-.11,2,2,0,0,1,1-2.32c.35-.2.79-.33.93-.2a.13.13,0,0,1,0,.07,2.28,2.28,0,0,1-.62,2,2.51,2.51,0,0,1-1.07.55l-.08,0,0,0Zm1.63-2.46a1.92,1.92,0,0,0-1,.49,1.78,1.78,0,0,0-.55,1.7h0A1.91,1.91,0,0,0,54.31,25.16Zm0,0Z" transform="translate(-0.5 -3.17)"/><path class="cls-34" d="M48.65,28.49a.12.12,0,0,1-.09,0,.19.19,0,0,1,0-.08,1.87,1.87,0,0,1,1.23-2c.29-.12.76-.21.88,0a.11.11,0,0,1,0,.07,2.09,2.09,0,0,1-.84,1.68,2.16,2.16,0,0,1-1.05.35h-.07l0,0Zm1.75-2a1.76,1.76,0,0,0-.93.32,1.62,1.62,0,0,0-.71,1.42h0a1.71,1.71,0,0,0,1.68-1.74Zm.1,0Z" transform="translate(-0.5 -3.17)"/><path class="cls-34" d="M47.39,26.87a1.84,1.84,0,0,1-.41-.05,2.46,2.46,0,0,1-1.06-.58.15.15,0,0,1-.06,0h0a.1.1,0,0,1-.06-.12.16.16,0,0,1,0-.07,2.06,2.06,0,0,1,2.48-.48c.36.18.72.47.69.66a.1.1,0,0,1,0,.07A2.46,2.46,0,0,1,47.39,26.87Zm-1.34-.81h0a1.91,1.91,0,0,0,2.67.05,1.87,1.87,0,0,0-1-.56A1.77,1.77,0,0,0,46.05,26.06Zm2.81.09Z" transform="translate(-0.5 -3.17)"/><path class="cls-34" d="M51.41,26A2.12,2.12,0,0,1,50,25.52a2.51,2.51,0,0,1-.62-1l0-.08,0,0a.11.11,0,0,1,0-.13.08.08,0,0,1,.07,0,2,2,0,0,1,2.38.83c.22.33.38.77.27.92l-.07,0A3.4,3.4,0,0,1,51.41,26Zm.51-.15Zm-.1-.06Zm-2.29-1.44v0a1.91,1.91,0,0,0,2.28,1.38,1.86,1.86,0,0,0-2.29-1.4Z" transform="translate(-0.5 -3.17)"/><path class="cls-34" d="M25.55,6.66h-.29l-.7-.06a.12.12,0,0,1-.09-.11A4.14,4.14,0,0,1,25.76,4.2a4.18,4.18,0,0,1,3.46-1,.11.11,0,0,1,.09.12,3.67,3.67,0,0,1-1.2,2.49A3.8,3.8,0,0,1,25.55,6.66Zm-.84-.28.56,0A3.74,3.74,0,0,0,28,5.65a3.47,3.47,0,0,0,1.11-2.22,3.87,3.87,0,0,0-3.16.93A4.09,4.09,0,0,0,24.71,6.38Z" transform="translate(-0.5 -3.17)"/><path class="cls-34" d="M27.93,9.38a3.73,3.73,0,0,1-2.07-.58l0,0a5.26,5.26,0,0,0-1-1.1l0,0a4.53,4.53,0,0,1-.34-.74.14.14,0,0,1,0-.09.13.13,0,0,1,.07-.06,4.46,4.46,0,0,1,3.23.37,2.74,2.74,0,0,1,1.11,2.07.16.16,0,0,1,0,.09.11.11,0,0,1-.08,0h0A5.17,5.17,0,0,1,27.93,9.38Zm.8-.07h0ZM26,8.62a3.73,3.73,0,0,0,2.61.48,2.43,2.43,0,0,0-1-1.79,4.08,4.08,0,0,0-2.92-.37,3.77,3.77,0,0,0,.28.57A5.65,5.65,0,0,1,26,8.62Z" transform="translate(-0.5 -3.17)"/><path class="cls-34" d="M41.76,65.48H41.7a.1.1,0,0,1-.05-.08c-.19-1.38-.15-2.35.59-3.14a3,3,0,0,1-1-.34l0,0A3.1,3.1,0,0,0,40.06,61l0,0c-.3-.3-.6-.63-.88-.94a.11.11,0,0,1,0-.11.12.12,0,0,1,.07-.07,6.58,6.58,0,0,1,3.88-.23,4.62,4.62,0,0,1,.81-3.56A.1.1,0,0,1,44,56a.13.13,0,0,1,.1,0,6.79,6.79,0,0,1,1.6,3.45A4.47,4.47,0,0,1,49,59.07a.09.09,0,0,1,.07.06.1.1,0,0,1,0,.09,4.19,4.19,0,0,1-2.66,2.44,4.78,4.78,0,0,1,1.29,3.24s0,.06,0,.09a.14.14,0,0,1-.09,0,4.12,4.12,0,0,1-3.11-1.6,4.68,4.68,0,0,1-2.71,2.06Zm-.37-3.75a2.79,2.79,0,0,0,1.1.33.12.12,0,0,1,.09.08.1.1,0,0,1,0,.12c-.8.72-.87,1.6-.7,2.95,1-.43,2.2-1,2.53-2.06a.12.12,0,0,1,.09-.08.14.14,0,0,1,.11,0,3.75,3.75,0,0,0,2.93,1.66,4.37,4.37,0,0,0-1.35-3.09.11.11,0,0,1,0-.11.11.11,0,0,1,.08-.08,3.9,3.9,0,0,0,2.64-2.24,4.15,4.15,0,0,0-3.21.51.11.11,0,0,1-.11,0,.11.11,0,0,1-.06-.1A6.16,6.16,0,0,0,44,56.3a4.06,4.06,0,0,0-.64,3.43.13.13,0,0,1,0,.12.11.11,0,0,1-.11,0,6.28,6.28,0,0,0-3.78.11c.24.27.49.54.74.79A3.46,3.46,0,0,1,41.39,61.73Z" transform="translate(-0.5 -3.17)"/><path class="cls-34" d="M59,21.53a1.85,1.85,0,0,1-.74-.15,3,3,0,0,1-1.46-1.83c0-.06-.22-.64-.14-.76a.11.11,0,0,1,.09-.05,4.34,4.34,0,0,1,1.2,0,2.53,2.53,0,0,1,2.15,1.72c.1.29.13.65,0,.77l0,0A2.72,2.72,0,0,1,59,21.53ZM56.91,19a3,3,0,0,0,.14.53h0a2.85,2.85,0,0,0,1.34,1.69A2,2,0,0,0,60,21.08a1.17,1.17,0,0,0-.12-.72A2.34,2.34,0,0,0,58,19,4.51,4.51,0,0,0,56.91,19Zm0-.07Z" transform="translate(-0.5 -3.17)"/><path class="cls-34" d="M16.45,55h0c-.2,0-.45-.31-.6-.62a2.91,2.91,0,0,1,.42-3.11,5.59,5.59,0,0,1,1-1,.12.12,0,0,1,.1,0c.16,0,.47.7.48.73h0a3.42,3.42,0,0,1,.22,2.65A2.48,2.48,0,0,1,16.49,55Zm.86-4.45a5,5,0,0,0-.86.86A2.71,2.71,0,0,0,16,54.18a1.32,1.32,0,0,0,.46.64,2.29,2.29,0,0,0,1.41-1.2,3.37,3.37,0,0,0-.22-2.47h0A3.13,3.13,0,0,0,17.31,50.59Z" transform="translate(-0.5 -3.17)"/><path class="cls-33" d="M5.2,39.49H5.14A.18.18,0,0,1,5,39.35a24.13,24.13,0,0,1-.47-6.66.23.23,0,0,1,.08-.14.17.17,0,0,1,.14,0L7.61,33a.17.17,0,0,1,.15.18v4.36a.21.21,0,0,1-.07.15L5.31,39.45A.15.15,0,0,1,5.2,39.49Zm-.29-6.57A23.42,23.42,0,0,0,5.32,39l2.07-1.5v-4.1Z" transform="translate(-0.5 -3.17)"/><path class="cls-33" d="M66.55,35.61a3.46,3.46,0,0,1-1.5-.63,13.56,13.56,0,0,1-1.18-.76A.17.17,0,0,1,63.8,34l.85-2.57a.19.19,0,0,1,.15-.12L66.61,31a.16.16,0,0,1,.15,0,.17.17,0,0,1,.07.13c0,.14.16,3.28.12,4a.36.36,0,0,1-.2.31A.5.5,0,0,1,66.55,35.61ZM64.2,34c.19.13.6.4,1,.66,1,.59,1.28.59,1.34.58h0c0-.64-.08-3.07-.11-3.8l-1.5.23Z" transform="translate(-0.5 -3.17)"/><path class="cls-34" d="M21.33,12.9h0a.12.12,0,0,1-.09-.05,6.81,6.81,0,0,1-1-3.67,4.05,4.05,0,0,1-1,.24,4.9,4.9,0,0,1-2.41-.37A.16.16,0,0,1,16.76,9a.12.12,0,0,1,0-.1,4.2,4.2,0,0,1,3-2A4.77,4.77,0,0,1,19,3.5a.1.1,0,0,1,.05-.08.09.09,0,0,1,.09,0A4.08,4.08,0,0,1,22,5.48a4.72,4.72,0,0,1,3-1.59s.07,0,.09,0a.1.1,0,0,1,0,.09c0,1.38-.23,2.34-1.08,3,1.14.4,1.83,1.38,2.68,2.71a.11.11,0,0,1,0,.11.1.1,0,0,1-.08.06,6.57,6.57,0,0,1-3.86-.4,4.62,4.62,0,0,1-1.38,3.38A.1.1,0,0,1,21.33,12.9Zm-1-4a.11.11,0,0,1,.07,0,.1.1,0,0,1,0,.1,6.2,6.2,0,0,0,.9,3.57,4.07,4.07,0,0,0,1.19-3.28.13.13,0,0,1,.05-.11.11.11,0,0,1,.11,0,6.31,6.31,0,0,0,3.75.5c-.82-1.28-1.51-2.21-2.63-2.53h-.05a.09.09,0,0,1-.08-.09.1.1,0,0,1,0-.11c.9-.59,1.12-1.45,1.16-2.8a4.11,4.11,0,0,0-2.82,1.62.12.12,0,0,1-.11.07.11.11,0,0,1-.09-.07,3.75,3.75,0,0,0-2.63-2.11,4.36,4.36,0,0,0,.84,3.26.13.13,0,0,1,0,.12A.1.1,0,0,1,20,7.1a4,4,0,0,0-3,1.79,4.6,4.6,0,0,0,2.17.31,3.54,3.54,0,0,0,1.09-.3Z" transform="translate(-0.5 -3.17)"/><path d="M12.09,44.94a3.67,3.67,0,0,1-2-.49l-.15-.1a5.19,5.19,0,0,1-2.48.57,6.54,6.54,0,0,1-4.85-2.28,7.55,7.55,0,0,1,0-10.5,6.55,6.55,0,0,1,4.84-2.29A5.42,5.42,0,0,1,8.89,30V27.35a6.57,6.57,0,0,1,0-1,3,3,0,0,1,.35-1.05,2.27,2.27,0,0,1,1.39-1.13,5.29,5.29,0,0,1,1.6-.2,5.17,5.17,0,0,1,1.59.2,2.32,2.32,0,0,1,1.41,1.16,3.13,3.13,0,0,1,.34,1.05,8.12,8.12,0,0,1,.05,1v2a1.26,1.26,0,0,1-.24.75,7.24,7.24,0,0,0-1.25,4.24,7.86,7.86,0,0,0,.54,2.95,7.18,7.18,0,0,0,.73,1.41,1.36,1.36,0,0,1,.22.73v2.14a7.94,7.94,0,0,1-.05,1,3.09,3.09,0,0,1-.38,1.09C14.5,44.94,12.69,44.94,12.09,44.94Zm-4-8.32a.62.62,0,0,0-.54.21.85.85,0,0,0-.24.58.7.7,0,0,0,.25.51.66.66,0,0,0,.55.24.58.58,0,0,0,.5-.21.76.76,0,0,0,.24-.53.92.92,0,0,0-.25-.6A.59.59,0,0,0,8.06,36.62Z" transform="translate(-0.5 -3.17)"/><path d="M22,44.68a10.28,10.28,0,0,1-2.61-.34,10.74,10.74,0,0,1-2.7-1.13,11.13,11.13,0,0,1-2.49-1.94,9.36,9.36,0,0,1-1.88-3,10.71,10.71,0,0,1-.72-3.92,10.05,10.05,0,0,1,.72-3.86,9,9,0,0,1,1.85-2.91,10.34,10.34,0,0,1,2.51-1.89A10.94,10.94,0,0,1,22,24.24a9,9,0,0,1,2.64.4,8.7,8.7,0,0,1,2,.83l.57.32,0,0c.31.19.55.34.73.47l.07,0a2.7,2.7,0,0,1,1.11,2.15,3.55,3.55,0,0,1-.75,2.09c-.89,1.23-1.78,1.82-2.72,1.82a3.54,3.54,0,0,1-1.94-.74l-.1-.07a2.88,2.88,0,0,0-1.84-.52,3.88,3.88,0,0,0-2.27.82,2.83,2.83,0,0,0-.79,1,3.55,3.55,0,0,0-.33,1.57A3.48,3.48,0,0,0,18.72,36a2.79,2.79,0,0,0,.82,1,3.78,3.78,0,0,0,2.24.79,3.42,3.42,0,0,0,1-.14,3.57,3.57,0,0,0,.57-.2l.39-.29.11-.07a3.65,3.65,0,0,1,1.8-.65c1.45,0,2.39,1.45,2.69,1.93h0a3.84,3.84,0,0,1,.73,2,2.47,2.47,0,0,1-.69,1.74,5,5,0,0,1-1,.8l-.83.5a8.34,8.34,0,0,1-1.89.75A9.2,9.2,0,0,1,22,44.68Z" transform="translate(-0.5 -3.17)"/><path d="M27,45.94a4.05,4.05,0,0,1-2.64-.75l0,0a2.83,2.83,0,0,1-.92-2s0-.06,0-.09v-.19a1.31,1.31,0,0,1,.9-1.24,4.12,4.12,0,0,0,.91-.36l.81-.49a2.53,2.53,0,0,0,.44-.33,3.24,3.24,0,0,0-.31-.61,3.17,3.17,0,0,0-.53-.67l-.27.15a1.32,1.32,0,0,1-.64.16,1.28,1.28,0,0,1-.66-.18,1.33,1.33,0,0,1-.65-1.13V33a7.61,7.61,0,0,1,.06-1.08,3.29,3.29,0,0,1,.35-1.09h0a2.17,2.17,0,0,1,.82-.88,1.25,1.25,0,0,1,.7-.21,1.07,1.07,0,0,1,.25,0l.06-.05a1.4,1.4,0,0,1,.71-.29l.68,0a4.24,4.24,0,0,1,2.66.73l.44-.26a4.3,4.3,0,0,1,2.07-.61,7.41,7.41,0,0,1,1.24.09,6.47,6.47,0,0,1,1.12.27,3,3,0,0,1,1.43.93,3.05,3.05,0,0,1,.65,2.08A5.55,5.55,0,0,1,36,35.06a2.87,2.87,0,0,1-2.63,1.73,3.48,3.48,0,0,1-1.48-.34,1.29,1.29,0,0,0-.58-.08.76.76,0,0,0-.51.21c-.13.11-.13.16-.13.2v5.55a9.75,9.75,0,0,1-.05,1.08,3.32,3.32,0,0,1-.4,1.14l0,0A2.5,2.5,0,0,1,28.8,45.7,5.65,5.65,0,0,1,27,45.94Z" transform="translate(-0.5 -3.17)"/><path d="M49,49.72a5.15,5.15,0,0,1-1.59-.21,2.32,2.32,0,0,1-1.37-1.1,3.15,3.15,0,0,1-.36-1,8.12,8.12,0,0,1,0-1V39.14a1.23,1.23,0,0,1,.14-.57A5.73,5.73,0,0,0,46.36,36a6,6,0,0,0-.56-2.63,1.35,1.35,0,0,1-.13-.56V32.4a7.88,7.88,0,0,1,0-1,3.22,3.22,0,0,1,.33-1v0A2.8,2.8,0,0,1,48.83,29a4.09,4.09,0,0,1,2.48.57l0,0a5.33,5.33,0,0,1,2.55-.59,6.37,6.37,0,0,1,4.65,2.25c.21.23.41.46.59.7a1.24,1.24,0,0,1,.27.81v0a3.66,3.66,0,0,0,.32,1.61,2.34,2.34,0,0,0,.49.68,1.35,1.35,0,0,1,.43.9c0,.15,0,.3,0,.45a7.5,7.5,0,0,1-.12,1.34,1.31,1.31,0,0,1-1,1,4.21,4.21,0,0,0-.58,1,1.32,1.32,0,0,1-.16,1.49,3.58,3.58,0,0,1-.26.29,6.34,6.34,0,0,1-4.65,2.26,6.66,6.66,0,0,1-1.54-.17v2.59a8,8,0,0,1,0,1,3.36,3.36,0,0,1-.35,1,2.33,2.33,0,0,1-1.36,1.13A5.15,5.15,0,0,1,49,49.72Zm4.16-14a.54.54,0,0,0-.48.19.83.83,0,0,0-.24.56.77.77,0,0,0,.23.53.52.52,0,0,0,.46.2.71.71,0,0,0,.55-.23.66.66,0,0,0,.24-.5.75.75,0,0,0-.24-.54A.62.62,0,0,0,53.2,35.76Z" transform="translate(-0.5 -3.17)"/><path d="M40.4,44.55a8.5,8.5,0,0,1-4-1,8.83,8.83,0,0,1-3.25-3,8,8,0,0,1-1.34-4.53c0-.22,0-.45,0-.68a1.35,1.35,0,0,1,.48-.92,1.32,1.32,0,0,1,.83-.3h.25c.07,0,.15,0,.29-.28a2.94,2.94,0,0,0,.36-1.27,1.73,1.73,0,0,0,0-.4h0a1.33,1.33,0,0,1-.06-1.84c.16-.18.34-.35.52-.52a8.71,8.71,0,0,1,4.38-2.27,1.11,1.11,0,0,1,0-.17c0-.75.06-1.73.11-2.82a6.64,6.64,0,0,1-2,.3,7,7,0,0,1-4.86-2.07l-3.73-3.5a1.29,1.29,0,0,1-.4-1.16,1.31,1.31,0,0,1,.74-1,14.87,14.87,0,0,1,5.54-1.25,8.22,8.22,0,0,1,2.39.33,7.92,7.92,0,0,1,2.84,1.55,25.15,25.15,0,0,1,1-5c1.3-3.64,4.89-5.91,9.36-5.91a13.52,13.52,0,0,1,2.52.24,27.63,27.63,0,0,0,4.9.6,3.94,3.94,0,0,0,.57,0,1.54,1.54,0,0,1,.3,0,1.29,1.29,0,0,1,1,.5,1.33,1.33,0,0,1,.12,1.42A27.5,27.5,0,0,1,57,13.16C55,15.76,53,17.41,51,18.06a16.64,16.64,0,0,1-5.17.87,12.15,12.15,0,0,1-2.31-.21c-.2,2.22-.56,6.43-.66,9.08a9,9,0,0,1,3.48,2.05,8.58,8.58,0,0,1,1.25,10.8,8.38,8.38,0,0,1-3.27,3A8.76,8.76,0,0,1,40.4,44.55Zm0-9.83a1.46,1.46,0,0,0-.95.37c-.16.13-.33.34-.33.92s.23.82.33.89a1.5,1.5,0,0,0,.92.38,1.66,1.66,0,0,0,1-.39c.1-.08.35-.27.35-.91s-.23-.83-.31-.9A1.52,1.52,0,0,0,40.4,34.72Z" transform="translate(-0.5 -3.17)"/><path d="M62.58,43.45a9.54,9.54,0,0,1-5.14-1.54,2.3,2.3,0,0,1-1.07-2,4.8,4.8,0,0,1,1.14-2.64,2.21,2.21,0,0,1,.57-.57,5.38,5.38,0,0,1-.69-1.06,6.21,6.21,0,0,1-.59-2.77c0-1.9.85-5.09,6.51-5.09a9.72,9.72,0,0,1,4,.93h0A2.35,2.35,0,0,1,69,30.84,4,4,0,0,1,68.22,33a3.69,3.69,0,0,1-.69.84,4.13,4.13,0,0,1,1.33,1.47A5.35,5.35,0,0,1,69.5,38a5.77,5.77,0,0,1-.62,2.74A4.31,4.31,0,0,1,67,42.56h0A10.1,10.1,0,0,1,62.58,43.45Z" transform="translate(-0.5 -3.17)"/><path d="M42,31.93c-1.11.52-6.46,5.46-6.46,5.46l4.27,2.08h3.69Z" transform="translate(-0.5 -3.17)"/><polygon points="50.07 30.15 49.25 36.13 55.45 35.38 55.45 30.15 50.07 30.15"/><polygon points="3.67 30.9 4.24 36.87 10.01 37.26 11.06 30.71 3.67 30.9"/><path class="cls-10" d="M13.5,37.77a9.14,9.14,0,0,1-.63-3.43A8.78,8.78,0,0,1,13.49,31a8.65,8.65,0,0,1,.87-1.63v-2a5.57,5.57,0,0,0,0-.82,1.86,1.86,0,0,0-.21-.63,1,1,0,0,0-.63-.5,3.94,3.94,0,0,0-1.2-.14,3.94,3.94,0,0,0-1.2.14,1,1,0,0,0-.63.49,2.07,2.07,0,0,0-.22.61c0,.19,0,.46,0,.82v5a3.34,3.34,0,0,0-2.73-1.18A5.28,5.28,0,0,0,3.58,33a6.26,6.26,0,0,0,0,8.71,5.25,5.25,0,0,0,3.9,1.87,3.52,3.52,0,0,0,2.78-1.14c.12.77.74,1.16,1.84,1.16s1.77-.21,2-.64a1.7,1.7,0,0,0,.22-.6,5.74,5.74,0,0,0,0-.82V39.43A8.92,8.92,0,0,1,13.5,37.77ZM9.55,38.83a1.9,1.9,0,0,1-1.47.64,2,2,0,0,1-1.49-.64A2,2,0,0,1,6,37.41,2.12,2.12,0,0,1,6.54,36a1.91,1.91,0,0,1,1.52-.66A1.89,1.89,0,0,1,9.57,36a2.2,2.2,0,0,1,.56,1.44A2.1,2.1,0,0,1,9.55,38.83Z" transform="translate(-0.5 -3.17)"/><path class="cls-35" d="M52.21,8.39c-4.53-.87-9,.85-10.4,4.82a37.22,37.22,0,0,0-1.24,8,6.83,6.83,0,0,0-4.2-3.72c-3.12-.95-7,.85-7,.85l3.73,3.5a5.58,5.58,0,0,0,7.39.56c-.14,2.07-.22,4-.25,5.22l0,0A2.3,2.3,0,0,1,40,28.86l.24.1v.87c0,.38,1.51.31,1.51.31a2.31,2.31,0,0,1-.08-.59l.32.13a8.84,8.84,0,0,1-.31-1.63c.11-3.1.61-8.67.77-10.46a.45.45,0,0,1,.57-.38,13,13,0,0,0,7.72-.4C54.9,15.44,58.17,9,58.17,9S56.74,9.25,52.21,8.39Z" transform="translate(-0.5 -3.17)"/><path class="cls-10" d="M34.2,30.85a1.81,1.81,0,0,1,.83.55,1.84,1.84,0,0,1,.33,1.22,4.26,4.26,0,0,1-.5,1.86,1.58,1.58,0,0,1-1.46,1,2.09,2.09,0,0,1-.91-.21,2.66,2.66,0,0,0-1.15-.21,2,2,0,0,0-1.33.5,1.49,1.49,0,0,0-.62,1.22v5.55c0,.4,0,.71,0,.91a2.29,2.29,0,0,1-.25.7q-.41.69-2.07.69a2.91,2.91,0,0,1-1.82-.45A1.63,1.63,0,0,1,24.73,43V33c0-.4,0-.7,0-.91a2.13,2.13,0,0,1,.23-.67c.24-.48.93-.71,2.06-.71s1.72.2,2,.6a1.52,1.52,0,0,1,.29.88,3.42,3.42,0,0,1,.39-.45A4.47,4.47,0,0,1,30.79,31a3,3,0,0,1,1.44-.45,7.39,7.39,0,0,1,1,.07A6.82,6.82,0,0,1,34.2,30.85Z" transform="translate(-0.5 -3.17)"/><path class="cls-10" d="M24.11,38.57l.43-.31a2.92,2.92,0,0,1,1.14-.47c.49,0,1,.44,1.59,1.33a2.77,2.77,0,0,1,.53,1.33,1.16,1.16,0,0,1-.32.83,4,4,0,0,1-.75.59l-.82.5A8.26,8.26,0,0,1,24.3,43a7.94,7.94,0,0,1-2.34.38,9,9,0,0,1-2.28-.3,9.65,9.65,0,0,1-2.38-1,9.86,9.86,0,0,1-2.19-1.71,7.94,7.94,0,0,1-1.61-2.6,9.14,9.14,0,0,1-.63-3.43A8.78,8.78,0,0,1,13.49,31a7.7,7.7,0,0,1,1.58-2.5,8.75,8.75,0,0,1,2.2-1.65A9.55,9.55,0,0,1,22,25.55a7.91,7.91,0,0,1,2.27.34,8,8,0,0,1,1.75.7l.57.34.66.42a1.46,1.46,0,0,1,.62,1.13,2.3,2.3,0,0,1-.5,1.32c-.62.86-1.17,1.28-1.66,1.28a2.45,2.45,0,0,1-1.21-.52,4.13,4.13,0,0,0-2.67-.81,5.21,5.21,0,0,0-3,1.07,4.07,4.07,0,0,0-1.19,1.48,5.15,5.15,0,0,0,0,4.3,4.16,4.16,0,0,0,1.22,1.5,5.11,5.11,0,0,0,3,1A4.81,4.81,0,0,0,23.17,39,3.57,3.57,0,0,0,24.11,38.57Z" transform="translate(-0.5 -3.17)"/><path class="cls-10" d="M57.61,32.2a5.12,5.12,0,0,0-3.7-1.84,3.31,3.31,0,0,0-2.86,1.25,1.32,1.32,0,0,0-.51-.95,3.12,3.12,0,0,0-1.71-.32c-.85,0-1.38.21-1.61.64a2,2,0,0,0-.2.6,5.57,5.57,0,0,0,0,.82v.44A7.18,7.18,0,0,1,47.67,36,7,7,0,0,1,47,39.14v7.24a5.5,5.5,0,0,0,0,.81,1.66,1.66,0,0,0,.21.6,1.06,1.06,0,0,0,.63.48,4.13,4.13,0,0,0,1.18.14,4,4,0,0,0,1.17-.14,1,1,0,0,0,.62-.49,2.11,2.11,0,0,0,.21-.61,7.46,7.46,0,0,0,0-.82V41.52a3.45,3.45,0,0,0,2.85,1.1,5.06,5.06,0,0,0,3.69-1.85,6.13,6.13,0,0,0,0-8.57Zm-3,5.73a2,2,0,0,1-1.49.62,1.8,1.8,0,0,1-1.43-.64,2,2,0,0,1-.57-1.4,2.16,2.16,0,0,1,.55-1.41,1.85,1.85,0,0,1,1.48-.65,1.93,1.93,0,0,1,1.49.64,2.08,2.08,0,0,1,.58,1.42A2,2,0,0,1,54.66,37.93Z" transform="translate(-0.5 -3.17)"/><path class="cls-10" d="M58.14,40.8a1,1,0,0,1-.46-.91A3.86,3.86,0,0,1,58.59,38a1,1,0,0,1,.85-.41,3.52,3.52,0,0,1,1.59.59,3.69,3.69,0,0,0,1.82.58c1,0,1.46-.19,1.46-.57s-.53-.53-1.6-.67a7.86,7.86,0,0,1-3-1.13A3.11,3.11,0,0,1,58.57,35a4.78,4.78,0,0,1-.46-2.19q0-3.78,5.2-3.78a8.43,8.43,0,0,1,3.49.81q.84.39.84,1a2.85,2.85,0,0,1-.53,1.41c-.35.56-.71.84-1.07.84A3.2,3.2,0,0,1,65,32.73a4,4,0,0,0-1.69-.36c-.94,0-1.41.18-1.41.53s.54.79,1.63.93a9,9,0,0,1,3.06.91,2.65,2.65,0,0,1,1.16,1.16A4.07,4.07,0,0,1,68.19,38a4.34,4.34,0,0,1-.47,2.12,3,3,0,0,1-1.3,1.31,8.85,8.85,0,0,1-3.84.74A8.25,8.25,0,0,1,58.14,40.8Z" transform="translate(-0.5 -3.17)"/><path class="cls-36" d="M45.47,30.81a7.15,7.15,0,0,0-5-2,7.26,7.26,0,0,0-5.07,2.06,6.2,6.2,0,0,0-.44.45l.12.13a1.84,1.84,0,0,1,.33,1.22,4.26,4.26,0,0,1-.5,1.86,1.58,1.58,0,0,1-1.46,1l-.25,0c0,.2,0,.39,0,.59a6.68,6.68,0,0,0,1.12,3.8A7.59,7.59,0,0,0,37,42.39a7.25,7.25,0,0,0,3.39.85,7.48,7.48,0,0,0,3.37-.8,7.23,7.23,0,0,0,2.76-2.51A6.87,6.87,0,0,0,47.67,36,6.79,6.79,0,0,0,45.47,30.81Zm-3.35,7.12a2.92,2.92,0,0,1-1.75.66,2.78,2.78,0,0,1-1.72-.65A2.28,2.28,0,0,1,37.81,36a2.34,2.34,0,0,1,.82-1.94,2.74,2.74,0,0,1,1.77-.66,2.81,2.81,0,0,1,1.77.64A2.27,2.27,0,0,1,43,36,2.29,2.29,0,0,1,42.12,37.93Z" transform="translate(-0.5 -3.17)"/><path d="M12.09,43.86c-1.21,0-1.73-.46-1.95-1a3.83,3.83,0,0,1-2.67.93A5.54,5.54,0,0,1,3.4,41.9a6.47,6.47,0,0,1,0-9,5.52,5.52,0,0,1,4.05-2,3.67,3.67,0,0,1,2.5.86V27.35a8.44,8.44,0,0,1,0-.85,2.28,2.28,0,0,1,.24-.69,1.27,1.27,0,0,1,.76-.6,4.41,4.41,0,0,1,1.27-.15,4.41,4.41,0,0,1,1.27.15,1.23,1.23,0,0,1,.76.62,2,2,0,0,1,.23.7,6,6,0,0,1,0,.85v2a.2.2,0,0,1,0,.13,8.42,8.42,0,0,0-.84,1.58,8.63,8.63,0,0,0-.6,3.28,9,9,0,0,0,.61,3.35h0a9.45,9.45,0,0,0,.83,1.62.17.17,0,0,1,0,.12v2.14a6,6,0,0,1,0,.84,1.76,1.76,0,0,1-.25.69C14,43.61,13.29,43.86,12.09,43.86Zm-1.84-1.62h.06a.26.26,0,0,1,.16.18c.1.66.63,1,1.62,1s1.62-.18,1.81-.53a1.56,1.56,0,0,0,.2-.52,7.68,7.68,0,0,0,0-.79V39.5a10.08,10.08,0,0,1-.84-1.64,9.45,9.45,0,0,1-.64-3.52,8.77,8.77,0,0,1,1.48-5.06v-1.9a7.42,7.42,0,0,0,0-.79,2,2,0,0,0-.19-.56.78.78,0,0,0-.5-.39,3.85,3.85,0,0,0-1.13-.13,3.76,3.76,0,0,0-1.13.13.77.77,0,0,0-.5.38,1.6,1.6,0,0,0-.19.54,5.19,5.19,0,0,0,0,.79v5a.24.24,0,0,1-.15.22.22.22,0,0,1-.24-.07,3.1,3.1,0,0,0-2.56-1.11,5.09,5.09,0,0,0-3.73,1.81,6,6,0,0,0,0,8.4,5.08,5.08,0,0,0,3.74,1.79,3.25,3.25,0,0,0,2.61-1.06A.21.21,0,0,1,10.25,42.24ZM8.08,39.7A2.25,2.25,0,0,1,6.42,39a2.24,2.24,0,0,1-.68-1.58,2.36,2.36,0,0,1,.63-1.59,2.15,2.15,0,0,1,1.69-.73,2.07,2.07,0,0,1,1.68.75,2.38,2.38,0,0,1,.61,1.58A2.25,2.25,0,0,1,9.71,39h0A2.1,2.1,0,0,1,8.08,39.7Zm0-4.16a1.69,1.69,0,0,0-1.35.58,1.88,1.88,0,0,0-.52,1.29,1.77,1.77,0,0,0,.56,1.27,1.79,1.79,0,0,0,1.33.57,1.68,1.68,0,0,0,1.3-.57,1.83,1.83,0,0,0,.52-1.26,2,2,0,0,0-.5-1.3A1.65,1.65,0,0,0,8.06,35.54Zm1.49,3.29Z" transform="translate(-0.5 -3.17)"/><path d="M22,43.6a9.53,9.53,0,0,1-2.34-.31,10.43,10.43,0,0,1-4.68-2.77,8.31,8.31,0,0,1-1.65-2.66,9.45,9.45,0,0,1-.64-3.52,9.1,9.1,0,0,1,.63-3.45,7.82,7.82,0,0,1,1.63-2.56,9,9,0,0,1,2.25-1.7A9.88,9.88,0,0,1,22,25.32a8,8,0,0,1,2.33.36,7.74,7.74,0,0,1,1.8.72l.57.33h0l.68.44h0a1.63,1.63,0,0,1,.7,1.3,2.47,2.47,0,0,1-.54,1.45c-.67.93-1.27,1.38-1.84,1.38a2.64,2.64,0,0,1-1.34-.56h0A3.87,3.87,0,0,0,21.78,30a5,5,0,0,0-2.91,1,3.77,3.77,0,0,0-1.12,1.39,4.89,4.89,0,0,0,0,4.1,4,4,0,0,0,1.15,1.42,4.91,4.91,0,0,0,2.88,1,4.75,4.75,0,0,0,1.33-.18,3.55,3.55,0,0,0,.87-.35l.43-.31h0a2.82,2.82,0,0,1,1.25-.51c.58,0,1.16.47,1.78,1.44A2.9,2.9,0,0,1,28,40.45a1.41,1.41,0,0,1-.38,1,4.64,4.64,0,0,1-.8.63l-.82.5a9.37,9.37,0,0,1-1.65.64A8.41,8.41,0,0,1,22,43.6Zm0-17.83A9.36,9.36,0,0,0,17.38,27a8.58,8.58,0,0,0-2.15,1.61,7.49,7.49,0,0,0-1.53,2.42,8.63,8.63,0,0,0-.6,3.28,9,9,0,0,0,.61,3.35,7.72,7.72,0,0,0,1.56,2.52,9.64,9.64,0,0,0,2.14,1.67,9.3,9.3,0,0,0,2.33,1,9,9,0,0,0,2.22.29,7.86,7.86,0,0,0,2.28-.37,8.54,8.54,0,0,0,1.55-.6l.82-.5a3.25,3.25,0,0,0,.7-.56.9.9,0,0,0,.26-.67,2.5,2.5,0,0,0-.49-1.21c-.51-.8-1-1.23-1.4-1.23a2.56,2.56,0,0,0-1,.44l-.42.3h0a4,4,0,0,1-1,.41,5.19,5.19,0,0,1-4.61-.89,4.39,4.39,0,0,1-1.28-1.58,5.31,5.31,0,0,1,0-4.5,4.23,4.23,0,0,1,1.26-1.56,5.41,5.41,0,0,1,3.17-1.11,4.37,4.37,0,0,1,2.8.85,2.15,2.15,0,0,0,1.08.48c.4,0,.92-.41,1.48-1.19a2.11,2.11,0,0,0,.46-1.19,1.23,1.23,0,0,0-.53-.95l-.65-.41-.57-.33a7.59,7.59,0,0,0-1.69-.68A7.52,7.52,0,0,0,22,25.77Zm2.16,12.8Z" transform="translate(-0.5 -3.17)"/><path d="M27,44.85a3.05,3.05,0,0,1-2-.5h0a1.84,1.84,0,0,1-.55-1.29v-.21a.23.23,0,0,1,.15-.21,7.06,7.06,0,0,0,1.13-.46l.82-.5a3.25,3.25,0,0,0,.7-.56.9.9,0,0,0,.26-.67,2.5,2.5,0,0,0-.49-1.21c-.51-.8-1-1.23-1.4-1.23a2,2,0,0,0-.84.34.22.22,0,0,1-.22,0,.21.21,0,0,1-.11-.19V33a7.59,7.59,0,0,1,0-.94,2.31,2.31,0,0,1,.25-.74,1.16,1.16,0,0,1,.44-.47.22.22,0,0,1,.18,0,.75.75,0,0,0,.24,0,1.17,1.17,0,0,0,.7-.32.33.33,0,0,1,.12-.05l.58,0c1.15,0,1.86.23,2.17.71a1.66,1.66,0,0,1,.24.48l.08-.09a5.34,5.34,0,0,1,1.13-.75,3.3,3.3,0,0,1,1.55-.48,6.74,6.74,0,0,1,1.08.07,6,6,0,0,1,1,.23,2,2,0,0,1,.93.61h0a2,2,0,0,1,.39,1.37,4.45,4.45,0,0,1-.53,2A1.8,1.8,0,0,1,33.4,35.7a2.23,2.23,0,0,1-1-.23,2.35,2.35,0,0,0-1.05-.19,1.88,1.88,0,0,0-1.19.45,1.32,1.32,0,0,0-.54,1.05v5.55a7.48,7.48,0,0,1,0,.94,2.2,2.2,0,0,1-.28.77h0C29,44.59,28.24,44.85,27,44.85ZM25.35,44A2.79,2.79,0,0,0,27,44.4c1,0,1.65-.2,1.87-.57a1.79,1.79,0,0,0,.22-.62,6.44,6.44,0,0,0,0-.88V36.78a1.75,1.75,0,0,1,.71-1.4,2.34,2.34,0,0,1,1.47-.55,2.81,2.81,0,0,1,1.25.24,1.92,1.92,0,0,0,.81.19,1.36,1.36,0,0,0,1.26-.89,3.92,3.92,0,0,0,.48-1.75,1.71,1.71,0,0,0-.28-1.08h0a1.52,1.52,0,0,0-.73-.47,6.05,6.05,0,0,0-.89-.22,7.11,7.11,0,0,0-1-.06,2.85,2.85,0,0,0-1.33.42,4.37,4.37,0,0,0-1,.67,3.54,3.54,0,0,0-.36.43.23.23,0,0,1-.41-.13,1.3,1.3,0,0,0-.25-.75h0c-.21-.34-.83-.51-1.79-.51l-.48,0a1.55,1.55,0,0,1-.92.37l-.26,0a.62.62,0,0,0-.2.23,1.91,1.91,0,0,0-.2.6A6.44,6.44,0,0,0,25,33v4.79a1.76,1.76,0,0,1,.72-.22c.58,0,1.16.47,1.78,1.44A2.9,2.9,0,0,1,28,40.45a1.41,1.41,0,0,1-.38,1,4.64,4.64,0,0,1-.8.63l-.82.5A5.82,5.82,0,0,1,25,43v0A1.41,1.41,0,0,0,25.35,44Z" transform="translate(-0.5 -3.17)"/><path d="M49,48.64a3.91,3.91,0,0,1-1.25-.16A1.22,1.22,0,0,1,47,47.9a1.8,1.8,0,0,1-.24-.68,5.88,5.88,0,0,1,0-.84V39.14a.3.3,0,0,1,0-.1,6.81,6.81,0,0,0,.66-3,7.12,7.12,0,0,0-.66-3.1.29.29,0,0,1,0-.09V32.4a6,6,0,0,1,0-.85,2.09,2.09,0,0,1,.22-.67c.27-.51.87-.77,1.81-.77a3.24,3.24,0,0,1,1.84.37,1.41,1.41,0,0,1,.5.65,3.67,3.67,0,0,1,2.74-1,5.35,5.35,0,0,1,3.87,1.91c.18.2.35.4.51.61a.21.21,0,0,1,.05.13v.06a4.64,4.64,0,0,0,.43,2.09,3.17,3.17,0,0,0,.73,1,.21.21,0,0,1,.07.15c0,.13,0,.26,0,.39a7.24,7.24,0,0,1-.09,1.15.22.22,0,0,1-.2.18.68.68,0,0,0-.51.3h0a3.63,3.63,0,0,0-.86,1.76.9.9,0,0,0,.13.51.23.23,0,0,1,0,.27c-.08.09-.15.18-.23.26a5.31,5.31,0,0,1-3.86,1.91,4,4,0,0,1-2.63-.78v4.29a6,6,0,0,1,0,.85,1.86,1.86,0,0,1-.24.68,1.2,1.2,0,0,1-.73.6A3.87,3.87,0,0,1,49,48.64Zm-1.83-9.45v7.19a7.2,7.2,0,0,0,0,.78,1.76,1.76,0,0,0,.19.52.76.76,0,0,0,.5.37,3.61,3.61,0,0,0,1.11.14,3.5,3.5,0,0,0,1.1-.14.77.77,0,0,0,.49-.38,1.8,1.8,0,0,0,.19-.53,7.42,7.42,0,0,0,0-.79V41.52a.22.22,0,0,1,.15-.21.2.2,0,0,1,.25.07,3.26,3.26,0,0,0,2.68,1,4.87,4.87,0,0,0,3.53-1.77l.12-.13a1.43,1.43,0,0,1-.12-.6,4,4,0,0,1,.95-2,1,1,0,0,1,.66-.46,7,7,0,0,0,.07-.92c0-.09,0-.18,0-.27a4,4,0,0,1-.76-1.08,5,5,0,0,1-.48-2.27,5.37,5.37,0,0,0-.44-.51,4.91,4.91,0,0,0-3.54-1.77,3.07,3.07,0,0,0-2.68,1.15.21.21,0,0,1-.23.08.22.22,0,0,1-.17-.19,1.09,1.09,0,0,0-.42-.79,2.86,2.86,0,0,0-1.58-.28c-.76,0-1.23.18-1.41.53a1.61,1.61,0,0,0-.18.52,7.42,7.42,0,0,0,0,.79v.38A7.65,7.65,0,0,1,47.89,36,7.34,7.34,0,0,1,47.21,39.19Zm6-.42a2,2,0,0,1-1.6-.71A2.28,2.28,0,0,1,51,36.51a2.35,2.35,0,0,1,.6-1.55,2,2,0,0,1,1.65-.73,2.16,2.16,0,0,1,1.66.71,2.28,2.28,0,0,1,.63,1.57,2.2,2.2,0,0,1-.67,1.57h0A2.24,2.24,0,0,1,53.17,38.77Zm0-4.09a1.6,1.6,0,0,0-1.31.57,1.89,1.89,0,0,0-.49,1.26,1.81,1.81,0,0,0,.5,1.25,1.61,1.61,0,0,0,1.27.56,1.79,1.79,0,0,0,1.33-.55h0A1.78,1.78,0,0,0,55,36.51a1.85,1.85,0,0,0-.51-1.27A1.7,1.7,0,0,0,53.2,34.68Z" transform="translate(-0.5 -3.17)"/><path d="M40.4,43.47a7.42,7.42,0,0,1-3.49-.89A7.6,7.6,0,0,1,34.07,40a6.85,6.85,0,0,1-1.17-3.92c0-.2,0-.4,0-.6a.26.26,0,0,1,.09-.16.2.2,0,0,1,.17,0l.22,0a1.36,1.36,0,0,0,1.26-.89,3.92,3.92,0,0,0,.48-1.75,1.69,1.69,0,0,0-.28-1.08l-.11-.11a.22.22,0,0,1,0-.31c.15-.16.3-.32.46-.46a7.51,7.51,0,0,1,4.57-2.1,2,2,0,0,0,.15-.85.2.2,0,0,1,0-.13c0-1.15.1-2.84.22-4.69a6.54,6.54,0,0,1-2,.8A5.71,5.71,0,0,1,32.88,22l-3.74-3.5a.21.21,0,0,1-.07-.2.24.24,0,0,1,.13-.17,14.83,14.83,0,0,1,2.37-.79,9.5,9.5,0,0,1,4.79-.07,7.11,7.11,0,0,1,3.38,2.29,7,7,0,0,1,.59.85,33.56,33.56,0,0,1,1.19-7.3,7.46,7.46,0,0,1,4.16-4.36,11.14,11.14,0,0,1,6.5-.61c4.4.84,5.86.57,5.87.57a.2.2,0,0,1,.22.08.21.21,0,0,1,0,.24,27.06,27.06,0,0,1-2.19,3.44c-1.81,2.42-3.63,3.94-5.42,4.52a13.2,13.2,0,0,1-7.85.41.23.23,0,0,0-.19,0,.26.26,0,0,0-.09.16c-.15,1.67-.66,7.32-.77,10.44,0,.19,0,.39.08.61a7.67,7.67,0,0,1,3.76,2,7.53,7.53,0,0,1,1.09,9.41,7.38,7.38,0,0,1-2.85,2.59A7.77,7.77,0,0,1,40.4,43.47Zm-7-7.77c0,.12,0,.24,0,.35a6.47,6.47,0,0,0,1.09,3.67,7.25,7.25,0,0,0,2.68,2.47A7,7,0,0,0,40.4,43a7.31,7.31,0,0,0,3.27-.78,7,7,0,0,0,2.67-2.44,7.06,7.06,0,0,0-1-8.83,7.13,7.13,0,0,0-3.68-1.89.2.2,0,0,1-.18-.17,7.22,7.22,0,0,1-.12-.83v0c.11-3.13.62-8.81.77-10.48A.66.66,0,0,1,43,17a12.74,12.74,0,0,0,7.58-.41c2.12-.68,4-2.75,5.21-4.36a27,27,0,0,0,1.94-3,25,25,0,0,1-5.6-.61c-4.68-.89-8.86,1-10.16,4.68a35.78,35.78,0,0,0-1.22,8,.23.23,0,0,1-.19.21.23.23,0,0,1-.24-.14,6.73,6.73,0,0,0-.91-1.47,6.53,6.53,0,0,0-3.15-2.13c-2.5-.76-5.56.32-6.53.71l3.48,3.26a5.27,5.27,0,0,0,4.88,1.55,5.75,5.75,0,0,0,2.21-1,.23.23,0,0,1,.24,0,.22.22,0,0,1,.12.21c-.13,2.07-.21,4-.25,5.22a.15.15,0,0,1,0,.07,2.57,2.57,0,0,1-.24,1.12.22.22,0,0,1-.19.14,7.13,7.13,0,0,0-4.44,2l-.29.29a2.05,2.05,0,0,1,.38,1.35,4.45,4.45,0,0,1-.53,2A1.77,1.77,0,0,1,33.36,35.7Zm7,3.12a3,3,0,0,1-1.85-.7A2.5,2.5,0,0,1,37.58,36a2.56,2.56,0,0,1,.91-2.11,3,3,0,0,1,1.91-.71,3.1,3.1,0,0,1,1.91.68h0a2.88,2.88,0,0,1-.06,4.24A3.11,3.11,0,0,1,40.37,38.82Zm0-5.18a2.53,2.53,0,0,0-1.63.61A2.09,2.09,0,0,0,38,36a2.06,2.06,0,0,0,.76,1.76,2.58,2.58,0,0,0,1.58.6A2.68,2.68,0,0,0,42,37.75,2.44,2.44,0,0,0,42,34.22h0A2.6,2.6,0,0,0,40.4,33.64Z" transform="translate(-0.5 -3.17)"/><path d="M62.58,42.36A8.48,8.48,0,0,1,58,41h0a1.23,1.23,0,0,1-.56-1.1,4,4,0,0,1,.95-2,1.14,1.14,0,0,1,1-.5,3.72,3.72,0,0,1,1.71.61,3.46,3.46,0,0,0,1.7.56c.78,0,1.24-.13,1.24-.35,0,0,0-.27-1.41-.45a8.09,8.09,0,0,1-3.08-1.16,3.34,3.34,0,0,1-1.23-1.44,5.09,5.09,0,0,1-.48-2.29,3.52,3.52,0,0,1,1.39-3,6.9,6.9,0,0,1,4-1,8.57,8.57,0,0,1,3.58.84c.65.29,1,.68,1,1.16a3,3,0,0,1-.56,1.53c-.39.63-.82.94-1.26.94a3,3,0,0,1-1.16-.38,3.88,3.88,0,0,0-1.6-.33c-.87,0-1.18.16-1.18.3,0,.43.77.62,1.43.71a9.16,9.16,0,0,1,3.13.93,2.91,2.91,0,0,1,1.26,1.25,4.39,4.39,0,0,1,.5,2.18,4.68,4.68,0,0,1-.5,2.23,3.26,3.26,0,0,1-1.4,1.4h0A9,9,0,0,1,62.58,42.36Zm-4.32-1.75a8.06,8.06,0,0,0,4.32,1.3,8.75,8.75,0,0,0,3.74-.71A2.94,2.94,0,0,0,67.53,40,4.31,4.31,0,0,0,68,38a4,4,0,0,0-.44-2,2.66,2.66,0,0,0-1.06-1.07,8.85,8.85,0,0,0-3-.89h0c-.45-.06-1.82-.24-1.82-1.15,0-.75,1.23-.75,1.63-.75a4.06,4.06,0,0,1,1.78.38,2.91,2.91,0,0,0,1,.33c.28,0,.58-.24.88-.73a2.61,2.61,0,0,0,.5-1.29c0-.29-.24-.54-.71-.75a8.22,8.22,0,0,0-3.4-.8c-3.35,0-5,1.17-5,3.56a4.64,4.64,0,0,0,.43,2.09,3,3,0,0,0,1.06,1.26,7.67,7.67,0,0,0,2.91,1.1c1.24.16,1.8.44,1.8.89,0,.8-1.27.8-1.69.8a3.91,3.91,0,0,1-1.93-.62,3.31,3.31,0,0,0-1.48-.56.71.71,0,0,0-.66.31h0a3.63,3.63,0,0,0-.86,1.76.77.77,0,0,0,.35.72Z" transform="translate(-0.5 -3.17)"/><path class="cls-37" d="M24.71,27.29" transform="translate(-0.5 -3.17)"/></svg>