<?xml version="1.0" encoding="utf-8"?>
<!-- Generator: Adobe Illustrator 25.0.0, SVG Export Plug-In . SVG Version: 6.00 Build 0)  -->
<svg version="1.1" id="Ebene_1" xmlns="http://www.w3.org/2000/svg" xmlns:xlink="http://www.w3.org/1999/xlink" x="0px" y="0px"
	 viewBox="0 0 233.9 367.9" style="enable-background:new 0 0 233.9 367.9;" xml:space="preserve">
<style type="text/css">
	.st0{fill:#030405;}
	.st1{fill:#F59C16;}
	.st2{fill:#73AB2E;}
	.st3{fill:#FBD401;}
	.st4{fill:#71AC2E;}
	.st5{fill:#FAD400;}
	.st6{fill:#F7D407;}
	.st7{fill:#FCD603;}
	.st8{fill:#44A3DC;}
	.st9{fill:#FFD207;}
	.st10{fill:#FFD307;}
	.st11{fill:#F7D707;}
	.st12{fill:#FBD601;}
	.st13{fill:#5C9231;}
	.st14{fill:#FED206;}
	.st15{fill:#FED207;}
	.st16{fill:#F49C16;}
	.st17{fill:#FDD106;}
	.st18{fill:#5C9331;}
	.st19{fill:#72AC2E;}
	.st20{fill:#EE9A17;}
	.st21{fill:#6EA330;}
	.st22{fill:#0A0804;}
	.st23{fill:#F9BC0D;}
	.st24{fill:#F7B012;}
	.st25{fill:#6EAF2F;}
	.st26{fill:#70AF2E;}
	.st27{fill:#71B02E;}
	.st28{fill:#1E150D;}
	.st29{fill:#1D150D;}
	.st30{fill:#38AAE1;}
	.st31{fill:#FBD204;}
	.st32{fill:#7F6951;}
	.st33{fill:#7F6A52;}
</style>
<g>
	<path class="st0" d="M58.4,145.6c-21.3-17-35.3-38.9-45-63.8c-1.8-4.7-2.6-9.7-4.3-14.4C7.4,63,9.3,62.3,13,62
		c16.9-1.3,30.7,5,42.8,16.3c0.6,0.6,1.2,1.2,1.9,1.6c0.2,0.1,0.6,0,1-0.1c-5.4-16.6-9.2-33.3-8.7-50.9c0.2-4.8,1-9.5,2.1-14.1
		c0.6-2.4,1.7-3.4,4.9-2.7c15.5,3.3,25.7,13.4,34.1,25.8c9.8,14.4,15,30.8,19.4,47.7c1.4-13.6,3.6-26.9,8.3-39.8
		c5.2-14,14.7-24.7,25.5-34.5c2.3-2.1,4.1-0.9,5.9,1c5.4,5.7,7.6,12.9,9.4,20.2c3.2,12.9,1.8,26.1,2,37.8c3.4-3,7.7-6.4,11.6-10.2
		c6.5-6.4,14.3-10.1,23.1-11.8c5.3-1,7.8,1.6,8.3,7.5c1.1,13.4-3.2,25.6-8.2,37.5c-6.9,16.4-14.8,32.4-24.9,47.1
		c-1.3,1.9-0.5,2.6,0.8,3.5c14.4,10,24.9,23.3,32.7,38.9c1.1,2.3,2.4,3.2,4.9,3c3.9-0.2,6.1,1.7,6.8,5.6c0.9,4.9,2.1,9.7-0.8,14.3
		c-1,1.6,0.4,2.5,0.8,3.5c10.1,29.3,14,59,4.8,89.4c-8.7,28.8-27.8,46.4-56.4,54.6c-15.9,4.6-32.1,7.3-48.7,6.8
		c-20.8-0.6-40.8-4.3-59.9-13.5c-24-11.5-36.8-31-42.3-55.9c-4.4-19.9-4.1-39.9-0.4-60.1c2.2-11.7,5.8-23.3,4.2-35.5
		c-0.3-2.6,0.8-4.6,3.4-5.2c3-0.7,4.3-2.7,5.6-5.4c6.3-13.8,14.8-26,27.1-35.2C55.8,148,57,146.7,58.4,145.6z"/>
	<path class="st1" d="M221.7,260.6c0.6,2.9,0.3,5.8-0.1,8.8c-9.1,6.7-19.4,11.3-29.1,16.8c-0.6,0.3-1.2,0.5-1.8,0.9
		c-5.1,2.6-5.1,3.3-0.7,7c6.2,5.2,12.2,10.7,19.2,14.8c0.9,0.5,2.2,1.1,1.5,2.7c-0.5,2.2-1.6,4.1-3.1,5.8c-4,0.3-6.8-2.4-9.5-4.6
		c-6.4-5-13.1-9.7-18.8-15.5c-2.1-2.1-4.2-2.2-6.7-0.9c-5.2,2.7-10.4,5.2-15.6,7.8c-6.2,2.2-11.9,5.7-18.1,8.1
		c-2.4,1-3.6,2.5-1.2,4.8c8.1,7.8,15.5,16.3,24.1,23.5c0.9,0.7,1.7,1.4,2.5,2.2c1.2,1.6,3.4,2,4.4,3.8c-3.2,1.3-6.3,3-10,2.6
		c-3.2-0.9-5.4-3.3-7.6-5.5c-7.3-7.2-15-14.1-21.6-22.1c-2.1-2.5-4.5-3.3-7.5-2.2c-11.2,4.4-22.6,8.6-34.9,12.9
		c5.8,5.7,10.9,11.3,16.7,16.2c1.8,1.5,4.5,2.6,4,5.7c-4,0.3-8,0.1-11.9-1.1c-5.8-3.1-9.7-8.4-14.2-13c-3.5-3.5-6.7-5.1-11.8-3.3
		c-5.1,1.7-10.6,2.6-16,3.1c-3.3-1.9-6.7-3.6-9.2-6.4c0.9-2.4,3.1-2.2,5-2.4c6.3-0.6,12.3-2.3,19-3.5c-2.8-4.7-6.5-8-9.7-11.8
		c-6.1-7.4-12.4-14.7-18.3-22.3c-2.2-2.8-4.5-3.9-8.1-3c-4.2,1-8.4,2.2-12.6,2.9c-1.1-2.5-1.7-5.2-1.7-7.9c2-2.4,5-2.4,7.7-3.1
		c4.4-1.1,4.6-1.4,2.2-5.1c-2.5-3.9-5.3-7.7-8-11.4c-1.7-2.3-3.1-4.7-3.9-7.4c-0.1-5-0.5-10.1,0.7-15.1c5,10.3,12.5,18.9,18.9,28.3
		c0.8,2.2,2.2,3.8,4,5.1c2.8,1.8,5.6,0.3,8.3-0.3c3.3-1.1,6.7-1.8,10-2.7c0.4-0.2,0.9-0.3,1.3-0.4c5.7-2.1,11.5-4,17.3-5.7
		c4.2-1.3,4.1-1.5,1.6-5.3c-1.4-2.1-3.8-3.8-3.5-6.8c2.3-0.6,4.7-1.3,7-1.9c2.8,0.6,3.9,3,5.3,4.9c2.3,3.1,4.8,3.8,8.5,2.3
		c8.9-3.6,17.8-7.2,26.6-11c3.3-1.3,6.9-2.1,9.2-5.1c0.5-5.2-3.6-6.5-7-8.4c-5.6-3.8-9.5-9.1-12.7-14.9c0.6-2.8,1.4-5.5,2.7-8.1
		c4.5,1.9,6.3,6.3,9.1,9.7c0.9,1.1,1.1,2.7,2.6,3.4c4.2,9.3,10.5,16.7,19.3,21.9c9.4,9.7,18.2,20.1,27.9,29.6
		c4.8,4.7,4.8,4.7,11,1.6c10.9-5.6,21.6-11.6,32.2-17.7C218.2,261.1,219.6,259.5,221.7,260.6z"/>
	<path class="st2" d="M114.9,126.9C114.9,126.9,114.9,126.9,114.9,126.9L114.9,126.9C114.9,126.9,114.9,126.9,114.9,126.9z"/>
	<path class="st2" d="M115.1,127c0,0-0.1,0-0.2,0c0,0,0,0,0,0h0C115,126.9,115.1,126.9,115.1,127z"/>
	<path class="st2" d="M156.7,43.4c-0.5-7.6-2.1-15.1-5.8-21.9c-3.3-6.1-3.8-6.2-8.7-1.6c-16.2,15.6-23.7,35.2-25.3,57.2
		c0,0,0,0.1,0,0.1c-1.3,2.9-0.9,5.9-0.8,8.9c0,0,0,0,0,0c-2,13.6-0.5,27.2-1.1,40.8c0,0,0,0,0,0c0,0,0,0,0,0v0
		c-0.9,0.7-1.9,1-3.1,0.9c-0.4-0.3-0.7-0.5-1.1-0.8c-1.1-3.1-0.6-6.3-0.8-9.5c-0.8-10.7-1.8-21.3-5-31.7c0.1-0.3,0-0.6-0.1-0.9
		c-1.8-9.4-4.4-18.5-8.8-27c0,0,0,0-0.1,0.1c-0.2,0.1-0.3,0.3-0.4,0.3c0.1-0.1,0.3-0.2,0.4-0.4c0,0,0-0.1,0.1-0.1l0,0.1
		c-2.7-8.4-7.3-15.8-12.8-22.6c-5.7-7.1-12.2-13.4-21.2-16.2l0,0c0,0,0,0-0.1,0c-0.1,0-0.2,0-0.3,0.1c0.1,0,0.2-0.1,0.3-0.1
		c0,0,0,0,0,0c-2.6-0.9-6.1-4.8-6.2,2c0,0,0,0,0,0.1c-1.5,6-1.2,12-0.6,18c0,0,0,0,0,0c-0.1,2.4-0.3,4.7,0.7,6.9c0,0,0,0,0,0.1
		C59.5,66.1,65.5,84.9,74,103c4.9,10.5,12.8,19,20,27.9c0.1,0.1,0.2,0.1,0.3,0.1c4.6-0.6,9.2-1.2,13.8-1.8c0.5,0,1.1-0.1,1.6-0.1
		c10.1-0.2,20.1,0.1,30.1,1.1c0.1,0,0.1,0,0.2-0.1c0.8-0.6,1.1-1.5,1.5-2.4c6.8-15.9,11.9-32.3,14.2-49.5
		C157.7,66.7,157.5,55,156.7,43.4z M56.8,41.1c0,0,0-0.1,0-0.1c0,0,0-0.1-0.1-0.1c-0.4-0.2-0.1-0.1,0.1-0.3c0-0.1,0-0.2,0-0.4
		c0,0,0,0,0,0.1c0.1,0.2,0.1,0.2,0,0.3c0,0.1,0,0.2,0,0.4C56.9,41.2,56.8,41.4,56.8,41.1z M115.1,127.1L115.1,127.1c0,0,0.1,0,0.2,0
		C115.2,127.1,115.1,127.1,115.1,127.1z"/>
	<path class="st2" d="M56.6,40.5c0-0.1,0-0.2,0-0.4c0,0,0,0,0,0.1C56.7,40.4,56.6,40.4,56.6,40.5z"/>
	<path class="st2" d="M56.6,41c0,0,0-0.1,0-0.1C56.8,41,56.7,41.3,56.6,41z"/>
	<path class="st2" d="M62.1,19.2C62.1,19.2,62.1,19.2,62.1,19.2c-0.2,0-0.3,0-0.4,0.1C61.8,19.3,61.9,19.2,62.1,19.2
		C62.1,19.2,62.1,19.2,62.1,19.2L62.1,19.2L62.1,19.2z"/>
	<path class="st2" d="M96.1,58L96.1,58L96.1,58C96.1,58,96.1,58.1,96.1,58c-0.2,0.2-0.4,0.3-0.5,0.4c0.1-0.1,0.3-0.2,0.4-0.4
		C96,58,96.1,58,96.1,58L96.1,58z"/>
	<path class="st3" d="M145.9,184.8l-0.1,0h0c-2.1,1.3-4.6,1.2-6.9,1.7c-2.9,0.7-5.8,1.1-8.6,2.1c-12.7,4.5-25,0.3-37.3-1.9
		c-4.2-2.1-6.5-6.1-9.3-9.5c-2.8-3.2-5.1-6.9-7.8-10.4c-2.5-3.3-2.2-5.1,1.4-6.6c11.4-5,22.9-9.8,33.7-16c2.6-1.5,4.9-0.9,6.6,1.4
		c9.2,11.8,18.3,23.6,27.6,35.3C146,181.9,147,183.2,145.9,184.8z"/>
	<path class="st4" d="M199.7,65.3c-1.3,6.3-1.8,12.9-5.1,18.7c-3.7,8.4-9.3,15.7-14.3,23.3c-6.3,8.4-13.9,15.4-21.4,22.6
		c-2,2-4.1,3.9-7.3,3.1c-1.8-0.2-3.6-0.4-2.5-2.9c4.8-11,6.6-22.8,9.6-34.2c0,0,0,0,0,0c0.2-16.7,10.8-26.8,22.9-35.9l0.2,0.2
		c0,0,0,0,0,0c0,0,0,0,0,0c-0.1-0.1-0.1-0.1-0.2-0.2c1.3-1.6,3-2.5,5-3c2.7-1.8,5.6-3,8.9-3c1.3-0.7,2.7-1.7,4,0.1
		c0.1,0.5,0.2,1.1,0.4,1.6C201.1,59,201.1,62.2,199.7,65.3z"/>
	<path class="st2" d="M181.8,60.2C181.8,60.2,181.8,60.2,181.8,60.2l-0.2-0.2C181.7,60.1,181.7,60.1,181.8,60.2
		C181.8,60.2,181.8,60.2,181.8,60.2z"/>
	<path class="st5" d="M158.7,349.1c-6.5,3.2-13.7,3.8-20.6,4.5c-10,1.1-20.1,2.6-30.2,0.6c-6.4-6.2-12.8-12.4-19.1-18.7
		c-1.2-1.1-2.7-2-3.2-4.1c12.7-4.1,25.2-8.9,37.7-13.8c2.5-1,4.5-0.2,6.2,1.8c8.6,10.3,18.3,19.6,28.4,28.4
		C158.2,348.2,158.4,348.7,158.7,349.1z"/>
	<path class="st2" d="M80.6,132.1c-5.9-10.5-10.4-21.6-15.4-32.5c-0.3-2-1.1-3.9-2.2-5.7c-1.8-6.2-7.1-9.4-11.8-13c0,0,0,0,0,0
		c-0.7-1.2-1.9-2-3.1-2.6c-0.1-0.3-0.4-0.4-0.7-0.4c-1.8-1.8-3.8-3.2-6.2-4c-1.3-0.7-2.6-1.4-3.9-2.1c-5.3-3-10.8-5-17-4.7
		c-0.6,1.4,0.3,2.5,0.7,3.8C24,81.3,29,90.9,33.5,100.7c3.5,7.7,8.3,14.3,14.2,20.1c2.4,2.3,4.4,5,6.8,7.2
		c4.6,4.1,8.1,9.6,14.7,11.1c3.4-1.3,6.7-2.8,10.1-3.8C81.6,134.6,81.5,133.7,80.6,132.1z M60.5,93.4c0,0,0-0.1-0.1-0.1
		C60.5,93.3,60.5,93.3,60.5,93.4C60.5,93.4,60.5,93.4,60.5,93.4z"/>
	<path class="st1" d="M145.9,184.8c-2.8-6.5-8.2-11-12.2-16.6c-5.1-7.1-10.7-13.8-15.9-20.8c-2.1-2.8-3.8-4-7.3-1.8
		c-10.1,6.3-21.1,10.8-32.2,15.3c-3,1.2-4.1,2.2-1.6,5.2c5.6,6.7,10.9,13.7,16.3,20.5c-3.7-0.2-7.4-0.6-10.9-1.7
		c-4.8-3.7-7.8-8.9-11.4-13.6c-2.9-3.7-5.4-4.6-10.1-2.2c-4.8,2.5-10,4.2-15.3,4.7c-2.2,0.2-4.6,2-6.8-0.1c1.8-3.3,3.8-6.4,6.6-8.9
		c3.5-2.2,7.4-3.4,11.4-4.5c2.9-0.8,4.1-1.9,1.8-4.6c-0.8-0.9-0.9-2.1-0.2-3.2c1.4-1.6,3.1-2.8,5.1-3.6c1.3,0.1,2.3,0.8,2.9,1.7
		c2.9,5.1,6.6,3.9,10.9,2.1c9.3-4,18.5-8,27.3-13c2.1-1.2,3.7-2.7,4.8-4.8c7.3-1.5,14.5-1.3,21.8-0.1c-8.2,5.5-8.3,5.5-2.1,13.6
		c7.1,9.1,14,18.5,21.4,27.3c2.3,2.8,4.3,3.4,7.6,1.6c7.5-4.1,14.9-8.5,21.9-13.5c1.6-1.1,3-2.8,5.3-1.9c1.8,1.2,3.1,2.8,3.9,4.7
		c0.7,1.9-0.8,2.7-1.9,3.5c-6.1,4.4-12.1,9-19.3,11.7C160.4,182.7,153.1,183.8,145.9,184.8z"/>
	<path class="st6" d="M184.9,161.7c-9,5.7-17.8,11.9-27.3,16.9c-3.6,1.9-5.6,1.4-7.9-1.5c-8.6-11-17.3-22-26-33
		c-3.2-4-1.6-7.2,4.6-9.1c0.8-0.2,1.6-0.2,2.5-0.3C152.6,136.2,170.9,144.7,184.9,161.7z"/>
	<path class="st7" d="M221.7,260.6c-13.1,7.3-26.1,14.8-39.5,21.7c-3.2,1.7-5.1,1.2-7.5-1.3c-9.8-9.9-19.1-20.1-28.3-30.5
		c-0.5-0.6-1.4-1-0.6-2c12.6,6.1,25.7,7.5,39.4,4c5.9-1.5,10.9-4.5,15.6-8.1c1.2-0.4,2.4-0.1,3.2,0.7c5.4,4.8,11.9,8,17.7,12.3
		C222,258.5,222.1,259.5,221.7,260.6z"/>
	<path class="st8" d="M213.7,193.6c-0.2-2.8-1.5-4.3-4.2-4.6c-11-1.1-22-2.4-33.1-3.2c-15.9-1-31.1,3-46.4,6.4
		c-7.8,1.7-15.3,3-23.4,0.8c-5-1.4-10.3-2.7-15.6-2.3c-0.5-0.2-1-0.3-1.5-0.5c-5.7-1.7-11.6-2.1-17.4-2.5c-15.7-1-30.9,2.2-46.2,4.7
		c-1.4,0.4-3.8-0.8-3.7,2.2c-1.1,5.4-3.4,11.1,3.7,14.4c1.2,0.6,1.3,2.2,1.4,3.5c0.2,3.1,0.4,6.3,1,9.4c2,9.7,4.4,19.5,13.8,24.8
		c14.3,8.1,29.2,8,44,0.8c7-3.2,12.9-7.5,16.1-14.8c5.1-7,6.8-15.3,9.7-23.2c0.3-0.1,0.4-0.3,0.4-0.6c10.3-1.9,10.4-1.7,14.4,8
		c3.1,7.7,5.9,15.7,12.2,21.6c13.6,13.8,37.7,15,51.2,8.1c0.7,0,1.5-0.1,1.8-0.9c3.2-1.3,6-3.1,7.7-6.3c0.5-0.6,1-1.2,1.5-1.8
		c6-8.1,6.5-17.7,7.4-27.2c0.2-1.6-0.3-3.8,1.3-4.5C215.8,203.2,214,198.3,213.7,193.6z M103.5,213.2c-0.5,5.7-3.5,10.7-4.4,16.2
		c0,0,0,0,0,0c-0.4,0.1-0.8,0.3-1,0.7c-4.2,5.7-8.8,11.1-14.8,15c-0.4,0.2-0.4,0.7-0.4,1.1c-0.4,0-0.7-0.2-1-0.4
		c-3.3-0.3-6.4,1.4-9.7,1.3c-3.5,0-7,0-10.5,0c-3.4-0.1-6.6-1.2-9.9-1.8c-1.7-0.2-3.3-1-4.8-1.9c-5-3.2-8-7.8-10-13.2
		c-3.6-10.1-3.5-20.1,0.4-30.1c0-0.2-0.1-0.4-0.2-0.6c0.7-0.2,1-0.8,0.8-1.6c0.1,0,0.1,0.1,0.2,0.1c1.8-0.1,3-1.3,4.4-2.1
		c8.2-4,16.9-5.3,25.9-4.2c3.1,0.5,6.3,0.2,9.4,0.6c2.6,0.3,5.2,1.4,7.6-0.6c0,0,0.1,0,0.1,0c0.4,3,3.3,2.3,5.1,3
		c5.3,2.3,10.8,4.2,12.4,10.8C103.7,208.1,103.7,210.6,103.5,213.2z M197.9,232.2c0,0.5,0,1,0.1,1.5c0,0.1,0.1,0.1,0.1,0.2
		c-3.8,3.2-7.6,6.3-11.1,9.8c-0.5-0.2-0.9-0.2-1.4-0.3c-1.8-0.1-3.6,0.5-5.4,0.8c-9.4,1.5-18.7,2-27.8-1.3c-1.6-0.6-2.9-1.7-4.2-2.8
		c-1.7-1-3-2.8-5.2-2.6c-0.1-1.7-1.1-2.9-2.1-4.1c-4.4-5.4-6.5-11.7-8.3-18.2c-0.8-2.8-0.7-5.9-2-8.6c-0.2-0.3-0.4-0.5-0.7-0.7
		c-0.1-0.1-0.2-0.2-0.3-0.2c0.1,0,0.2,0,0.3,0c0.3,0.1,0.7,0.4,1,0.1c3.2-7.6,9.5-11,17.1-12.9c6-1.5,12-2.6,18.1-3
		c0.5-0.1,1-0.2,1.5-0.3c3.5-0.6,6.9-0.7,10.4,0.2c2.2,0.5,4.6,0.2,6.7,1c9.1,1.9,14.3,7.2,16,16.6C202.2,216,200.3,224,197.9,232.2
		z"/>
	<path class="st8" d="M91,190.7c-0.5-0.2-1-0.3-1.5-0.5C90,190.3,90.5,190.4,91,190.7z"/>
	<path class="st9" d="M207.6,317.3c-7.8,14.7-20.7,22.7-35.8,27.9c-0.8,1-1.9,1-3,1.2c-2.3-0.1-3.9-1.2-5-3.2
		c-0.7-0.6-1.3-1.2-2-1.9c-4.1-1.5-6.3-5.2-9.3-8c-5.6-5.4-11-11-16.5-16.5c-1.6-1.5-3.1-3.2,0-4.5c7-2.9,13.5-7.1,20.9-9.1
		c5.5-3.7,11.8-6,17.5-9.2c2.6-1.5,3.9,0.4,5.5,1.9C188.5,303.9,197.2,311.6,207.6,317.3z"/>
	<path class="st10" d="M67.1,329.2c-7.4,1.4-14.9,2.8-22.3,4.2c-0.3,0-0.5-0.1-0.7-0.3c-1.5-0.4-2.3-1.6-3.2-2.8
		c-11.3-9.9-17.6-22.7-20.9-37.1c2.7-3.3,6.9-2.3,10.3-3.7c5.9-2.5,9.4,0.1,13.1,4.9c8,10.5,16.7,20.5,25.4,30.5
		C71.6,328.2,69.9,328.7,67.1,329.2z"/>
	<path class="st11" d="M80.7,267.7c-7.2,2.1-14.4,4.5-21.6,6.7v0c-3.4,1.8-7.2,2.4-10.9,3c-3,0.7-6,3.8-9,0c-1-1.9-2.8-3.2-4-5
		c-5.1-7.1-10.3-14.1-15.4-21.2c-1.6-2.3-2.7-4.9-2.7-7.8c0.1-3.7,0.4-7.3,1.4-10.9c2-2.9,4.9-2.5,7.8-1.9c1.4,3.3,2.9,6.5,4.3,9.8
		c0.9,0.7,1.6,1.6,1.8,2.8c3.9,4.5,8.7,7.6,13.9,10.3c9.5,2.6,19,3.4,28.8,2.1c2.1,2.9,4.2,5.9,6.4,8.7
		C82.8,266,83.3,266.9,80.7,267.7z"/>
	<path class="st9" d="M210.7,311.5c-8.5-5.4-16.2-11.9-23.9-18.4c-2.9-2.5-3.2-3.8,0.7-5.8c10.6-5.4,21.2-10.9,31.2-17.3
		c0.8-0.5,1.9-0.5,2.8-0.7C221.5,284.3,218.2,298.5,210.7,311.5z"/>
	<path class="st12" d="M132.8,245.5c-2.6,3.1-6.1,4.4-9.9,5.1c-9.6,5.3-20,8.6-30.1,12.7c-1.6,0.6-3.1,0.2-4.3-1.5
		c-2-2.8-4.3-5.4-6.5-8.1c15.5-5.6,24.6-17.1,29.9-32.1c5,4.1,7.8,10.3,13,14.2c1.3,6.8-3.1,10.9-10.5,9.6c-2-0.4-3.8-1.3-5.7-1.8
		c-0.8-0.2-1.8-0.4-2.3,0.4c-0.7,1.1,0.2,1.9,1,2.5c2.3,1.8,5,2.6,7.8,2.8c2.1,0.1,4.3-0.2,6.4,0.4c0.2,0.1,0.4,0.2,0.6,0.4
		C126,248.7,128.5,245.1,132.8,245.5z"/>
	<path class="st9" d="M38.3,173.8c8.5-1.1,16.7-3.9,24.6-7c3.2-1.2,5.2-1,7.1,1.9c3.7,5.6,8.8,10.2,12,16.2
		c-17-2.5-33.8-0.1-51.3,3.2C32.9,182.5,35.2,177.9,38.3,173.8z"/>
	<path class="st13" d="M20.2,67.2c0.9,1.9,2.1,3.8,2.7,5.8c3.7,12.3,9.9,23.4,15.6,34.8c1.4,2.8,3.3,5.4,5.5,7.6
		c8.1,8.2,15.4,17.3,25.2,23.8c-4.7,4.4-8.8,1.9-12.7-1.2c-9.1-7.6-16.3-16.8-22.9-26.6c-7.9-11.9-14.2-24.6-18.5-38.3
		C13.4,66.8,13.5,66.7,20.2,67.2z"/>
	<path class="st9" d="M108.9,134.9c0.8,2.2,0.2,3.4-1.9,4.6C95.8,146,84.1,151,72.2,155.8c-2.1,0.9-3.4,0.5-4.6-1.2
		c-1.5-2-3-3.9-4.6-5.8C76.9,139.5,92.3,135.2,108.9,134.9z"/>
	<path class="st14" d="M54,339.9c3.1-2.7,7.3-1.6,10.7-3.1c9.1-4.1,15.9-1.6,21.7,6.2c2.7,3.7,6.4,6.7,9.6,10.1
		C81.1,351.7,67.1,347.2,54,339.9z"/>
	<path class="st13" d="M151.6,133c2.2-0.4,4-1.4,5.5-3c6.5-6.9,14.2-12.7,19.7-20.5c0.7-1,1.9-1.7,2.9-2.6c2-0.6,3.3-3.4,6-2
		c-4.9,11.3-10.8,22-17.8,32.1c-1.3,0-1.9,1.3-3,1.6C160.4,136.8,156,134.9,151.6,133z"/>
	<path class="st13" d="M55.9,46.2c3.4,4.5,2.7,10.1,3.8,15.1c2.7,12.4,8,23.7,12.6,35.4c3.8,9.7,9.7,17.9,16.5,25.8
		c2.1,2.5,3.5,5.6,5.2,8.5c-7.2,2.5-7.2,2.5-10.5-3.9c-12-23.5-21.8-47.9-26.9-73.9C56.2,50.8,56.2,48.5,55.9,46.2z"/>
	<path class="st15" d="M205.5,238.5c3.6-8,6.3-16.3,6.8-25.4c5,10.9,7.5,22.5,8.6,34.5c0.5,1.9-0.4,2.7-2,2
		C213.4,247.1,208.2,244.2,205.5,238.5z"/>
	<path class="st9" d="M167.7,181.7c5.7-3.9,11.5-7.7,17.1-11.7c1.5-1,3.3-1.7,4-3.6c5,5.2,8.2,11.5,12.2,18.2
		C189.4,183,178.6,182.1,167.7,181.7z"/>
	<path class="st14" d="M16.3,258.5c4.7,6.6,9.4,13.2,14.2,19.7c2.2,2.9,1.4,4.3-2,4.9c-3.4,0.7-6.8,1.5-10.2,2.2
		C16.1,276.5,15.8,267.6,16.3,258.5z"/>
	<path class="st13" d="M139.8,130c0-3.6,1.8-6.7,3.1-9.9c5.6-13,9-26.6,11.9-40.4c0.1-0.6,0.5-1.2,0.8-1.7
		c-1.1,17.4-5.1,34.2-11.3,50.5C143.6,130.7,142.1,131.8,139.8,130z"/>
	<path class="st16" d="M205.5,238.5c3.8,3.1,7.6,6.2,11.5,9.1c0.9,0.7,2.6,2.9,3.8,0c1.3,3.2,0.7,6.6,0.7,9.9
		c-6.2-1.7-11.1-5.8-16.1-9.5c-1.6-1.2-3.2-2.3-4.8-3.5C202.3,242.5,203.9,240.5,205.5,238.5z"/>
	<path class="st17" d="M57.9,152.5c0.3,0.8,0.4,1.6,0.9,2.3c3.5,5,3.5,5-2.1,6.7c-3.9,1.1-7.6,3.1-11.7,3.4
		C48.5,159.9,52.7,155.7,57.9,152.5z"/>
	<path class="st18" d="M185.7,105c-2.4-0.5-3.2,3.7-6,2c4.3-8,9.8-15.4,14.9-22.9C192.6,91.4,189.3,98.3,185.7,105z"/>
	<path class="st19" d="M60.6,93.3C60.5,93.4,60.5,93.4,60.6,93.3c-0.1,0-0.1,0-0.2-0.1C60.5,93.3,60.5,93.3,60.6,93.3z"/>
	<path class="st4" d="M56.6,40.9C56.6,40.8,56.6,40.8,56.6,40.9c-0.5-0.2-0.2-0.2,0-0.4C56.6,40.6,56.6,40.7,56.6,40.9z"/>
	<path class="st4" d="M56.6,40.5c0-0.1,0-0.2,0-0.4c0,0,0,0,0,0.1C56.7,40.4,56.6,40.4,56.6,40.5z"/>
	<path class="st4" d="M56.6,41c0,0,0-0.1,0-0.1C56.8,41,56.7,41.3,56.6,41z"/>
	<path class="st4" d="M62.1,19.2C62.1,19.2,62.1,19.2,62.1,19.2c-0.1,0-0.2,0.1-0.4,0.1C61.8,19.3,61.9,19.2,62.1,19.2
		C62.1,19.2,62.1,19.2,62.1,19.2z"/>
	<path class="st4" d="M62.1,19.2C62.1,19.2,62.1,19.2,62.1,19.2L62.1,19.2L62.1,19.2L62.1,19.2z"/>
	<path class="st12" d="M126.4,226.6c-5.1-3.3-7.6-9-11.7-13.1c3.1-2.8,5.4-2.6,6.8,0.8C123.2,218.3,124.8,222.5,126.4,226.6z"/>
	<path class="st19" d="M60.6,93.3C60.5,93.4,60.5,93.4,60.6,93.3c-0.1,0-0.1,0-0.2-0.1C60.5,93.3,60.5,93.3,60.6,93.3z"/>
	<path class="st20" d="M26.2,230.6c-2.4,1.6-5.4,0.4-7.8,1.9c0.2-3,0.6-6.1,1.6-9c1.5-0.1,3-0.6,4.4-0.8
		C25,225.3,25.6,228,26.2,230.6z"/>
	<path class="st11" d="M24.4,222.7c-1.1,2.4-2.6,2.4-4.4,0.8c0.2-4,1.4-7.7,2.6-12.1C24.7,215.3,23.9,219.1,24.4,222.7z"/>
	<path class="st2" d="M60.6,93.3C60.5,93.4,60.5,93.4,60.6,93.3c-0.1,0-0.1,0-0.2-0.1C60.5,93.3,60.5,93.3,60.6,93.3z"/>
	<path class="st2" d="M62.1,19.2C62.1,19.2,62.1,19.2,62.1,19.2c-0.2,0-0.3,0-0.4,0.1C61.8,19.3,61.9,19.2,62.1,19.2
		C62.1,19.2,62.1,19.2,62.1,19.2L62.1,19.2C62.1,19.2,62.1,19.2,62.1,19.2z"/>
	<path class="st2" d="M181.8,60.2C181.8,60.2,181.8,60.2,181.8,60.2l-0.2-0.2C181.7,60.1,181.7,60.1,181.8,60.2
		C181.8,60.2,181.8,60.2,181.8,60.2z"/>
	<path class="st21" d="M164.8,138.7c1-0.6,0.9-3.1,3-1.6C167.3,138.4,166.6,139.6,164.8,138.7z"/>
	<path class="st9" d="M137,252.6c1.6-0.1,2.4,0.9,3.1,1.7c9.7,10.4,19.4,20.8,29.1,31.1c2.6,2.8-0.1,3.6-1.5,4.2
		c-9.7,4.7-19.7,8.6-29.1,13.8c-7.9,4.4-12.8,3.5-18.4-3.9c-7-9.3-15.4-17.6-22.6-26.9c-1.1-1.4-2.4-2.6,0.2-3.7
		c12.5-5.3,25-10.5,37.5-15.8C136,253,136.6,252.7,137,252.6z"/>
	<path class="st10" d="M92,321.3L92,321.3L92,321.3L92,321.3C92,321.3,92,321.3,92,321.3C92,321.3,92,321.3,92,321.3z"/>
	<path class="st9" d="M119,309.3c-0.3-1.9-1.5-3.1-3.1-3.9v0c-8.4-10-16.8-19.9-25.3-29.8c-1-1.2-2.2-3.4-3.9-2.7
		c-7.7,3.3-16.2,4.6-23.7,8.5c-2.9-0.2-5.4,1.2-8.1,1.9c-9.1,2.4-9.1,2.4-3.8,10.1c0.7,1.2,1.8,2.2,3,3c7.2,9.3,15.1,17.9,22.7,26.8
		c1.5,1.8,3.1,2.6,5.1,2c3.4-1.2,7-1.8,10.1-3.8v0c0,0,0,0,0,0c0,0,0,0,0,0l0,0c3-0.2,5.7-1,8.1-3c0.3,0,0.6,0,0.9,0
		c6.6-0.8,11.9-5.1,18.2-6.8C121.2,311,120.1,310,119,309.3z M71.4,283.9C71.4,283.9,71.4,283.9,71.4,283.9
		C71.4,283.9,71.4,283.9,71.4,283.9C71.4,283.9,71.4,283.9,71.4,283.9z"/>
	<path class="st22" d="M121.5,250.4c-5,0.4-10,0.7-14.4-2.2c-1.7-1.1-4.1-2.5-2.6-5.1c1.5-2.7,3.6-1.3,5.6-0.4
		c1.5,0.7,3.1,1.3,4.7,1.6c2.9,0.5,5.5-0.4,8.1-1.6c3.5-1.5,0-5,2.1-6.8c4.8,0.5,9,5.6,7.9,9.7C128.9,246.8,125.8,250,121.5,250.4z"
		/>
	<path class="st23" d="M35.1,272.5c1.9,1.2,3.8,2.4,4,5C37.3,276.2,35.4,275,35.1,272.5z"/>
	<path class="st24" d="M51.1,293.4c1.3,0.7,2.3,1.6,2.9,3C52.2,296.3,51.2,295.3,51.1,293.4z"/>
	<path class="st25" d="M114.9,126.9C114.9,126.9,114.9,126.9,114.9,126.9L114.9,126.9C114.9,126.9,114.9,126.9,114.9,126.9z"/>
	<path class="st25" d="M115.1,127c0,0-0.1,0-0.2,0l0,0C115,126.9,115.1,126.9,115.1,127z"/>
	<path class="st26" d="M96.1,58C96.1,58,96,58.1,96.1,58c-0.2,0.2-0.3,0.3-0.5,0.4C95.7,58.3,95.9,58.2,96.1,58C96,58,96,58,96.1,58
		z"/>
	<path class="st26" d="M96.1,58L96.1,58C96.1,58,96.1,58,96.1,58C96.1,58,96.1,58,96.1,58L96.1,58z"/>
	<path class="st4" d="M181.8,60.2C181.8,60.2,181.8,60.2,181.8,60.2L181.8,60.2C181.8,60.2,181.8,60.2,181.8,60.2z"/>
	<path class="st27" d="M158.7,95.9c1.9,1.8,0.8,3.9,0,6C158.7,99.9,158.7,97.9,158.7,95.9C158.7,95.9,158.7,95.9,158.7,95.9z"/>
	<path class="st28" d="M198.6,233.6c-2.9,4.8-7,8.4-12.1,10.8c-0.1,0-0.1,0-0.2,0.1c-10,2.4-20,3.5-30.2,1.1
		c-1.9-0.4-3.9-0.8-5.3-2.2c-1.4-0.4-2.5-1.1-3.2-2.4c0,0,0,0,0,0c-1.6-1.1-3.2-2.2-4.8-3.2c-0.1,0-0.1-0.1-0.1-0.1
		c-8.3-8.9-11.6-19.8-12.8-31.6l0-0.1c1.6-6.3,6-10,11.7-12.2c8.1-3.1,16.4-5,25.1-4.7l-0.1-0.2c3.8-0.5,7.5-0.5,11.3,0
		c2.2,0.5,4.7-0.5,6.7,1c0.1,0.1,0.2,0.1,0.3,0.1c11.2,1.5,16.9,8.7,17.6,22.2c0.4,7.5-1.2,14.6-4,21.6
		C198.6,233.5,198.6,233.6,198.6,233.6z"/>
	<path class="st29" d="M150.9,243.2c-0.2-0.4-0.2-0.7,0-0.9c0,0.1,0,0.2,0,0.2C150.9,242.8,150.9,243,150.9,243.2z"/>
	<path class="st29" d="M148.3,240.2c-0.2,0.2-0.4,0.4-0.7,0.5c0-0.1,0.2-0.4,0.2-0.4C148,240.3,148.2,240.3,148.3,240.2z"/>
	<path class="st30" d="M130,205.7L130,205.7c-0.1-0.1-0.2-0.1-0.3-0.2c0.1,0,0.2,0,0.3,0C129.9,205.6,129.9,205.7,130,205.7z"/>
	<path class="st29" d="M104.8,204.7c-0.4-2.6-2-4.3-3.9-6.1c-4.2-4-9.8-4.8-14.9-6.8c-0.1,0-0.2-0.1-0.3-0.1
		c-5.8-0.4-11.6-1.9-17.5-1.1c-0.1,0-0.2,0-0.2,0c-10.7-1.4-20.8,0-29.6,6.9c-0.1,0.1-0.2,0.1-0.2,0.2c-0.4,0.6-0.8,1.1-1.2,1.7
		c0,0-0.1,0.1-0.1,0.1c-5,9.9-4.3,20-1.2,30.1c1.9,6.2,4.9,11.8,11.2,14.6c0.1,0,0.2,0.1,0.3,0.2c1.1,1.1,2.5,1.5,4,1.7
		c0.1,0,0.1,0,0.2,0c3.2,1,6.4,1.9,9.8,1.9c3.9,0,7.9,0,11.8,0c0.1,0,0.1,0,0.2,0c3.2-0.6,6.5-1.2,9.7-1.8c0.1,0,0.2-0.1,0.3-0.1
		c7.4-3.8,12.1-10.3,16.7-16.9c0.1-0.1,0.1-0.2,0.1-0.2c1.8-5.2,4.4-10.1,4.9-15.6C105.2,210.6,105.4,207.7,104.8,204.7z M50,243.9
		c0,0-0.1,0-0.1,0c-0.7,0-1.2-0.7-1-1.3c4.7-15.9,9.7-31.7,18.1-46.2c0.8-1.3,1.7-2.6,1.2-4.3c2.5,1,1.8,2.3,0.8,4.2
		c-7.5,15-13,30.9-17.8,46.9C51.1,243.7,50.6,244,50,243.9z M76.8,205.3c-4.6,12.1-9.3,24.2-12.7,36.7c-0.3,1.2-1,2.5-0.9,3.8
		c-0.3,0.4-0.5,0.7-0.9,1.1c-0.3,0-0.6,0.2-0.9,0.4c0-0.1,0-0.2,0-0.3c-0.4-1.5-0.2-2.9,0.2-4.4c3-9.3,5.5-18.8,9.5-27.8
		c2.2-5.1,3.4-10.8,7.1-15.9C78.5,201.7,77.5,203.5,76.8,205.3z"/>
	<path class="st28" d="M147.8,240.4c0.2-0.1,0.3-0.1,0.5-0.2c-0.2,0.2-0.4,0.4-0.7,0.5C147.7,240.7,147.8,240.4,147.8,240.4z"/>
	<path class="st31" d="M92,321.3L92,321.3L92,321.3L92,321.3C92,321.3,92,321.3,92,321.3z"/>
	<path class="st32" d="M49.9,244.6c-0.2-0.1-0.4-0.1-0.6-0.1c-1.2-0.1-2.1-1.3-1.8-2.5c0.2-0.7,0.5-1.4,0.7-2.1
		c5.2-16.3,10.6-32.4,19.3-47.3c0.4-0.6,1-1,1.7-1c0,0,0,0,0,0c1.7-0.1,2.8,1.6,2,3.1c-8.2,15.5-13.5,32.1-18.9,48.6c0,0,0,0,0,0
		C52,244.4,50.9,244.9,49.9,244.6z"/>
	<path class="st32" d="M64.2,246.2c-0.9,0.6-1.6,1-2.5,1.6c-3.8-0.6-2.2-2.7-1.6-4.4c4.4-14.7,9.5-29.3,15.7-43.3
		c0.7-1.6,0.9-4.2,3.2-3.4c2.1,0.8,1.2,3.2,0.6,4.8c-3.6,10-7.3,19.9-10.8,29.8C67,236.2,65.7,241.2,64.2,246.2z"/>
	<path class="st33" d="M164.7,230.2c0.1-0.4,0.1-0.7,0.3-1.1c4.2-12.2,8.4-24.3,12.6-36.5c0.5-1.5,0.9-2.8,2.9-2.9
		c2.2,0,2.3,1.4,2.2,3c-5.3,14.3-10,28.7-13.9,43.4c-0.5,1.9-1.3,3.8-1.6,5.7c-0.5,2.7-1.7,4.6-4.6,3.5c-2.5-1-2.2-2.9-1.3-4.7
		c0.3-0.6,0.5-1.3,0.5-2c0.2-2.8,1.9-5.1,2.7-7.6C164.6,230.8,164.7,230.5,164.7,230.2L164.7,230.2z"/>
	<path class="st33" d="M151.1,241.4c-1-0.8-1.9-0.9-2.8-1.9c-0.2-0.2-0.3-0.4-0.3-0.7c-0.2-3,1-4.7,2-7.5
		c4.9-14,10.4-27.7,16.4-41.2c0.2-0.4,0.5-0.6,0.9-0.6c3.4-0.2,3.7,1.5,2.4,4.7c-5.2,13.4-10.3,26.9-15.4,40.3
		c-1,2.6-1.6,4.2-2.5,6.8C151.6,241.3,151.4,241.3,151.1,241.4z"/>
	<path class="st28" d="M164.7,230.6c-0.3,3.2-1.3,6.3-2.8,9.1c-1.2-1.1-3.6-1.7-0.9-4C162.5,234.4,163.5,232.3,164.7,230.6z"/>
</g>
</svg>
