<svg xmlns="http://www.w3.org/2000/svg" fill="#00897B" viewBox="436.33 555.19 935.39 698.57"><path d="M1161 726.13v118.48h210.76l-72.86 160.27h-137.89v248.88l-203.42-.67a7.8 7.8 0 0 1-7.77-7.35l-23.46-426.29 164.38 111.98c-25.71-132.56-143.8-139.8-143.8-139.8l175.41-9.19c-69.1-82.74-189.87-25.34-189.87-25.34l107.03-99.12c-102.83-31.33-135.13 66.33-135.13 66.33-36.95-80.32-125.34-72.45-128.56-73.25-3.2-.8 83.01 98.08 84.34 99.6-120.78-55.67-174.31 36.98-174.31 36.98H865C716.38 803.7 717.18 939.46 717.18 939.46s164.11-118.49 165.42-120c-.7 2.93-14.75 282.92-24.19 425.48-.29 4.41-3.96 7.8-8.37 7.79l-202.91-.67V724.43H483.57l-47.2-169.24 935.39 1.49v169.46H1161z"/></svg>